<?xml version="1.0" encoding="UTF-8"?>
<svg width="120px" height="104px" viewBox="0 0 120 104" version="1.1" xmlns="http://www.w3.org/2000/svg" xmlns:xlink="http://www.w3.org/1999/xlink">
    <!-- Generator: Sketch 42 (36781) - http://www.bohemiancoding.com/sketch -->
    <title>Group 3</title>
    <desc>Created with Sketch.</desc>
    <defs></defs>
    <g id="Endelig-design" stroke="none" stroke-width="1" fill="none" fill-rule="evenodd">
        <g id="5B---Resultat-Lesetest---nivå-3-4" transform="translate(-872.000000, -321.000000)">
            <g id="Group-3" transform="translate(872.000000, 321.000000)">
                <g id="Group-2" transform="translate(44.000000, 0.000000)">
                    <path d="M48.97486,103.125205 L29.870741,103.125205 C29.3831526,103.125205 28.989026,102.73043 28.989026,102.244011 L28.989026,1.20194806 C28.989026,0.715529195 29.3831526,0.320754467 29.870741,0.320754467 L48.97486,0.320754467 C49.4624484,0.320754467 49.856575,0.715529195 49.856575,1.20194806 L49.856575,102.244011 C49.856575,102.73043 49.4624484,103.125205 48.97486,103.125205" id="Fill-110" fill="#06626B"></path>
                    <polygon id="Fill-111" fill="#448891" points="36.887429 78.7099738 41.9572903 78.7099738 41.9572903 24.7359853 36.887429 24.7359853"></polygon>
                    <polygon id="Fill-112" fill="#448891" points="28.989026 17.2053048 36.887429 17.2053048 36.887429 13.6126786 28.989026 13.6126786"></polygon>
                    <polygon id="Fill-113" fill="#448891" points="41.9572903 17.2053048 49.856575 17.2053048 49.856575 13.6126786 41.9572903 13.6126786"></polygon>
                    <polygon id="Fill-114" fill="#448891" points="28.989026 89.8323993 36.887429 89.8323993 36.887429 86.2397731 28.989026 86.2397731"></polygon>
                    <polygon id="Fill-115" fill="#448891" points="41.9572903 89.8323993 49.856575 89.8323993 49.856575 86.2397731 41.9572903 86.2397731"></polygon>
                    <path d="M48.97486,103.125205 L39.4223596,103.125205 L39.4223596,78.7099738 L41.9572903,78.7099738 L41.9572903,24.7359853 L39.4223596,24.7359853 L39.4223596,0.320754467 L48.97486,0.320754467 C49.4624484,0.320754467 49.856575,0.715529195 49.856575,1.20194806 L49.856575,13.6126786 L41.9572903,13.6126786 L41.9572903,17.2053048 L49.856575,17.2053048 L49.856575,86.2397731 L41.9572903,86.2397731 L41.9572903,89.8323993 L49.856575,89.8323993 L49.856575,102.244011 C49.856575,102.73043 49.4624484,103.125205 48.97486,103.125205" id="Fill-116" fill="#055159"></path>
                    <polygon id="Fill-117" fill="#387179" points="39.4223596 78.7099738 41.9572903 78.7099738 41.9572903 24.7359853 39.4223596 24.7359853"></polygon>
                    <polygon id="Fill-118" fill="#387179" points="41.9572903 17.2053048 49.856575 17.2053048 49.856575 13.6126786 41.9572903 13.6126786"></polygon>
                    <polygon id="Fill-119" fill="#387179" points="41.9572903 89.8323993 49.856575 89.8323993 49.856575 86.2397731 41.9572903 86.2397731"></polygon>
                    <path d="M20.1630588,103.12168 L1.4980338,101.490591 C1.01132711,101.448293 0.65335082,101.021796 0.694791425,100.536258 L8.56321614,10.6668484 C8.60465675,10.1821919 9.03317024,9.82354614 9.51723178,9.86496224 L28.1831385,11.4986952 C28.6689634,11.5409924 29.0269397,11.9683713 28.9854991,12.4530278 L21.1170744,102.321556 C21.0756338,102.807094 20.6488837,103.164858 20.1630588,103.12168" id="Fill-120" fill="#FCC390"></path>
                    <polyline id="Fill-121" fill="#EB8452" points="7.60567364 21.6059856 28.0270749 23.3912838 28.2580842 20.7582774 7.83580126 18.972098 7.60567364 21.6059856"></polyline>
                    <polyline id="Fill-122" fill="#EB8452" points="6.67281917 32.249923 27.0951021 34.0352212 27.3261115 31.4022148 6.9038285 29.6160354 6.67281917 32.249923"></polyline>
                    <polyline id="Fill-123" fill="#EB8452" points="7.35703001 24.4487162 27.779313 26.2348956 27.8666028 25.2056614 7.44608323 23.419482 7.35703001 24.4487162"></polyline>
                    <polyline id="Fill-124" fill="#EB8452" points="1.65233392 89.5980018 22.0746169 91.3841812 21.8444893 94.0171877 1.42220631 92.2318895 1.65233392 89.5980018"></polyline>
                    <polyline id="Fill-125" fill="#EB8452" points="2.58430668 78.9540645 23.0065897 80.7402439 22.776462 83.3723691 2.35417907 81.5879521 2.58430668 78.9540645"></polyline>
                    <polyline id="Fill-126" fill="#EB8452" points="1.90185927 86.7552713 22.3241422 88.5405695 22.2342073 89.5698036 1.81192434 87.7836242 1.90185927 86.7552713"></polyline>
                    <polyline id="Fill-127" fill="#EB8452" points="13.3174235 36.8444664 9.92546583 75.5808554 8.89826784 75.4909737 12.2893438 36.7545846 13.3174235 36.8444664"></polyline>
                    <polyline id="Fill-128" fill="#EB8452" points="17.0506048 37.170508 13.6595289 75.9077782 12.6296858 75.8178965 16.0207617 37.0815075 17.0506048 37.170508"></polyline>
                    <polyline id="Fill-129" fill="#EB8452" points="20.7820227 37.4974308 17.3935919 76.234701 16.3628671 76.1448193 19.753943 37.4075491 20.7820227 37.4974308"></polyline>
                    <path d="M20.2529937,103.125205 C20.6815072,103.119917 21.0465372,102.805331 21.1109024,102.377952 C21.0465372,102.805331 20.6815072,103.119917 20.2529937,103.125205 M20.1727576,103.122561 C20.1701125,103.122561 20.1665856,103.122561 20.1630588,103.12168 L10.8301054,102.307457 L20.1630588,103.12168 C20.1665856,103.122561 20.1701125,103.122561 20.1727576,103.122561 M21.1126658,102.36121 C21.1144293,102.347992 21.1161927,102.334774 21.1170744,102.321556 L21.8444893,94.0171877 L21.1170744,102.321556 C21.1161927,102.334774 21.1144293,102.347992 21.1126658,102.36121" id="Fill-130" fill="#619EAA"></path>
                    <path d="M20.2424131,103.125205 L20.2424131,103.125205 C20.2194885,103.125205 20.1965639,103.124323 20.1727576,103.122561 C20.1701125,103.122561 20.1665856,103.122561 20.1630588,103.12168 L10.8301054,102.306576 L11.6342295,93.1245386 L21.8444893,94.0171877 L21.1170744,102.321556 C21.1161927,102.334774 21.1144293,102.347992 21.1126658,102.36121 C21.1126658,102.366497 21.1117841,102.372665 21.1109024,102.377952 C21.0465372,102.805331 20.6815072,103.119917 20.2529937,103.125205 L20.2424131,103.125205 M22.046402,91.7084605 L22.0746169,91.3841812 L11.8643571,90.4906509 L12.0230658,88.6771545 L22.2342073,89.5698036 L22.046402,91.7084605" id="Fill-131" fill="#CFA178"></path>
                    <polyline id="Fill-132" fill="#C06D44" points="21.8444893 94.0171877 21.8444893 94.0171877 11.6342295 93.1245386 11.8643571 90.4906509 22.0746169 91.3841812 21.8444893 94.0171877"></polyline>
                    <polyline id="Fill-133" fill="#619EAA" points="28.1831385 11.4986952 18.8510668 10.6818287 28.1831385 11.4986952"></polyline>
                    <path d="M22.3241422,88.5405695 L12.1130008,87.6479204 L12.5662023,82.4806012 L22.776462,83.3723691 L22.3241422,88.5405695 M22.8320101,82.7405533 L23.0065897,80.7402439 L12.7963299,79.8467136 L13.145489,75.8628374 L13.6595289,75.9077782 L17.0506048,37.170508 L16.5356832,37.1255671 L16.8848424,33.1425721 L27.0951021,34.0352212 L27.3261115,31.4022148 L17.11497,30.5095657 L17.5672898,25.3413653 L27.779313,26.2348956 L22.8320101,82.7405533 M19.753943,37.4075491 L16.3628671,76.1448193 L17.3935919,76.234701 L20.7820227,37.4974308 L19.753943,37.4075491 M27.7934204,26.0692312 L27.8666028,25.2056614 L17.6581064,24.3121311 L17.8168151,22.4986347 L28.0270749,23.3912838 L28.2580842,20.7582774 L18.0469427,19.8647471 L18.8510668,10.6818287 L28.1831385,11.4986952 C28.6442754,11.5383489 28.9899077,11.926074 28.989026,12.3798887 C28.989026,12.403681 28.9872625,12.4283544 28.9854991,12.4530278 L27.7934204,26.0692312" id="Fill-134" fill="#CFA178"></path>
                    <polyline id="Fill-135" fill="#C06D44" points="28.0270749 23.3912838 17.8168151 22.4986347 18.0469427 19.8647471 28.2580842 20.7582774 28.0270749 23.3912838"></polyline>
                    <polyline id="Fill-136" fill="#C06D44" points="27.0951021 34.0352212 16.8848424 33.1425721 17.11497 30.5095657 27.3261115 31.4022148 27.0951021 34.0352212"></polyline>
                    <polyline id="Fill-137" fill="#C06D44" points="27.779313 26.2348956 27.779313 26.2348956 17.5672898 25.3413653 17.6581064 24.3121311 27.8666028 25.2056614 27.7934204 26.0692312 27.7784313 26.2340144"></polyline>
                    <polyline id="Fill-138" fill="#C06D44" points="22.776462 83.3723691 22.776462 83.3723691 12.5662023 82.4806012 12.7963299 79.8467136 23.0065897 80.7402439 22.8320101 82.7405533 22.776462 83.3723691"></polyline>
                    <polyline id="Fill-139" fill="#C06D44" points="22.2342073 89.5698036 22.2342073 89.5698036 12.0230658 88.6771545 12.1130008 87.6479204 22.3241422 88.5405695 22.2333256 89.5698036"></polyline>
                    <polyline id="Fill-140" fill="#C06D44" points="13.6595289 75.9077782 13.145489 75.8628374 16.5356832 37.1255671 17.0506048 37.170508 13.6595289 75.9077782"></polyline>
                    <polyline id="Fill-141" fill="#C06D44" points="17.3935919 76.234701 16.3628671 76.1448193 19.753943 37.4075491 20.7820227 37.4974308 17.3935919 76.234701"></polyline>
                    <path d="M74.3964671,103.125205 L50.73829,103.125205 C50.2507016,103.125205 49.856575,102.73043 49.856575,102.244011 L49.856575,36.8885261 C49.856575,36.4021072 50.2507016,36.0073325 50.73829,36.0073325 L74.3964671,36.0073325 C74.8840555,36.0073325 75.2781821,36.4021072 75.2781821,36.8885261 L75.2781821,102.244011 C75.2781821,102.73043 74.8840555,103.125205 74.3964671,103.125205" id="Fill-142" fill="#F04F5F"></path>
                    <path d="M70.2568151,51.381517 C70.2568151,55.6253454 66.813718,59.0655251 62.5673786,59.0655251 C58.3210391,59.0655251 54.877942,55.6253454 54.877942,51.381517 C54.877942,47.1376887 58.3210391,43.6975089 62.5673786,43.6975089 C66.813718,43.6975089 70.2568151,47.1376887 70.2568151,51.381517" id="Fill-143" fill="#D63B51"></path>
                    <polygon id="Fill-144" fill="#D63B51" points="57.6447637 94.0163065 67.4899934 94.0163065 67.4899934 65.8040125 57.6447637 65.8040125"></polygon>
                    <path d="M74.3964671,103.125205 L62.5673786,103.125205 L62.5673786,94.0163065 L67.4899934,94.0163065 L67.4899934,65.8040125 L62.5673786,65.8040125 L62.5673786,59.0655251 C66.813718,59.0655251 70.2568151,55.6253454 70.2568151,51.381517 C70.2568151,47.1376887 66.813718,43.6975089 62.5673786,43.6975089 L62.5673786,36.0073325 L74.3964671,36.0073325 C74.8840555,36.0073325 75.2781821,36.4021072 75.2781821,36.8885261 L75.2781821,102.244011 C75.2781821,102.73043 74.8840555,103.125205 74.3964671,103.125205" id="Fill-145" fill="#C5414F"></path>
                    <path d="M62.5673786,59.0655251 L62.5673786,43.6975089 C66.813718,43.6975089 70.2568151,47.1376887 70.2568151,51.381517 C70.2568151,55.6253454 66.813718,59.0655251 62.5673786,59.0655251" id="Fill-146" fill="#AF3143"></path>
                    <polygon id="Fill-147" fill="#AF3143" points="62.5673786 94.0163065 67.4899934 94.0163065 67.4899934 65.8040125 62.5673786 65.8040125"></polygon>
                </g>
                <g id="Group-6" transform="translate(0.000000, 61.000000)">
                    <path d="M19.4621934,18.0214527 C18.8972822,18.0214527 18.4403814,17.5629998 18.4403814,16.9972313 L18.4403814,3.18698319 C18.4403814,2.62207313 18.8972822,2.16362028 19.4621934,2.16362028 C20.0271045,2.16362028 20.4840053,2.62207313 20.4840053,3.18698319 L20.4840053,16.9972313 C20.4840053,17.5629998 20.0271045,18.0214527 19.4621934,18.0214527" id="Fill-120" fill="#8A3E19"></path>
                    <path d="M30.1063533,10.7256994 C26.2539852,9.97363065 22.3218952,12.0255076 19.4621934,15.7712562 C16.6007771,12.0255076 12.6686871,9.97363065 8.81803339,10.7256994 C2.5405764,11.9508159 -1.14891901,20.1360021 0.576674448,29.0088675 C2.30226791,37.88345 8.78803053,44.0837243 15.0637731,42.8603248 C16.730218,42.535802 18.2123597,41.7150513 19.4621934,40.5259928 C20.7103126,41.7150513 22.1933115,42.535802 23.8597564,42.8603248 C30.1346418,44.0837243 36.6221188,37.88345 38.3468551,29.0088675 C40.0715913,20.1360021 36.3820959,11.9508159 30.1063533,10.7256994" id="Fill-121" fill="#F04F5F"></path>
                    <path d="M19.4621934,10.1968474 C19.4621934,10.1968474 14.7183115,10.4020351 11.9169009,7.59637235 C9.11720484,4.79242667 9.32122433,0.0396271338 9.32122433,0.0396271338 C9.32122433,0.0396271338 14.0659634,-0.165560563 16.867374,2.63924364 C19.6679273,5.44490638 19.4621934,10.1968474 19.4621934,10.1968474" id="Fill-122" fill="#448891"></path>
                    <path d="M19.2444583,10.2002815 C19.2144554,10.2002815 19.1827381,10.199423 19.1484491,10.199423 C19.1827381,10.199423 19.2144554,10.2002815 19.2444583,10.2002815 C19.3850431,10.2002815 19.4621934,10.1968474 19.4621934,10.1968474 C19.4621934,10.1968474 19.3850431,10.2002815 19.2444583,10.2002815 M19.1184462,10.199423 L19.109874,10.199423 L19.1184462,10.199423" id="Fill-123" fill="#713314"></path>
                    <path d="M19.2444583,10.2002815 C19.2144554,10.2002815 19.1827381,10.199423 19.1484491,10.199423 L19.1184462,10.199423 L19.109874,10.199423 C18.0143407,10.1839695 14.6017289,9.96504539 12.2555047,7.91316842 C12.2537903,7.91145137 12.2512186,7.90973432 12.2495042,7.90801726 C12.2237874,7.88569559 12.1980707,7.86251539 12.1723539,7.83933519 C12.1680678,7.83590109 12.1637817,7.83160846 12.1586383,7.82731583 C12.1526378,7.82130615 12.14578,7.81529646 12.1389222,7.80928678 C12.1372077,7.8067112 12.134636,7.80499415 12.1320644,7.80241857 C12.0994898,7.77237017 12.0669153,7.74232176 12.035198,7.71141483 C12.0257685,7.70282957 12.016339,7.69424431 12.0069095,7.68480052 C11.9983373,7.67621526 11.9889078,7.66763 11.9803356,7.65904474 C11.974335,7.65303506 11.9683344,7.64702538 11.9623339,7.64187423 C11.9563333,7.63586454 11.9511899,7.62985486 11.9451894,7.62470371 C11.9357599,7.61525992 11.9263304,7.60581614 11.9169009,7.59637235 C9.47209589,5.14785641 9.31779543,1.21494913 9.31779543,0.255117142 C9.31779543,0.116035941 9.32122433,0.0396271338 9.32122433,0.0396271338 L19.4621934,10.1968474 C19.4621934,10.1968474 19.3850431,10.2002815 19.2444583,10.2002815" id="Fill-124" fill="#387179"></path>
                    <path d="M25.455909,43.014001 C24.9244296,43.014001 24.3912358,42.963348 23.8597564,42.8603248 C22.1933115,42.535802 20.7103126,41.7150513 19.4621934,40.5259928 L19.4621934,15.7712562 C21.9275718,12.5414817 25.1901693,10.5711647 28.5119153,10.5711647 C29.0425374,10.5711647 29.5757312,10.6218177 30.1063533,10.7256994 C35.3345672,11.7456282 38.7677524,17.5964824 38.7711813,24.6501314 C38.7720386,26.0641236 38.6348826,27.5270518 38.3468551,29.0088675 C36.767847,37.1313813 31.2001722,43.014001 25.455909,43.014001" id="Fill-125" fill="#C5414F"></path>
                    <path d="M10.2127381,20.2381666 C10.2127381,21.4624246 9.22264349,22.4540221 7.99938374,22.4540221 C6.77783844,22.4540221 5.78602938,21.4624246 5.78602938,20.2381666 C5.78602938,19.0139087 6.77783844,18.0214527 7.99938374,18.0214527 C9.22264349,18.0214527 10.2127381,19.0139087 10.2127381,20.2381666" id="Fill-126" fill="#FFFFFF"></path>
                    <path d="M34.1156468,30.7027392 C34.0805006,30.5379022 34.0487833,30.3764993 34.0213521,30.2168135 C34.1165041,30.2717592 34.1499358,30.4374547 34.1156468,30.7027392" id="Fill-63" fill="#C06D44"></path>
                </g>
            </g>
        </g>
    </g>
</svg>