<?xml version="1.0" encoding="UTF-8"?>
<svg width="34px" height="34px" viewBox="0 0 34 34" version="1.1" xmlns="http://www.w3.org/2000/svg" xmlns:xlink="http://www.w3.org/1999/xlink">
    <!-- Generator: Sketch 42 (36781) - http://www.bohemiancoding.com/sketch -->
    <title>text-to-speech</title>
    <desc>Created with Sketch.</desc>
    <defs></defs>
    <g id="Endelig-design" stroke="none" stroke-width="1" fill="none" fill-rule="evenodd">
        <g id="Intro-Selvtest-i-lesing" transform="translate(-211.000000, -623.000000)">
            <g id="text-to-speech" transform="translate(211.000000, 623.000000)">
                <circle id="Oval-2-Copy-3" fill="#149DC4" cx="17" cy="17" r="17"></circle>
                <g id="Group-3" transform="translate(9.000000, 8.000000)" fill="#FFFFFF">
                    <g id="Group">
                        <path d="M9.8821,0.835690917 C9.52,0.694226975 9.10605,0.752790005 8.8128,0.993126594 L4.01285,4.92369462 C3.9219,4.99898994 3.80035,5.03625732 3.67625,5.03625732 L2.09525,5.03625732 C1.00725,5.03625732 0.12155,5.83636521 0.12155,6.80988051 L0.12155,10.3251834 C0.12155,11.2986987 1.0064,12.0988066 2.09525,12.0988066 L3.67625,12.0988066 C3.80035,12.0988066 3.9185,12.136074 4.00945,12.2113693 L8.80685,16.144219 C8.99385,16.2978519 9.2293,16.37695 9.46815,16.37695 C9.6033,16.37695 9.7512,16.351091 9.88125,16.3001336 C10.2442,16.1571485 10.4822,15.8476011 10.4822,15.4924201 L10.4822,1.64340439 C10.48305,1.28822342 10.24505,0.978675977 9.8821,0.835690917 Z M4.6767,11.5595704 C4.403,11.3352055 4.0477,11.2157978 3.67625,11.2157978 L2.09525,11.2157978 C1.55125,11.2157978 1.1084,10.8119411 1.1084,10.3251834 L1.1084,6.80988051 C1.1084,6.32312286 1.55125,5.91926612 2.09525,5.91926612 L3.67625,5.91926612 C4.0477,5.91926612 4.403,5.79985838 4.6767,5.57549353 L9.47155,1.63808048 L9.4741,15.490899 L4.6767,11.5595704 Z" id="Shape"></path>
                        <path d="M13.3046,4.38725 C13.1244,4.1824 12.81245,4.16115 12.60845,4.34135 C12.4036,4.5207 12.38235,4.83265 12.5617,5.0375 C14.3637,7.0962 14.3637,10.2021 12.5617,12.2608 C12.38235,12.46565 12.4036,12.7776 12.60845,12.95695 C12.70195,13.03855 12.81755,13.07935 12.93315,13.07935 C13.07085,13.07935 13.20685,13.0224 13.3046,12.91105 C15.43045,10.4809 15.43045,6.8174 13.3046,4.38725 Z" id="Shape"></path>
                        <path d="M15.2647,1.918 C15.08025,1.71825 14.76745,1.70635 14.5677,1.88995 C14.36795,2.0744 14.3552,2.3872 14.5405,2.58695 C17.67785,5.9861 17.67785,11.3122 14.5405,14.71135 C14.3552,14.91195 14.36795,15.2239 14.5677,15.40835 C14.6629,15.4959 14.78275,15.53925 14.9026,15.53925 C15.0352,15.53925 15.1678,15.4857 15.2647,15.3803 C18.74885,11.6063 18.74885,5.69285 15.2647,1.918 Z" id="Shape"></path>
                        <polygon id="Path-6" points="1.77956445 11.6667126 3.99333824 11.6795379 7.59287123 14.6130931 9.43033162 15.8878039 10.1160165 14.8204878 10.167005 1.42335571 9.28049445 1.25600104 4.00647636 5.51056333 1.19648203 5.80085329 0.505792111 7.93579834 0.865839254 10.5224446"></polygon>
                    </g>
                </g>
            </g>
        </g>
    </g>
</svg>