<svg xmlns="http://www.w3.org/2000/svg" xmlns:xlink="http://www.w3.org/1999/xlink" width="113" height="97" viewBox="0 0 113 97">
    <defs>
        <path id="a" d="M.07.986h99.787V9H.069z"/>
        <path id="c" d="M.965.986h49.892V9H.965z"/>
        <path id="e" d="M0 96.599h112.857V.999H0z"/>
    </defs>
    <g fill="none" fill-rule="evenodd">
        <path fill="#143961" d="M21.157 92.59V42.274a4.25 4.25 0 0 1 4.247-4.256h75.12a4.25 4.25 0 0 1 4.248 4.256V92.59H21.157"/>
        <g transform="translate(13 87.599)">
            <mask id="b" fill="#fff">
                <use xlink:href="#a"/>
            </mask>
            <path fill="#0D6C7D" d="M.07 4.992V.986h99.787v4.006C99.857 7.206 97.958 9 95.611 9H4.315C1.971 9 .07 7.206.07 4.992" mask="url(#b)"/>
        </g>
        <path fill="#143961" d="M83.24 93.867H42.69a1.275 1.275 0 0 1 0-2.552h40.55c.704 0 1.271.572 1.271 1.276 0 .705-.567 1.276-1.272 1.276"/>
        <path fill="#0F2E50" d="M104.772 88.584H62.964v-4.397h36.832V42.912H62.964v-4.893h37.56a4.25 4.25 0 0 1 4.248 4.255v46.31"/>
        <g transform="translate(62 87.599)">
            <mask id="d" fill="#fff">
                <use xlink:href="#c"/>
            </mask>
            <path fill="#0A5968" d="M46.612 9H.965V6.269h20.274c.705 0 1.272-.572 1.272-1.277 0-.704-.567-1.276-1.272-1.276H.965V.986h49.893v4.006C50.858 7.18 49 8.959 46.692 9h-.08" mask="url(#d)"/>
        </g>
        <path fill="#0F2E50" d="M83.24 93.867H62.964v-2.552H83.24c.705 0 1.272.572 1.272 1.276 0 .705-.567 1.276-1.272 1.276"/>
        <mask id="f" fill="#fff">
            <use xlink:href="#e"/>
        </mask>
        <path fill="#71CEED" d="M26.131 84.186h73.665V42.912H26.131z" mask="url(#f)"/>
        <path fill="#FEFEFE" d="M86.225 78.994H39.703a1.417 1.417 0 0 1-1.417-1.417V49.708c0-.783.634-1.418 1.417-1.418h46.522c.783 0 1.417.635 1.417 1.418v27.87c0 .781-.634 1.416-1.417 1.416" mask="url(#f)"/>
        <path fill="#D1D1D1" d="M53.819 57.496h27.297V55.81H53.819zM53.819 62.14h27.297v-1.687H53.819zM45.077 66.782h36.04v-1.684h-36.04zM45.077 71.425h36.04V69.74h-36.04z" mask="url(#f)"/>
        <path fill="#A2A2A2" d="M48.188 59.641h-1.589v1.917h1.589c.69 0 1.018-.438 1.018-.965 0-.525-.329-.952-1.019-.952m-.097-3.166H46.6v1.797h1.49c.645 0 1.007-.362 1.007-.899 0-.536-.361-.898-1.008-.898m.252 6.441h-3.264v-7.799h3.133c1.523 0 2.41.855 2.41 2.191 0 .865-.57 1.424-.964 1.61.47.22 1.072.712 1.072 1.752 0 1.457-.995 2.246-2.388 2.246" mask="url(#f)"/>
        <path fill="#FDFEFE" d="M46.583 2H13.166C6.446 2 .999 7.844.999 15.053v15.294c0 7.21 5.447 13.054 12.167 13.054H37.7l8.882 7.21v-7.21c6.718 0 12.165-5.844 12.165-13.054V15.053C58.748 7.844 53.3 2 46.583 2" mask="url(#f)"/>
        <path stroke="#12ABB4" stroke-linecap="round" stroke-linejoin="round" stroke-width="2" d="M46.583 2H13.166C6.446 2 .999 7.844.999 15.053v15.294c0 7.21 5.447 13.054 12.167 13.054H37.7l8.882 7.21v-7.21c6.718 0 12.165-5.844 12.165-13.054V15.053C58.748 7.844 53.3 2 46.583 2z" mask="url(#f)"/>
        <path fill="#12ABB4" d="M20.279 14.544H47.81V12.3H20.279zM20.279 20.73H47.81v-2.245H20.279zM11.937 26.916h35.874v-2.244H11.937zM11.937 33.1h35.874v-2.245H11.937zM15.336 17.184H13.6v2.095h1.736c.754 0 1.113-.479 1.113-1.054 0-.574-.36-1.04-1.113-1.04m-.107-3.459h-1.63v1.962h1.63c.705 0 1.1-.396 1.1-.98 0-.588-.395-.982-1.1-.982m.274 7.037h-3.566v-8.522h3.423c1.664 0 2.634.934 2.634 2.394 0 .945-.623 1.556-1.054 1.76.515.24 1.172.778 1.172 1.914 0 1.592-1.088 2.454-2.61 2.454" mask="url(#f)"/>
    </g>
</svg>
