<?xml version="1.0" encoding="UTF-8"?>
<svg width="108px" height="85px" viewBox="0 0 108 85" version="1.1" xmlns="http://www.w3.org/2000/svg"
     xmlns:xlink="http://www.w3.org/1999/xlink">
  <defs>
    <path
      d="M89.2131797,52.5292185 L1.53682031,52.5292185 C1.19438086,52.5292185 0.917167969,52.2498459 0.917167969,51.905659 L0.917167969,0.783465793 C0.917167969,0.439278835 1.19438086,0.159906304 1.53682031,0.159906304 L89.2131797,0.159906304 C89.5563604,0.159906304 89.832832,0.439278835 89.832832,0.783465793 L89.832832,51.905659 C89.832832,52.2498459 89.5563604,52.5292185 89.2131797,52.5292185"
      id="path-1"></path>
  </defs>
  <g stroke="none" stroke-width="1" fill="none" fill-rule="evenodd">
    <g transform="translate(-943.000000, -828.000000)">
      <g transform="translate(943.000000, 828.000000)">
        <g>
          <polyline id="Fill-127" fill="#04517C"
                    points="66.2232518 82.8511132 31.8214286 82.8511132 37.5554364 66.1111111 60.4899852 66.1111111 66.2232518 82.8511132"></polyline>
          <path
            d="M76.4670218,80.2777778 L22.9530745,80.2777778 C20.6908987,80.2777778 18.8571429,82.1201465 18.8571429,84.3938664 L80.561471,84.3938664 C80.561471,82.1201465 78.7284563,80.2777778 76.4670218,80.2777778"
            id="Fill-128" fill="#034163"></path>
          <path
            d="M94.7423232,70.2528791 L4.09519043,70.2528791 C1.83375586,70.2528791 -7.10542736e-15,68.4090204 -7.10542736e-15,66.1367905 L-7.10542736e-15,4.11608862 C-7.10542736e-15,1.84311371 1.83375586,0 4.09519043,0 L94.7423232,0 C97.004499,0 98.8375137,1.84311371 98.8375137,4.11608862 L98.8375137,66.1367905 C98.8375137,68.4090204 97.004499,70.2528791 94.7423232,70.2528791"
            id="Fill-129" fill="#04517C"></path>
          <path
            d="M-7.10542736e-15,57.6666667 L-7.10542736e-15,66.4486491 C-7.10542736e-15,68.720879 1.83375586,70.5647377 4.09519043,70.5647377 L94.7423232,70.5647377 C97.004499,70.5647377 98.8375137,68.720879 98.8375137,66.4486491 L98.8375137,57.6666667 L-7.10542736e-15,57.6666667"
            id="Fill-130" fill="#034163"></path>
          <path
            d="M61.567844,65.8623153 L36.9944778,65.8623153 C36.0902005,65.8623153 35.3571429,65.1262618 35.3571429,64.2158799 C35.3571429,63.3069879 36.0902005,62.5694444 36.9944778,62.5694444 L61.567844,62.5694444 C62.4721214,62.5694444 63.2059202,63.3069879 63.2059202,64.2158799 C63.2059202,65.1262618 62.4721214,65.8623153 61.567844,65.8623153"
            id="Fill-131" fill="#04517C"></path>
          <path
            d="M64.763476,79.8327174 L64.763476,79.8327174 L61.2857143,69.6784571 L93.9204907,69.6784571 C96.1826664,69.6784571 98.0156811,67.8345984 98.0156811,65.5623685 L98.0156811,3.54166667 L98.0156811,65.5623685 C98.0156811,67.8345984 96.1826664,69.6784571 93.9204907,69.6784571 L61.2864555,69.6784571 L64.763476,79.8327174"
            id="Fill-132" fill="#619EAA"></path>
          <polyline id="Fill-133" fill="#034367"
                    points="65.6665518 80.807038 49.5 80.807038 49.5 70.6527778 62.18879 70.6527778 65.6665518 80.807038"></polyline>
          <path
            d="M80.3514229,84.3938664 L49.5,84.3938664 L49.5,80.2777778 L76.2569736,80.2777778 C78.5184082,80.2777778 80.3514229,82.1201465 80.3514229,84.3938664"
            id="Fill-134" fill="#023652"></path>
          <path
            d="M98.1988062,57.3548081 L92.6182291,57.3548081 C92.9614097,57.3548081 93.2378814,57.0754356 93.2378814,56.7312486 L93.2378814,5.60905543 C93.2378814,5.26486847 92.9614097,4.98549594 92.6182291,4.98549594 L62.5332183,4.98549594 C62.4887457,4.53104995 62.4642857,4.0617041 62.4642857,3.57969336 C62.4650269,3.15430212 62.4835572,2.71997096 62.525065,2.27595488 C62.563608,1.8557786 62.5821383,1.45199217 62.5821383,1.06608558 C62.5821383,0.695078857 62.5650904,0.339716998 62.5332183,0 L94.1036158,0 C96.3657916,0 98.1988062,1.84311371 98.1988062,4.11608862 L98.1988062,57.3548081"
            id="Fill-135" fill="#034367"></path>
          <path
            d="M94.8235664,70.5647377 L49.5,70.5647377 L49.5,65.7617651 L61.7870537,65.7617651 C62.6913311,65.7617651 63.4251299,65.0257116 63.4251299,64.1153297 C63.4251299,63.2064377 62.6913311,62.4688942 61.7870537,62.4688942 L49.5,62.4688942 L49.5,57.6666667 L98.9187568,57.6666667 L98.9187568,66.4486491 C98.9187568,68.720879 97.0857422,70.5647377 94.8235664,70.5647377"
            id="Fill-136" fill="#023652"></path>
          <path
            d="M61.7870537,65.8623153 L49.5,65.8623153 L49.5,62.5694444 L61.7870537,62.5694444 C62.6913311,62.5694444 63.4251299,63.3069879 63.4251299,64.2158799 C63.4251299,65.1262618 62.6913311,65.8623153 61.7870537,65.8623153"
            id="Fill-137" fill="#034367"></path>
          <g transform="translate(3.535714, 4.722222)">
            <mask id="mask-2" fill="white">
              <use xlink:href="#path-1"></use>
            </mask>
            <use fill="#0FA3B4" xlink:href="#path-1"></use>
            <polygon fill="#3FB5C3" mask="url(#mask-2)"
                     points="17.5313195 53.2018504 70.1301283 -0.143740057 -1.67023849 -0.709501012 -2.35714286 56.4930082"></polygon>
          </g>
        </g>
        <g transform="translate(85.000000, 47.000000)">
          <path
            d="M2.723775,37.7547273 L20.2147,37.7512727 C21.66485,37.7512727 22.84475,36.5755758 22.84475,35.1194848 L22.84475,2.72506061 C22.84475,1.27184848 21.66485,0.0921212121 20.2147,0.0921212121 L2.722625,0.0921212121 C1.27075,0.0921212121 0.09315,1.27184848 0.09315,2.72678788 L0.09315,35.1206364 C0.09315,36.5738485 1.27075,37.7547273 2.723775,37.7547273"
            id="Fill-178" fill="#04517C"></path>
          <path
            d="M9.126975,34.77 L14.2577,34.7705758 C14.839025,34.77 15.310525,34.2996061 15.310525,33.7169394 C15.309375,33.1342727 14.839025,32.6615758 14.25655,32.663303 L9.126975,32.6615758 C8.54795,32.663303 8.0753,33.1342727 8.0776,33.7169394 C8.0753,34.2996061 8.54795,34.77 9.126975,34.77"
            id="Fill-179" fill="#034163"></path>
          <path
            d="M10.508125,3.12175758 C10.508125,3.77351515 11.03885,4.30666667 11.690325,4.30666667 C12.344675,4.30551515 12.8754,3.77351515 12.8754,3.12060606 C12.8754,2.46481818 12.344675,1.93627273 11.6909,1.93627273 C11.03885,1.93627273 10.508125,2.4659697 10.508125,3.12175758"
            id="Fill-180" fill="#034163"></path>
          <path
            d="M11.46895,37.753 L11.46895,34.77 L14.2577,34.7705758 C14.839025,34.77 15.310525,34.2996061 15.310525,33.7169394 C15.309375,33.1354242 14.84075,32.663303 14.259425,32.663303 L14.25655,32.663303 L11.46895,32.6627273 L11.46895,30.9078182 L20.965075,30.9072424 L20.9622,5.66718182 L11.46895,5.66833333 L11.46895,4.28593939 C11.540825,4.29975758 11.615,4.30666667 11.690325,4.30666667 C12.344675,4.30551515 12.8754,3.77351515 12.8754,3.12060606 C12.8754,2.46481818 12.344675,1.93627273 11.6909,1.93627273 C11.615,1.93627273 11.540825,1.94375758 11.46895,1.95757576 L11.46895,0.0921212121 L20.2147,0.0921212121 C21.66485,0.0921212121 22.84475,1.27184848 22.84475,2.72506061 L22.84475,35.1194848 C22.84475,36.5755758 21.66485,37.7512727 20.2147,37.7512727 L11.46895,37.753"
            id="Fill-181" fill="#034367"></path>
          <path
            d="M14.2577,34.7705758 L11.46895,34.77 L11.46895,32.6627273 L14.25655,32.663303 L14.259425,32.663303 C14.84075,32.663303 15.309375,33.1354242 15.310525,33.7169394 C15.310525,34.2996061 14.839025,34.77 14.2577,34.7705758"
            id="Fill-182" fill="#023652"></path>
          <path
            d="M11.690325,4.30666667 C11.615,4.30666667 11.540825,4.29975758 11.46895,4.28593939 L11.46895,1.95757576 C11.540825,1.94375758 11.615,1.93627273 11.6909,1.93627273 C12.344675,1.93627273 12.8754,2.46481818 12.8754,3.12060606 C12.8754,3.77351515 12.344675,4.30551515 11.690325,4.30666667"
            id="Fill-183" fill="#023652"></path>
          <polyline id="Fill-184" fill="#0FA3B4"
                    points="2.422475 30.9083939 20.965075 30.9072424 20.9622 5.66718182 2.422475 5.67006061 2.422475 30.9083939"></polyline>
          <polyline id="Fill-185" fill="#3FB5C3"
                    points="2.422475 24.2319091 2.422475 5.67006061 20.9622 5.66718182 2.422475 24.2319091"></polyline>
        </g>
      </g>
    </g>
  </g>
</svg>
