<?xml version="1.0" encoding="UTF-8"?>
<svg width="141px" height="225px" viewBox="0 0 141 225" version="1.1" xmlns="http://www.w3.org/2000/svg" xmlns:xlink="http://www.w3.org/1999/xlink">
    <!-- Generator: Sketch 42 (36781) - http://www.bohemiancoding.com/sketch -->
    <title>Group 4</title>
    <desc>Created with Sketch.</desc>
    <defs></defs>
    <g id="Endelig-design" stroke="none" stroke-width="1" fill="none" fill-rule="evenodd">
        <g id="9A---Les-mer---lesetest" transform="translate(-955.000000, -284.000000)">
            <g id="Group-4" transform="translate(955.000000, 284.000000)">
                <polygon id="Fill-72" fill="#0FB0D4" points="51.591 138.9 71.591 138.9 71.591 118.9 51.591 118.9"></polygon>
                <polygon id="Fill-76" fill="#0FB0D4" points="51.591 168.9 71.591 168.9 71.591 148.9 51.591 148.9"></polygon>
                <polygon id="Fill-80" fill="#0FB0D4" points="51.591 198.9 71.591 198.9 71.591 178.9 51.591 178.9"></polygon>
                <polygon id="Fill-81" fill="#0FB0D4" points="21.591 198.9 41.591 198.9 41.591 178.9 21.591 178.9"></polygon>
                <polygon id="Fill-164" fill="#448891" points="5.853 224.127 135.393 224.127 135.393 188.897 5.853 188.897"></polygon>
                <polygon id="Fill-165" fill="#06626B" points="12.854 218.742 16.553 218.742 16.553 194.282 12.854 194.282"></polygon>
                <polygon id="Fill-166" fill="#06626B" points="20.313 218.742 22.393 218.742 22.393 194.282 20.313 194.282"></polygon>
                <polygon id="Fill-167" fill="#06626B" points="124.695 218.742 128.392 218.742 128.392 194.282 124.695 194.282"></polygon>
                <polygon id="Fill-168" fill="#06626B" points="118.855 218.742 120.934 218.742 120.934 194.282 118.855 194.282"></polygon>
                <polygon id="Fill-169" fill="#06626B" points="49.291 214.339 91.957 214.339 91.957 198.685 49.291 198.685"></polygon>
                <polyline id="Fill-170" fill="#387179" points="135.393 224.127 5.853 224.127 5.853 206.513 12.854 206.513 12.854 218.742 16.553 218.742 16.553 206.513 20.313 206.513 20.313 218.742 22.393 218.742 22.393 206.513 49.291 206.513 49.291 214.339 91.957 214.339 91.957 206.513 118.855 206.513 118.855 218.742 120.934 218.742 120.934 206.513 124.695 206.513 124.695 218.742 128.392 218.742 128.392 206.513 135.393 206.513 135.393 224.127"></polyline>
                <polygon id="Fill-171" fill="#055159" points="12.854 218.742 16.553 218.742 16.553 206.513 12.854 206.513"></polygon>
                <polygon id="Fill-172" fill="#055159" points="20.313 218.742 22.393 218.742 22.393 206.513 20.313 206.513"></polygon>
                <polygon id="Fill-173" fill="#055159" points="124.695 218.742 128.392 218.742 128.392 206.513 124.695 206.513"></polygon>
                <polygon id="Fill-174" fill="#055159" points="118.855 218.742 120.934 218.742 120.934 206.513 118.855 206.513"></polygon>
                <polygon id="Fill-175" fill="#055159" points="49.291 214.339 91.957 214.339 91.957 206.513 49.291 206.513"></polygon>
                <path d="M123.258,153.668 L0.375,153.668 L0.375,158.125 L6.334,158.125 L6.334,184.355 L0.375,184.355 L0.375,188.897 L123.258,188.897 C132.984,188.897 140.872,181.012 140.872,171.282 C140.872,161.554 132.984,153.668 123.258,153.668" id="Fill-176" fill="#F8C742"></path>
                <polyline id="Fill-177" fill="#F8C742" points="0.375 153.668 0.375 158.125 6.334 158.125 6.334 184.355 0.375 184.355 0.375 188.897 57.623 188.897 57.623 153.668 0.375 153.668"></polyline>
                <path d="M123.258,158.21 L6.334,158.21 L6.334,184.355 L123.258,184.355 C130.465,184.355 136.329,178.49 136.329,171.282 C136.329,164.075 130.465,158.21 123.258,158.21" id="Fill-178" fill="#FFFFFF"></path>
                <polygon id="Fill-179" fill="#E6E7E8" points="6.334 184.355 63.667 184.355 63.667 158.21 6.334 158.21"></polygon>
                <path d="M123.258,188.897 L57.623,188.897 L57.623,184.355 L123.258,184.355 C130.465,184.355 136.329,178.49 136.329,171.282 L140.872,171.282 C140.872,181.012 132.984,188.897 123.258,188.897" id="Fill-180" fill="#DDA42E"></path>
                <polygon id="Fill-181" fill="#DDA42E" points="0.375 188.897 57.623 188.897 57.623 184.355 0.375 184.355"></polygon>
                <path d="M123.258,184.355 L63.667,184.355 L63.667,171.282 L136.329,171.282 C136.329,178.49 130.465,184.355 123.258,184.355" id="Fill-182" fill="#D1D3D4"></path>
                <polygon id="Fill-183" fill="#BDBFC1" points="6.334 184.355 63.667 184.355 63.667 171.282 6.334 171.282"></polygon>
                <path d="M28.99,118.439 C19.262,118.439 11.375,126.324 11.375,136.054 C11.375,145.78 19.262,153.668 28.99,153.668 L119.872,153.668 L119.872,118.439 L28.99,118.439" id="Fill-184" fill="#5AB356"></path>
                <path d="M28.99,149.125 L119.872,149.125 L119.872,122.98 L28.99,122.98 C21.781,122.98 15.918,128.846 15.918,136.054 C15.918,143.261 21.781,149.125 28.99,149.125" id="Fill-185" fill="#FFFFFF"></path>
                <polygon id="Fill-186" fill="#4E9E4A" points="48.201 153.668 119.872 153.668 119.872 149.125 48.201 149.125"></polygon>
                <polygon id="Fill-187" fill="#D1D3D4" points="48.201 149.125 119.872 149.125 119.872 136.054 48.201 136.054"></polygon>
                <path d="M30.031,153.668 L28.99,153.668 C20.203,153.668 12.918,147.232 11.591,138.819 C11.449,137.918 11.375,136.995 11.375,136.054 L15.918,136.054 C15.918,143.261 21.781,149.125 28.99,149.125 L30.031,149.125 L30.031,153.668" id="Fill-188" fill="#4E9E4A"></path>
                <path d="M30.031,149.125 L28.99,149.125 C21.781,149.125 15.918,143.261 15.918,136.054 L30.031,136.054 L30.031,149.125" id="Fill-189" fill="#D1D3D4"></path>
                <polyline id="Fill-190" fill="#F04F5F" points="48.201 168.282 39.115 161.384 30.031 168.282 30.031 136.053 48.201 136.053 48.201 168.282"></polyline>
                <polyline id="Fill-191" fill="#C5414F" points="48.201 168.282 39.115 161.384 39.115 136.053 48.201 136.053 48.201 168.282"></polyline>
                <path d="M42.934,116.849 C42.986,117.727 43.742,118.438 44.623,118.438 L45.518,118.438 C46.015,118.438 46.406,117.723 46.424,116.844 C46.535,110.787 47.737,89.218 58.975,82.69 L55.187,63.024 L46.234,72.098 C43.14,75.234 40.843,81.339 41.104,85.735 L42.934,116.849" id="Fill-192" fill="#034163"></path>
                <path d="M95.078,116.849 C95.029,117.727 94.271,118.439 93.392,118.439 L92.494,118.439 C92,118.439 91.608,117.723 91.591,116.844 C91.479,110.787 90.277,89.218 79.04,82.69 L82.828,63.024 L91.782,72.098 C94.875,75.234 97.169,81.339 96.91,85.735 L95.078,116.849" id="Fill-193" fill="#034163"></path>
                <path d="M69.64,19.672 C69.299,19.396 68.716,19.396 68.375,19.672 C63.95,23.258 38.478,46.953 62.961,100.116 L75.054,100.116 C99.534,46.953 74.064,23.258 69.64,19.672" id="Fill-194" fill="#F04F5F"></path>
                <path d="M68.375,19.672 C66.641,21.079 61.668,25.58 57.739,33.738 L80.272,33.738 C76.347,25.58 71.375,21.079 69.64,19.672 C69.299,19.396 68.716,19.396 68.375,19.672" id="Fill-195" fill="#04517C"></path>
                <path d="M69.009,60.781 C62.777,60.781 57.71,55.713 57.71,49.485 C57.71,43.257 62.777,38.189 69.009,38.189 C75.234,38.189 80.302,43.257 80.302,49.485 C80.302,55.713 75.234,60.781 69.009,60.781" id="Fill-196" fill="#04517C"></path>
                <path d="M77.91,49.485 C77.91,54.402 73.924,58.389 69.009,58.389 C64.091,58.389 60.102,54.402 60.102,49.485 C60.102,44.567 64.091,40.581 69.009,40.581 C73.924,40.581 77.91,44.567 77.91,49.485" id="Fill-197" fill="#57E0FF"></path>
                <path d="M74.125,70.415 C74.125,73.241 71.833,75.532 69.009,75.532 C66.182,75.532 63.89,73.241 63.89,70.415 C63.89,67.588 66.182,65.299 69.009,65.299 C71.833,65.299 74.125,67.588 74.125,70.415" id="Fill-198" fill="#57E0FF"></path>
                <path d="M68.342,46.695 C68.342,48.235 67.093,49.485 65.551,49.485 C64.011,49.485 62.762,48.235 62.762,46.695 C62.762,45.154 64.011,43.903 65.551,43.903 C67.093,43.903 68.342,45.154 68.342,46.695" id="Fill-199" fill="#FFFFFF"></path>
                <path d="M80.339,105.734 L75.054,100.116 L62.961,100.116 L57.675,105.734 C57.072,106.374 57.295,106.893 58.175,106.893 L79.837,106.893 C80.72,106.893 80.943,106.374 80.339,105.734" id="Fill-200" fill="#04517C"></path>
                <path d="M69.009,80.912 C69.667,80.912 70.999,81.448 70.999,82.108 L70.204,117.241 C70.204,117.902 69.667,118.439 69.009,118.439 C68.347,118.439 67.812,117.902 67.812,117.241 L67.016,82.108 C67.016,81.448 68.347,80.912 69.009,80.912" id="Fill-201" fill="#034163"></path>
                <path d="M91.59,116.826 L91.59,116.825 L91.59,116.826 M91.577,116.251 C91.41,109.973 90.134,91.869 81.221,84.252 C81.222,84.249 81.222,84.247 81.223,84.244 C90.138,91.86 91.41,109.972 91.577,116.251" id="Fill-202" fill="#0E9FC0"></path>
                <path d="M75.054,100.116 L71.591,100.116 L75.054,100.116 C75.066,100.09 75.076,100.067 75.088,100.041 C75.077,100.066 75.065,100.091 75.054,100.116 M75.094,100.029 C75.103,100.009 75.113,99.987 75.122,99.968 C75.113,99.988 75.103,100.008 75.094,100.029 M75.13,99.949 C75.139,99.93 75.147,99.912 75.156,99.893 C75.148,99.911 75.139,99.931 75.13,99.949 M75.165,99.874 C75.172,99.858 75.181,99.839 75.188,99.823 C75.18,99.84 75.173,99.857 75.165,99.874 M75.201,99.795 C75.208,99.779 75.214,99.767 75.221,99.751 C75.215,99.765 75.208,99.78 75.201,99.795 M75.234,99.724 C75.24,99.711 75.246,99.697 75.252,99.684 C75.246,99.697 75.24,99.71 75.234,99.724 M75.286,99.608 C75.289,99.602 75.293,99.593 75.296,99.587 C75.293,99.594 75.29,99.601 75.286,99.608 M70.705,20.588 L70.705,20.588 M70.694,20.578 C70.69,20.574 70.686,20.571 70.682,20.567 C70.686,20.571 70.69,20.574 70.694,20.578 M70.679,20.564 C70.676,20.562 70.673,20.559 70.67,20.556 C70.673,20.559 70.676,20.562 70.679,20.564 M70.668,20.555 C70.258,20.184 69.909,19.891 69.64,19.672 C69.91,19.891 70.258,20.184 70.668,20.555 M69.64,19.672 C69.616,19.653 69.592,19.635 69.566,19.619 C69.592,19.635 69.616,19.653 69.64,19.672 M69.11,19.47 C69.076,19.467 69.042,19.465 69.008,19.465 C69.042,19.465 69.076,19.466 69.11,19.47" id="Fill-203" fill="#0B85A1"></path>
                <path d="M93.392,118.439 L92.494,118.439 C92,118.439 91.608,117.723 91.591,116.844 C91.591,116.838 91.591,116.832 91.59,116.826 L91.59,116.825 C91.587,116.646 91.583,116.455 91.577,116.251 C91.41,109.972 90.138,91.86 81.223,84.244 C83.375,77.367 84.62,71.095 85.179,65.407 L91.782,72.098 C94.718,75.075 96.934,80.726 96.93,85.053 C96.93,85.284 96.923,85.512 96.91,85.735 L95.078,116.849 C95.029,117.727 94.271,118.439 93.392,118.439" id="Fill-204" fill="#023652"></path>
                <path d="M75.054,100.116 L70.592,100.116 L70.999,82.108 C70.999,81.448 69.667,80.912 69.009,80.912 L69.008,80.912 L69.008,75.532 L69.009,75.532 C71.833,75.532 74.125,73.241 74.125,70.415 C74.125,67.588 71.833,65.299 69.009,65.299 L69.008,65.299 L69.008,60.781 L69.009,60.781 C75.234,60.781 80.302,55.713 80.302,49.485 C80.302,43.257 75.234,38.189 69.009,38.189 L69.008,38.189 L69.008,33.738 L80.272,33.738 C76.347,25.58 71.375,21.079 69.64,19.672 C69.909,19.891 70.258,20.184 70.668,20.555 C70.669,20.555 70.669,20.556 70.67,20.556 C70.673,20.559 70.676,20.562 70.679,20.564 C70.68,20.565 70.681,20.566 70.682,20.567 C70.686,20.571 70.69,20.574 70.694,20.578 C70.698,20.581 70.701,20.585 70.705,20.588 L70.705,20.588 C75.358,24.803 87.796,38.739 85.177,65.404 L85.179,65.407 C84.62,71.095 83.375,77.367 81.223,84.244 C81.222,84.247 81.222,84.249 81.221,84.252 C81.22,84.251 81.218,84.25 81.217,84.249 C79.711,89.061 77.766,94.168 75.296,99.587 C75.293,99.593 75.289,99.602 75.286,99.608 C75.275,99.633 75.263,99.659 75.252,99.684 C75.246,99.697 75.24,99.711 75.234,99.724 C75.23,99.732 75.225,99.742 75.221,99.751 C75.214,99.767 75.208,99.779 75.201,99.795 C75.197,99.804 75.193,99.814 75.188,99.823 C75.181,99.839 75.172,99.858 75.165,99.874 C75.162,99.881 75.159,99.887 75.156,99.893 C75.147,99.912 75.139,99.93 75.13,99.949 C75.128,99.955 75.125,99.962 75.122,99.968 C75.113,99.987 75.103,100.009 75.094,100.029 C75.092,100.033 75.09,100.037 75.088,100.041 C75.076,100.067 75.066,100.09 75.054,100.116" id="Fill-205" fill="#C5414F"></path>
                <path d="M80.272,33.738 L69.008,33.738 L69.008,19.465 C69.042,19.465 69.076,19.467 69.11,19.47 C69.274,19.484 69.433,19.534 69.566,19.619 C69.592,19.635 69.616,19.653 69.64,19.672 C71.375,21.079 76.347,25.58 80.272,33.738" id="Fill-206" fill="#034367"></path>
                <path d="M69.009,60.781 L69.008,60.781 L69.008,58.389 L69.009,58.389 C73.924,58.389 77.91,54.402 77.91,49.485 C77.91,44.567 73.924,40.581 69.009,40.581 L69.008,40.581 L69.008,38.189 L69.009,38.189 C75.234,38.189 80.302,43.257 80.302,49.485 C80.302,55.713 75.234,60.781 69.009,60.781" id="Fill-207" fill="#034367"></path>
                <path d="M69.009,58.389 L69.008,58.389 L69.008,40.581 L69.009,40.581 C73.924,40.581 77.91,44.567 77.91,49.485 C77.91,54.402 73.924,58.389 69.009,58.389" id="Fill-208" fill="#47B9D4"></path>
                <path d="M69.009,75.532 L69.008,75.532 L69.008,65.299 L69.009,65.299 C71.833,65.299 74.125,67.588 74.125,70.415 C74.125,73.241 71.833,75.532 69.009,75.532" id="Fill-209" fill="#47B9D4"></path>
                <path d="M69.009,118.439 L69.009,118.439 C69.667,118.439 70.204,117.902 70.204,117.241 L70.393,108.901 L70.204,117.241 C70.204,117.902 69.667,118.439 69.009,118.439 L69.008,118.439 L69.009,118.439" id="Fill-210" fill="#0B85A1"></path>
                <polyline id="Fill-211" fill="#0C92B0" points="70.393 108.901 70.393 108.901 70.438 106.893 71.591 106.893 70.438 106.893 70.393 108.901"></polyline>
                <path d="M79.837,106.893 L70.438,106.893 L70.592,100.116 L75.054,100.116 L80.339,105.734 C80.568,105.976 80.678,106.201 80.678,106.387 C80.679,106.692 80.385,106.893 79.837,106.893" id="Fill-212" fill="#034367"></path>
                <path d="M69.009,118.439 L69.009,118.439 L69.008,118.439 L69.008,80.912 L69.009,80.912 C69.667,80.912 70.999,81.448 70.999,82.108 L70.204,117.241 C70.204,117.902 69.667,118.439 69.009,118.439" id="Fill-213" fill="#023652"></path>
                <path d="M117.101,10.516 C120.71,9.169 123.577,6.301 124.925,2.691 C125.843,0.23 125.68,0.23 126.599,2.691 C127.945,6.301 130.813,9.169 134.423,10.516 C136.883,11.434 136.884,11.27 134.423,12.189 C130.813,13.535 127.945,16.403 126.599,20.013 C125.68,22.474 125.843,22.474 124.925,20.013 C123.577,16.403 120.71,13.535 117.101,12.189 C114.64,11.271 114.639,11.435 117.101,10.516" id="Fill-277" fill="#FFFFFF"></path>
                <path d="M95.207,24.542 C100.13,22.705 104.041,18.792 105.879,13.87 C107.131,10.513 106.909,10.513 108.162,13.87 C109.999,18.792 113.91,22.705 118.834,24.542 C122.189,25.793 122.191,25.57 118.834,26.824 C113.911,28.66 109.999,32.572 108.162,37.495 C106.909,40.851 107.131,40.851 105.879,37.495 C104.041,32.572 100.13,28.66 95.207,26.824 C91.851,25.57 91.849,25.794 95.207,24.542" id="Fill-278" fill="#AAE4F5"></path>
                <path d="M123.069,86.243 C123.069,88.829 120.975,90.922 118.39,90.922 C115.806,90.922 113.71,88.829 113.71,86.243 C113.71,83.659 115.806,81.563 118.39,81.563 C120.975,81.563 123.069,83.659 123.069,86.243" id="Fill-279" fill="#AAE4F5"></path>
                <path d="M135.681,52.962 C135.681,54.097 134.763,55.015 133.628,55.015 C132.495,55.015 131.577,54.097 131.577,52.962 C131.577,51.83 132.495,50.912 133.628,50.912 C134.763,50.912 135.681,51.83 135.681,52.962" id="Fill-288" fill="#AAE4F5"></path>
            </g>
        </g>
    </g>
</svg>