<?xml version="1.0" encoding="UTF-8"?>
<svg width="237px" height="184px" viewBox="0 0 237 184" version="1.1" xmlns="http://www.w3.org/2000/svg" xmlns:xlink="http://www.w3.org/1999/xlink">
    <!-- Generator: Sketch 42 (36781) - http://www.bohemiancoding.com/sketch -->
    <title>books-and-apple</title>
    <desc>Created with Sketch.</desc>
    <defs></defs>
    <g id="Endelig-design" stroke="none" stroke-width="1" fill="none" fill-rule="evenodd">
        <g id="Intro-Selvtest-i-lesing" transform="translate(-932.000000, -345.000000)">
            <g id="books-and-apple" transform="translate(932.000000, 345.000000)">
                <g id="Group-10" transform="translate(0.000000, 61.000000)">
                    <g id="Group-9" transform="translate(0.000000, 2.197674)">
                        <path d="M185.837263,120.323103 L1.59289993,120.323103 C0.713619167,120.323103 0,119.610699 0,118.732916 L0,81.0995462 C0,80.2201727 0.713619167,79.509359 1.59289993,79.509359 L185.837263,79.509359 C186.718137,79.509359 187.430163,80.2201727 187.430163,81.0995462 L187.430163,118.732916 C187.430163,119.610699 186.718137,120.323103 185.837263,120.323103" id="Fill-33-Copy-2" fill="#448891"></path>
                        <polygon id="Fill-35-Copy-2" fill="#06626B" points="28.6721987 120.323103 32.3900271 120.323103 32.3900271 79.509359 28.6721987 79.509359"></polygon>
                        <polygon id="Fill-36-Copy-2" fill="#06626B" points="168.847392 120.323103 172.565221 120.323103 172.565221 79.509359 168.847392 79.509359"></polygon>
                        <polygon id="Fill-37-Copy-2" fill="#06626B" points="154.511293 120.323103 158.227528 120.323103 158.227528 79.509359 154.511293 79.509359"></polygon>
                        <polygon id="Fill-38-Copy-2" fill="#06626B" points="54.1585975 108.132728 133.803594 108.132728 133.803594 92.2308565 54.1585975 92.2308565"></polygon>
                        <path d="M185.837263,120.588664 L172.565221,120.588664 L172.565221,100.181792 L187.430163,100.181792 L187.430163,118.998477 C187.430163,119.876261 186.718137,120.588664 185.837263,120.588664 L185.837263,120.588664 Z M158.759557,120.588664 L168.847392,120.588664 L168.847392,100.181792 L158.759557,100.181792 L158.759557,120.588664 Z M155.043321,120.588664 L32.3884342,120.588664 L32.3884342,100.181792 L53.8925832,100.181792 L53.8925832,108.132728 L133.53758,108.132728 L133.53758,100.181792 L155.043321,100.181792 L155.043321,120.588664 L155.043321,120.588664 Z M18.5827705,120.588664 L28.6706058,120.588664 L28.6706058,100.181792 L18.5827705,100.181792 L18.5827705,120.588664 Z M14.866535,120.588664 L1.59289993,120.588664 C0.713619167,120.588664 0,119.876261 0,118.998477 L0,100.181792 L14.866535,100.181792 L14.866535,120.588664 L14.866535,120.588664 Z" id="Fill-39-Copy-2" fill="#387179"></path>
                        <polygon id="Fill-41-Copy-2" fill="#055159" points="28.6721987 120.588664 32.3900271 120.588664 32.3900271 100.181792 28.6721987 100.181792"></polygon>
                        <polygon id="Fill-42-Copy-2" fill="#055159" points="168.847392 120.588664 172.565221 120.588664 172.565221 100.181792 168.847392 100.181792"></polygon>
                        <polygon id="Fill-43-Copy-2" fill="#055159" points="154.511293 120.588664 158.227528 120.588664 158.227528 100.181792 154.511293 100.181792"></polygon>
                        <polygon id="Fill-44-Copy-2" fill="#055159" points="54.1585975 108.132728 133.803594 108.132728 133.803594 100.181792 54.1585975 100.181792"></polygon>
                        <path d="M208.139455,80.4157657 L11.1502995,80.4157657 C10.2710187,80.4157657 9.55739956,79.7033619 9.55739956,78.8255786 L9.55739956,39.7546795 C9.55739956,38.8768962 10.2710187,38.1644923 11.1502995,38.1644923 L208.139455,38.1644923 C209.020328,38.1644923 209.732355,38.8768962 209.732355,39.7546795 L209.732355,78.8255786 C209.732355,79.7033619 209.020328,80.4157657 208.139455,80.4157657" id="Fill-45-Copy-2" fill="#EB8452"></path>
                        <polygon id="Fill-46-Copy-2" fill="#FCC390" points="22.300599 70.2099444 30.52952 70.2099444 30.52952 47.7056154 22.300599 47.7056154"></polygon>
                        <polygon id="Fill-47-Copy-2" fill="#FCC390" points="36.6366983 70.2099444 44.8672122 70.2099444 44.8672122 47.7056154 36.6366983 47.7056154"></polygon>
                        <polygon id="Fill-48-Copy-2" fill="#FCC390" points="50.9727977 70.2099444 59.2017187 70.2099444 59.2017187 47.7056154 50.9727977 47.7056154"></polygon>
                        <polygon id="Fill-49-Copy-2" fill="#FCC390" points="71.6804967 64.8844075 185.306827 64.8844075 185.306827 54.0663642 71.6804967 54.0663642"></polygon>
                        <path d="M208.139455,79.9625624 L11.1502995,79.9625624 C10.2710187,79.9625624 9.55739956,79.2501585 9.55739956,78.3723752 L9.55739956,58.8369257 L22.8326276,58.8369257 L22.8326276,70.0890902 L31.0615486,70.0890902 L31.0615486,58.8369257 L37.4331483,58.8369257 L37.4331483,70.0890902 L45.6636622,70.0890902 L45.6636622,58.8369257 L52.0352619,58.8369257 L52.0352619,70.0890902 L60.2641829,70.0890902 L60.2641829,58.8369257 L72.2125253,58.8369257 L72.2125253,64.2451523 L185.838856,64.2451523 L185.838856,58.8369257 L209.732355,58.8369257 L209.732355,78.3723752 C209.732355,79.2501585 209.020328,79.9625624 208.139455,79.9625624" id="Fill-50-Copy-2" fill="#C06D44"></path>
                        <polygon id="Fill-51-Copy-2" fill="#CFA178" points="22.300599 70.0890902 30.52952 70.0890902 30.52952 58.8369257 22.300599 58.8369257"></polygon>
                        <polygon id="Fill-52-Copy-2" fill="#CFA178" points="36.6366983 70.0890902 44.8672122 70.0890902 44.8672122 58.8369257 36.6366983 58.8369257"></polygon>
                        <polygon id="Fill-53-Copy-2" fill="#CFA178" points="50.9727977 70.0890902 59.2017187 70.0890902 59.2017187 58.8369257 50.9727977 58.8369257"></polygon>
                        <polygon id="Fill-54-Copy-2" fill="#CFA178" points="71.6804967 64.2451523 185.306827 64.2451523 185.306827 58.8369257 71.6804967 58.8369257"></polygon>
                        <path d="M164.323556,33.2842079 L164.323556,4.77056154 L167.509356,4.77056154 L169.102256,0 L42.9525465,0 C32.4266638,0 23.8934989,8.52022292 23.8934989,19.0281798 C23.8934989,29.5361367 32.4266638,38.0547694 42.9525465,38.0547694 L169.102256,38.0547694 L167.509356,33.2842079 L164.323556,33.2842079" id="Fill-55-Copy-2" fill="#0C8B9D"></path>
                        <path d="M42.9525465,33.2842079 C35.0788422,33.2842079 28.6721987,26.888475 28.6721987,19.0281798 C28.6721987,11.1662944 35.0788422,4.77056154 42.9525465,4.77056154 L164.323556,4.77056154 L164.323556,33.2842079 L42.9525465,33.2842079" id="Fill-56-Copy-2" fill="#FFFFFF"></path>
                        <path d="M164.321964,17.492059 L164.321964,19.0822462 L28.6865348,19.0822462 C28.6721987,18.8278162 28.6721987,18.5590746 28.6721987,18.2871526 C28.6721987,18.0168208 28.6721987,17.7464889 28.6865348,17.492059 L164.321964,17.492059" id="Fill-57-Copy-2" fill="#E6E7E8"></path>
                        <path d="M163.766041,12.7214974 L163.766041,14.3116846 L28.6721987,14.3116846 C28.8314887,13.7726112 29.0226367,13.2303573 29.2297137,12.7214974 L163.766041,12.7214974" id="Fill-58-Copy-2" fill="#E6E7E8"></path>
                        <path d="M164.530633,7.9509359 L33.2916085,7.9509359 C32.7675444,8.44389393 32.2880815,8.98614776 31.8579985,9.54112309 L164.530633,9.54112309 L164.530633,7.9509359" id="Fill-59-Copy-2" fill="#E6E7E8"></path>
                        <path d="M163.766041,22.2626205 L163.766041,23.8528077 L29.2297137,23.8528077 C29.0226367,23.345538 28.8314887,22.8032842 28.6721987,22.2626205 L163.766041,22.2626205" id="Fill-60-Copy-2" fill="#E6E7E8"></path>
                        <path d="M164.513112,27.0331821 L164.513112,28.6233693 L33.3059446,28.6233693 C32.7818805,28.1463131 32.3024176,27.6056495 31.8579985,27.0331821 L164.513112,27.0331821" id="Fill-61-Copy-2" fill="#E6E7E8"></path>
                    </g>
                    <g id="Group-2" transform="translate(235.765224, 0.000000)" fill="#C06D44">
                        <path d="M0.731299899,1.14811514 C0.648469103,0.758519285 0.573602806,0.376874362 0.508293909,0 C0.734485699,0.130395349 0.812537795,0.519991208 0.731299899,1.14811514" id="Fill-71-Copy-2"></path>
                    </g>
                </g>
                <g id="Group-6" transform="translate(87.669725, 0.000000)">
                    <path d="M28.4447442,26.3390462 C27.6191048,26.3390462 26.9513267,25.6689998 26.9513267,24.8421072 L26.9513267,4.6578985 C26.9513267,3.83226072 27.6191048,3.16221425 28.4447442,3.16221425 C29.2703835,3.16221425 29.9381616,3.83226072 29.9381616,4.6578985 L29.9381616,24.8421072 C29.9381616,25.6689998 29.2703835,26.3390462 28.4447442,26.3390462" id="Fill-120" fill="#8A3E19"></path>
                    <path d="M44.0015934,15.6760221 C38.3712092,14.5768448 32.6243084,17.5757419 28.4447442,23.0502976 C24.2626742,17.5757419 18.5157734,14.5768448 12.887895,15.6760221 C3.71315012,17.466577 -1.67918933,29.4295415 0.842831886,42.3975756 C3.3648531,55.3681193 12.8440446,64.4300586 22.0162837,62.6420132 C24.4518571,62.1677107 26.6180641,60.9681518 28.4447442,59.2302972 C30.2689185,60.9681518 32.4363783,62.1677107 34.8719517,62.6420132 C44.042938,64.4300586 53.5246352,55.3681193 56.0454036,42.3975756 C58.5661719,29.4295415 53.1738325,17.466577 44.0015934,15.6760221" id="Fill-121" fill="#F04F5F"></path>
                    <path d="M28.4447442,14.9030846 C28.4447442,14.9030846 21.5113783,15.2029744 17.4170091,11.1023904 C13.3251455,7.0043159 13.6233279,0.0579165802 13.6233279,0.0579165802 C13.6233279,0.0579165802 20.5579466,-0.24197313 24.6523158,3.85735609 C28.7454322,7.95794009 28.4447442,14.9030846 28.4447442,14.9030846" id="Fill-122" fill="#448891"></path>
                    <path d="M28.1265159,14.9081037 C28.0826656,14.9081037 28.0363095,14.9068489 27.9861948,14.9068489 C28.0363095,14.9068489 28.0826656,14.9081037 28.1265159,14.9081037 C28.3319861,14.9081037 28.4447442,14.9030846 28.4447442,14.9030846 C28.4447442,14.9030846 28.3319861,14.9081037 28.1265159,14.9081037 M27.9423445,14.9068489 L27.9298158,14.9068489 L27.9423445,14.9068489" id="Fill-123" fill="#713314"></path>
                    <path d="M28.1265159,14.9081037 C28.0826656,14.9081037 28.0363095,14.9068489 27.9861948,14.9068489 L27.9423445,14.9068489 L27.9298158,14.9068489 C26.3286518,14.8842631 21.3409884,14.5642971 17.9118915,11.5654 C17.9093858,11.5628905 17.9056272,11.5603809 17.9031215,11.5578714 C17.8655354,11.5252474 17.8279494,11.4913686 17.7903634,11.4574899 C17.7840991,11.4524708 17.7778348,11.446197 17.7703176,11.4399231 C17.7615475,11.4311398 17.7515245,11.4223564 17.7415016,11.413573 C17.7389959,11.4098087 17.7352373,11.4072991 17.7314787,11.4035348 C17.6838697,11.3596179 17.6362608,11.315701 17.5899047,11.2705294 C17.5761232,11.2579817 17.5623416,11.245434 17.5485601,11.2316315 C17.5360314,11.2190838 17.5222499,11.2065362 17.5097212,11.1939885 C17.5009512,11.1852051 17.4921811,11.1764217 17.483411,11.1688931 C17.4746409,11.1601097 17.4671237,11.1513263 17.4583537,11.1437977 C17.4445721,11.1299953 17.4307906,11.1161928 17.4170091,11.1023904 C13.8438325,7.52379013 13.6183164,1.77569488 13.6183164,0.372863515 C13.6183164,0.169590991 13.6233279,0.0579165802 13.6233279,0.0579165802 L28.4447442,14.9030846 C28.4447442,14.9030846 28.3319861,14.9081037 28.1265159,14.9081037" id="Fill-124" fill="#387179"></path>
                    <path d="M37.20479,62.8666168 C36.4280125,62.8666168 35.6487292,62.7925855 34.8719517,62.6420132 C32.4363783,62.1677107 30.2689185,60.9681518 28.4447442,59.2302972 L28.4447442,23.0502976 C32.0479896,18.3298579 36.8164013,15.4501638 41.6712608,15.4501638 C42.4467854,15.4501638 43.2260687,15.5241951 44.0015934,15.6760221 C51.642829,17.1666873 56.6605612,25.7179358 56.6655727,36.0271151 C56.6668256,38.0937191 56.4663669,40.2318449 56.0454036,42.3975756 C53.7376226,54.2689419 45.6002516,62.8666168 37.20479,62.8666168" id="Fill-125" fill="#C5414F"></path>
                    <path d="M14.9263095,29.5788589 C14.9263095,31.3681591 13.4792482,32.8174169 11.691407,32.8174169 C9.90607157,32.8174169 8.45650448,31.3681591 8.45650448,29.5788589 C8.45650448,27.7895588 9.90607157,26.3390462 11.691407,26.3390462 C13.4792482,26.3390462 14.9263095,27.7895588 14.9263095,29.5788589" id="Fill-126" fill="#FFFFFF"></path>
                    <path d="M49.86133,44.8732342 C49.8099625,44.6323186 49.7636064,44.3964221 49.7235146,44.1630351 C49.8625829,44.2433403 49.9114447,44.4855107 49.86133,44.8732342" id="Fill-63" fill="#C06D44"></path>
                </g>
            </g>
        </g>
    </g>
</svg>