<?xml version="1.0" encoding="UTF-8"?>
<svg width="53px" height="75px" viewBox="0 0 53 75" version="1.1" xmlns="http://www.w3.org/2000/svg" xmlns:xlink="http://www.w3.org/1999/xlink">
    <!-- Generator: Sketch 42 (36781) - http://www.bohemiancoding.com/sketch -->
    <title>ribbon-lightbulb</title>
    <desc>Created with Sketch.</desc>
    <defs>
        <linearGradient x1="50%" y1="0%" x2="50%" y2="100%" id="linearGradient-1">
            <stop stop-color="#47A172" offset="0%"></stop>
            <stop stop-color="#257149" offset="100%"></stop>
        </linearGradient>
        <path d="M2.00077316,0 C0.895776656,0 0,0.896421562 0,2.00254919 L0,61.4101294 C0,62.5161068 0.764491712,62.9457976 1.70871821,62.3691511 L18.7453115,51.964771 C19.6890105,51.3884467 21.2185214,51.3881245 22.1627479,51.964771 L39.1993412,62.3691511 C40.1430402,62.9454755 40.9080594,62.5162571 40.9080594,61.4101294 L40.9080594,2.00254919 C40.9080594,0.896571813 40.0155921,0 38.9072863,0 L2.00077316,0 Z" id="path-2"></path>
        <filter x="-50%" y="-50%" width="200%" height="200%" filterUnits="objectBoundingBox" id="filter-3">
            <feOffset dx="-1" dy="4" in="SourceAlpha" result="shadowOffsetOuter1"></feOffset>
            <feGaussianBlur stdDeviation="3" in="shadowOffsetOuter1" result="shadowBlurOuter1"></feGaussianBlur>
            <feColorMatrix values="0 0 0 0 0.117647059   0 0 0 0 0.149019608   0 0 0 0 0.176470588  0 0 0 0.2 0" type="matrix" in="shadowBlurOuter1"></feColorMatrix>
        </filter>
    </defs>
    <g id="Endelig-design" stroke="none" stroke-width="1" fill="none" fill-rule="evenodd">
        <g id="1A---Intro-Datasjekk" transform="translate(-141.000000, -176.000000)">
            <g id="ribbon-lightbulb" transform="translate(148.000000, 178.000000)">
                <g id="Path-2">
                    <use fill="black" fill-opacity="1" filter="url(#filter-3)" xlink:href="#path-2"></use>
                    <use fill="url(#linearGradient-1)" fill-rule="evenodd" xlink:href="#path-2"></use>
                </g>
                <g id="Icon" transform="translate(11.104167, 17.083333)" stroke="#FFFFFF">
                    <path d="M10.7519164,0.173127261 C10.1791925,0.0616185556 9.58695416,-0.000133277338 8.97883206,-0.000133277338 C8.36163351,-0.000133277338 7.76077257,0.06073004 7.17987982,0.174904292 C7.73490469,0.11093117 8.32623536,0.0740577738 8.96794032,0.0740577738 C8.97202473,0.0740577738 8.97656295,0.0749462893 8.98064735,0.0749462893 C8.98518558,0.0749462893 8.98881616,0.0740577738 8.9938082,0.0740577738 C9.62280614,0.0740577738 10.2041527,0.11093117 10.7519164,0.173127261 Z" id="Stroke-1"></path>
                    <path d="M12.302174,21.5651617 C12.7587194,20.7339554 11.7725632,20.7033016 12.2472614,19.8809804 C14.1233635,16.6241265 16.4809712,15.4779414 17.5606149,12.2544069 C17.9413719,10.7425976 18.1519455,9.36895255 18.1519455,8.34893667 C18.1519455,4.42925018 15.0695833,1.08087921 10.9647592,0.299874009 C10.9397989,0.296764204 10.9121158,0.295875689 10.8871555,0.292765884 C10.9025855,0.295875689 10.9180155,0.296764204 10.9329916,0.299874009 C10.3489221,0.23323534 9.72537002,0.195473428 9.05189748,0.194584912 C8.39067815,0.195473428 7.77937929,0.231902567 7.20620152,0.295431431 C3.46443531,0.99958003 0.578578259,3.85082653 0.0834579511,7.30048828 C0.0339913025,7.64389955 -4.5382249e-05,7.99308618 -4.5382249e-05,8.34893667 C-4.5382249e-05,8.59727677 0.0144769366,8.87005105 0.0385295272,9.15659733 C0.0516903786,9.54932122 0.0771044366,9.93982382 0.112502589,10.3272166 C0.194190632,11.2210633 0.407033368,11.9905178 0.703833259,12.6915566 C1.79209953,15.2602551 4.18510538,16.8600274 5.93005275,19.8694297 C6.40792781,20.6948607 5.43674773,20.7295128 5.89692371,21.5651617" id="Stroke-3"></path>
                    <path d="M6.30790534,26.285845 C6.53481657,27.5995153 7.68480269,27.1006138 9.07123032,27.1006138 C10.4581118,27.1006138 11.6090055,27.5995153 11.8354629,26.285845" id="Stroke-5"></path>
                    <path d="M5.48598747,24.5618296 L12.5982931,24.5618296" id="Stroke-7"></path>
                    <path d="M5.48598747,22.1056466 L12.5982931,22.1056466" id="Stroke-9"></path>
                    <path d="M7.72704836,19.1481012 C7.72704836,12.4069766 7.7025754,14.0650831 6.94404435,12.9741451 C6.16518117,11.853965 5.98866554,10.9562771 7.17597127,10.6809761 C8.363277,10.4056751 8.6131998,11.2660182 9.26490149,10.9562771 C10.7268562,10.2614385 12.6867453,9.9831371 11.6580355,12.9741451 C11.1867213,14.3445066 10.2469298,12.5443361 10.2469298,19.1481012" id="Stroke-11"></path>
                </g>
            </g>
        </g>
    </g>
</svg>