<?xml version="1.0" encoding="UTF-8" standalone="no"?><!DOCTYPE svg PUBLIC "-//W3C//DTD SVG 1.1//EN" "http://www.w3.org/Graphics/SVG/1.1/DTD/svg11.dtd"><svg width="100%" height="100%" viewBox="0 0 3698 819" version="1.1" xmlns="http://www.w3.org/2000/svg" xmlns:xlink="http://www.w3.org/1999/xlink" xml:space="preserve" xmlns:serif="http://www.serif.com/" style="fill-rule:evenodd;clip-rule:evenodd;stroke-linejoin:round;stroke-miterlimit:2;"><g id="Layer-1" serif:id="Layer 1"><path d="M715.313,320.432l-320.127,0c-15.55,0 -28.156,-12.605 -28.156,-28.155l0,-189.128c0,-15.55 12.606,-28.156 28.156,-28.156l320.127,0c15.55,0 28.156,12.606 28.156,28.156l-0,189.128c-0,15.55 -12.606,28.155 -28.156,28.155" style="fill:#cf3e16;fill-rule:nonzero;"/><path d="M718.623,743.964l-337.717,0c-21.711,0 -32.6,-26.238 -17.267,-41.611l337.717,-330.694c15.356,-15.395 41.656,-4.517 41.656,17.222l-0,330.695c-0,13.472 -10.923,24.388 -24.389,24.388" style="fill:#cf3e16;fill-rule:nonzero;"/><path d="M276.568,743.845l-175.039,0c-14.894,0 -26.961,-12.072 -26.961,-26.961l0,-175.039c0,-14.894 12.067,-26.967 26.961,-26.967l175.039,0c14.895,0 26.967,12.073 26.967,26.967l0,175.039c0,14.889 -12.072,26.961 -26.967,26.961" style="fill:#cf3e16;fill-rule:nonzero;"/><path d="M320.028,197.659c-0,-67.777 -54.945,-122.722 -122.722,-122.722c-67.778,0 -122.723,54.945 -122.723,122.722c0,67.778 54.945,122.723 122.723,122.723c67.777,-0 122.722,-54.945 122.722,-122.723" style="fill:#cf3e16;fill-rule:nonzero;"/><path d="M276.275,470.863l-173.55,0c-15.556,0 -28.161,-12.611 -28.161,-28.155l-0,-50.095c-0,-15.55 12.605,-28.155 28.161,-28.155l173.55,-0c15.55,-0 28.156,12.605 28.156,28.155l-0,50.095c-0,15.544 -12.606,28.155 -28.156,28.155" style="fill:#cf3e16;fill-rule:nonzero;"/><path d="M516.252,439.212c-0,-41.294 -33.473,-74.766 -74.761,-74.766c-41.289,-0 -74.762,33.472 -74.762,74.766c0,41.289 33.473,74.761 74.762,74.761c41.288,0 74.761,-33.472 74.761,-74.761" style="fill:#cf3e16;fill-rule:nonzero;"/><path d="M1054.51,200.147l104.745,-125.15l70.283,-0l-106.106,124.694l110.189,153.717l-70.283,-0l-82.528,-113.811l-26.3,31.289l0,82.522l-58.039,-0l0,-278.411l58.039,-0l0,125.15Z" style="fill:#1d1d1b;fill-rule:nonzero;"/><path d="M1367.36,122.154c-43.983,0 -72.55,37.634 -72.55,92.05c-0,54.412 28.567,92.05 72.55,92.05c44.439,0 73.455,-37.638 73.455,-92.05c0,-54.416 -29.016,-92.05 -73.455,-92.05m-0,235.789c-77.539,0 -131.495,-60.761 -131.495,-143.739c0,-83.433 53.956,-143.738 131.495,-143.738c77.539,-0 131.95,60.305 131.95,143.738c-0,82.978 -54.411,143.739 -131.95,143.739" style="fill:#1d1d1b;fill-rule:nonzero;"/><path d="M1662.98,353.41l-68.922,-181.828l-0,181.828l-54.417,0l0,-278.411l68.928,-0l74.361,196.339l73.911,-196.339l68.017,-0l-0,278.411l-54.867,0l0,-181.828l-67.561,181.828l-39.45,0Z" style="fill:#1d1d1b;fill-rule:nonzero;"/><path d="M1988.06,124.422l-52.145,0l0,82.984l52.145,-0c29.928,-0 44.439,-17.234 44.439,-41.267c-0,-24.939 -14.511,-41.717 -44.439,-41.717m-52.145,132.406l0,96.583l-57.588,0l-0,-278.411l113.361,0c58.95,0 97.944,31.739 97.944,91.139c0,58.95 -38.994,90.689 -97.944,90.689l-55.773,-0Z" style="fill:#1d1d1b;fill-rule:nonzero;"/><path d="M2317.68,74.998l-0,50.789l-131.945,-0l0,60.761l119.706,-0l0,49.422l-119.706,-0l0,66.2l131.945,-0l-0,51.239l-189.083,-0l-0,-278.411l189.083,-0Z" style="fill:#1d1d1b;fill-rule:nonzero;"/><path d="M2347.58,74.998l237.606,-0l-0,50.789l-89.789,-0l0,227.622l-58.489,-0l0,-227.622l-89.328,-0l0,-50.789Z" style="fill:#1d1d1b;fill-rule:nonzero;"/><path d="M2666.34,237.329l68.017,0l-34.011,-92.5l-34.006,92.5Zm63.484,-162.333l106.555,278.417l-58.944,-0l-24.939,-67.111l-104.295,-0l-24.483,67.111l-58.039,-0l106.561,-278.417l57.584,0Z" style="fill:#1d1d1b;fill-rule:nonzero;"/><path d="M3102.98,353.41l-45.794,0l-131.5,-185.456l-0,185.456l-55.773,0l0,-278.411l54.412,-0l122.883,175.933l-0,-175.933l55.772,-0l0,278.411Z" style="fill:#1d1d1b;fill-rule:nonzero;"/><path d="M3197.26,274.059c7.711,24.483 28.117,35.822 55.323,35.822c28.116,0 46.7,-12.694 46.7,-34.917c-0,-16.777 -9.973,-25.844 -34.006,-31.288l-49.878,-11.334c-39.905,-9.072 -70.739,-30.383 -70.739,-76.178c0,-50.333 41.717,-85.7 100.211,-85.7c63.484,0 100.212,33.556 109.278,80.712l-57.583,-0c-6.35,-18.589 -22.222,-33.1 -51.245,-33.1c-26.294,-0 -43.983,12.694 -43.983,32.644c0,15.872 10.433,25.394 31.289,30.383l50.789,11.789c45.344,10.428 73,36.272 73,78.445c-0,53.961 -44.439,86.611 -103.383,86.611c-62.123,-0 -106.106,-30.839 -115.623,-83.889l59.85,-0Z" style="fill:#1d1d1b;fill-rule:nonzero;"/><path d="M3585.84,74.998l0,50.789l-131.95,-0l0,60.761l119.711,-0l0,49.422l-119.711,-0l0,66.2l131.95,-0l0,51.239l-189.083,-0l-0,-278.411l189.083,-0Z" style="fill:#1d1d1b;fill-rule:nonzero;"/><path d="M1212.75,743.954l-26.3,-0l-155.528,-221.278l0,221.278l-34.466,-0l-0,-278.411l34.011,-0l148.272,211.755l-0,-211.755l34.011,-0l0,278.411Z" style="fill:#1d1d1b;fill-rule:nonzero;"/><path d="M1388.2,493.656c-53.506,-0 -89.783,45.8 -89.783,111.094c-0,65.294 36.277,111.089 89.783,111.089c53.961,-0 90.233,-45.795 90.233,-111.089c0,-65.294 -36.272,-111.094 -90.233,-111.094m0,254.377c-73.006,0 -125.6,-59.4 -125.6,-143.283c0,-84.344 52.594,-143.289 125.6,-143.289c73.456,0 126.056,58.945 126.056,143.289c-0,83.883 -52.6,143.283 -126.056,143.283" style="fill:#1d1d1b;fill-rule:nonzero;"/><path d="M1599.93,595.679l66.656,-0c36.728,-0 56.678,-18.595 56.678,-49.422c-0,-30.839 -19.95,-49.428 -56.678,-49.428l-66.656,-0l0,98.85Zm0,30.378l0,117.894l-35.822,0l-0,-278.411l103.383,0c55.773,0 91.139,28.117 91.139,80.717c0,46.25 -27.205,72.55 -70.733,78.444l82.072,119.25l-40.811,0l-79.806,-117.894l-49.422,-0Z" style="fill:#1d1d1b;fill-rule:nonzero;"/><path d="M1939.53,637.394l0,-30.833l100.667,0l-0,19.045c-0,74.366 -47.161,122.427 -115.178,122.427c-72.55,0 -127.867,-56.227 -127.867,-143.283c0,-87.061 55.773,-143.289 126.962,-143.289c59.4,0 98.394,34.006 109.733,85.7l-35.822,0c-11.789,-32.65 -34.461,-53.505 -73.911,-53.505c-53.962,-0 -91.145,44.433 -91.145,111.094c0,66.656 36.733,111.544 92.05,111.544c48.522,0 77.083,-30.383 81.167,-78.9l-66.656,0Z" style="fill:#1d1d1b;fill-rule:nonzero;"/><path d="M2267.34,465.541l-0,31.739l-141.923,0l0,87.967l128.773,-0l-0,31.744l-128.773,0l0,94.767l141.923,-0l-0,32.194l-177.295,0l0,-278.411l177.295,0Z" style="fill:#1d1d1b;fill-rule:nonzero;"/></g></svg>