<?xml version="1.0" encoding="utf-8"?><svg width="3332" height="3439" viewBox="0 0 3332 3439" xmlns="http://www.w3.org/2000/svg" xmlns:xlink="http://www.w3.org/1999/xlink"><svg width="20" height="17" viewBox="-1 -1 20 17" id="icon-anchor" xmlns="http://www.w3.org/2000/svg"><g fill="#005B70" fill-rule="evenodd"><path d="M15.992 13.412h2.001V-.002h-2.001z"/><path d="M1.191 2h16.411V-.003H1.191zm3.281 7.826l4.95 4.95 1.414-1.413-4.95-4.95z"/><path d="M8.008 13.363l1.414 1.414 4.95-4.95-1.415-1.414z"/><path d="M8.13 4.715l.001 7.441 2.582-.093-.001-7.348zm6.242 10.061h3.621v-2h-3.621zM.765 13.412h2.002V-.002H.765z"/><path d="M.765 14.776h3.707v-2H.765z"/></g></svg><svg width="35" height="35" viewBox="-1 -1 82 82" id="icon-c1-c1-33" x="20" y="17" xmlns="http://www.w3.org/2000/svg"><defs><path id="aba" d="M.174.26h20.62V32H.174z"/></defs><g fill="none" fill-rule="evenodd"><path d="M40 79c21.54 0 39-17.46 39-39S61.54 1 40 1 1 18.46 1 40s17.46 39 39 39" stroke="#ECAA20" stroke-width="2" fill="#FFF"/><path d="M29.001 57c-4.55 0-8.024-1.474-10.422-4.421-2.397-2.947-3.595-7.14-3.595-12.579 0-2.701.364-5.105 1.094-7.21.73-2.106 1.746-3.886 3.048-5.343a12.854 12.854 0 0 1 4.638-3.315c1.79-.755 3.743-1.132 5.863-1.132 1.146 0 2.18.097 3.1.29.92.193 1.728.412 2.423.658.695.245 1.277.508 1.746.789.469.281.825.491 1.068.632l-1.667 5.157c-.8-.526-1.764-.973-2.893-1.342-1.129-.368-2.422-.553-3.882-.553a8.114 8.114 0 0 0-2.944.553c-.956.369-1.807.983-2.553 1.842-.748.86-1.355 2.01-1.824 3.448-.47 1.44-.704 3.229-.704 5.368 0 3.72.634 6.57 1.902 8.553 1.268 1.983 3.344 2.974 6.228 2.974 1.667 0 3.048-.193 4.142-.58 1.095-.385 1.972-.77 2.632-1.157l1.615 5.105c-.904.562-2.128 1.079-3.674 1.553-1.546.473-3.326.71-5.34.71" fill="#ECAA20"/><g transform="translate(44 23.5)"><mask id="abb" fill="#fff"><use xlink:href="#aba"/></mask><path d="M8.453 26.77V9.027a17.07 17.07 0 0 1-3.212 1.82 54.17 54.17 0 0 1-3.06 1.257L.174 6.874c.803-.307 1.672-.7 2.609-1.18a38.46 38.46 0 0 0 2.81-1.59 30.839 30.839 0 0 0 2.66-1.845 15.631 15.631 0 0 0 2.156-2h4.214v26.51h6.171V32H1.93v-5.23h6.523z" fill="#ECAA20" mask="url(#abb)"/></g></g></svg><svg width="82" height="82" viewBox="-1 -1 82 82" id="icon-c1-c1-80" x="55" y="52" xmlns="http://www.w3.org/2000/svg"><defs><path id="aca" d="M.174.26h20.62V32H.174z"/></defs><g fill="none" fill-rule="evenodd"><path d="M40 79c21.54 0 39-17.46 39-39S61.54 1 40 1 1 18.46 1 40s17.46 39 39 39" stroke="#ECAA20" stroke-width="2" fill="#FFF"/><path d="M29.001 57c-4.55 0-8.024-1.474-10.422-4.421-2.397-2.947-3.595-7.14-3.595-12.579 0-2.701.364-5.105 1.094-7.21.73-2.106 1.746-3.886 3.048-5.343a12.854 12.854 0 0 1 4.638-3.315c1.79-.755 3.743-1.132 5.863-1.132 1.146 0 2.18.097 3.1.29.92.193 1.728.412 2.423.658.695.245 1.277.508 1.746.789.469.281.825.491 1.068.632l-1.667 5.157c-.8-.526-1.764-.973-2.893-1.342-1.129-.368-2.422-.553-3.882-.553a8.114 8.114 0 0 0-2.944.553c-.956.369-1.807.983-2.553 1.842-.748.86-1.355 2.01-1.824 3.448-.47 1.44-.704 3.229-.704 5.368 0 3.72.634 6.57 1.902 8.553 1.268 1.983 3.344 2.974 6.228 2.974 1.667 0 3.048-.193 4.142-.58 1.095-.385 1.972-.77 2.632-1.157l1.615 5.105c-.904.562-2.128 1.079-3.674 1.553-1.546.473-3.326.71-5.34.71" fill="#ECAA20"/><g transform="translate(44 23.5)"><mask id="acb" fill="#fff"><use xlink:href="#aca"/></mask><path d="M8.453 26.77V9.027a17.07 17.07 0 0 1-3.212 1.82 54.17 54.17 0 0 1-3.06 1.257L.174 6.874c.803-.307 1.672-.7 2.609-1.18a38.46 38.46 0 0 0 2.81-1.59 30.839 30.839 0 0 0 2.66-1.845 15.631 15.631 0 0 0 2.156-2h4.214v26.51h6.171V32H1.93v-5.23h6.523z" fill="#ECAA20" mask="url(#acb)"/></g></g></svg><svg width="35" height="35" viewBox="-1 -1 82 82" id="icon-c1-calendar-33" x="137" y="134" xmlns="http://www.w3.org/2000/svg"><g fill="none" fill-rule="evenodd"><path d="M79 40C79 18.46 61.54 1 40 1S1 18.46 1 40s17.46 39 39 39 39-17.46 39-39z" stroke="#ECAA20" stroke-width="2" fill="#FFF"/><path d="M29 43.482h4.778v-3.964H29v3.964zm7.262-6.518h4.778V33h-4.778v3.964zm6.96 0H48V33h-4.778v3.964zm0 6.518H48v-3.964h-4.778v3.964zm0 6.518H48v-3.964h-4.778V50zm-6.96-6.518h4.778v-3.964h-4.778v3.964zm0 6.518h4.778v-3.964h-4.778V50zM29 50h4.778v-3.964H29V50zM48.5 20c1.375 0 2.5 1.015 2.5 2.255v2.49C51 25.985 49.875 27 48.5 27S46 25.985 46 24.745v-2.49C46 21.015 47.125 20 48.5 20M31.5 20c1.375 0 2.5 1.015 2.5 2.255v2.49C34 25.985 32.875 27 31.5 27S29 25.985 29 24.745v-2.49C29 21.015 30.125 20 31.5 20" fill="#FEFEFE"/><path d="M31.059 23.646c-4.088 0-7.413 3.325-7.413 7.413V48.94c0 4.089 3.325 7.414 7.413 7.414H48.94c4.088 0 7.413-3.325 7.413-7.414V31.06c0-4.088-3.325-7.413-7.413-7.413H31.06zM48.94 58H31.06C26.063 58 22 53.936 22 48.94V31.06C22 26.064 26.063 22 31.059 22H48.94C53.936 22 58 26.064 58 31.059V48.94c0 4.996-4.064 9.06-9.059 9.06z" fill="#FEFEFE"/><path d="M29 43.482h4.778v-3.964H29v3.964zm7.262-6.518h4.778V33h-4.778v3.964zm6.96 0H48V33h-4.778v3.964zm0 6.518H48v-3.964h-4.778v3.964zm0 6.518H48v-3.964h-4.778V50zm-6.96-6.518h4.778v-3.964h-4.778v3.964zm0 6.518h4.778v-3.964h-4.778V50zM29 50h4.778v-3.964H29V50zM48.5 20c1.375 0 2.5 1.015 2.5 2.255v2.49C51 25.985 49.875 27 48.5 27S46 25.985 46 24.745v-2.49C46 21.015 47.125 20 48.5 20M31.5 20c1.375 0 2.5 1.015 2.5 2.255v2.49C34 25.985 32.875 27 31.5 27S29 25.985 29 24.745v-2.49C29 21.015 30.125 20 31.5 20" fill="#ECAA20"/><path d="M31.059 23.646c-4.088 0-7.413 3.325-7.413 7.413V48.94c0 4.089 3.325 7.414 7.413 7.414H48.94c4.088 0 7.413-3.325 7.413-7.414V31.06c0-4.088-3.325-7.413-7.413-7.413H31.06zM48.94 58H31.06C26.063 58 22 53.936 22 48.94V31.06C22 26.064 26.063 22 31.059 22H48.94C53.936 22 58 26.064 58 31.059V48.94c0 4.996-4.064 9.06-9.059 9.06z" fill="#ECAA20"/></g></svg><svg width="52" height="52" viewBox="-1 -1 82 82" id="icon-c1-calendar-50" x="172" y="169" xmlns="http://www.w3.org/2000/svg"><g fill="none" fill-rule="evenodd"><path d="M79 40C79 18.46 61.54 1 40 1S1 18.46 1 40s17.46 39 39 39 39-17.46 39-39z" stroke="#ECAA20" stroke-width="2" fill="#FFF"/><path d="M29 43.482h4.778v-3.964H29v3.964zm7.262-6.518h4.778V33h-4.778v3.964zm6.96 0H48V33h-4.778v3.964zm0 6.518H48v-3.964h-4.778v3.964zm0 6.518H48v-3.964h-4.778V50zm-6.96-6.518h4.778v-3.964h-4.778v3.964zm0 6.518h4.778v-3.964h-4.778V50zM29 50h4.778v-3.964H29V50zM48.5 20c1.375 0 2.5 1.015 2.5 2.255v2.49C51 25.985 49.875 27 48.5 27S46 25.985 46 24.745v-2.49C46 21.015 47.125 20 48.5 20M31.5 20c1.375 0 2.5 1.015 2.5 2.255v2.49C34 25.985 32.875 27 31.5 27S29 25.985 29 24.745v-2.49C29 21.015 30.125 20 31.5 20" fill="#FEFEFE"/><path d="M31.059 23.646c-4.088 0-7.413 3.325-7.413 7.413V48.94c0 4.089 3.325 7.414 7.413 7.414H48.94c4.088 0 7.413-3.325 7.413-7.414V31.06c0-4.088-3.325-7.413-7.413-7.413H31.06zM48.94 58H31.06C26.063 58 22 53.936 22 48.94V31.06C22 26.064 26.063 22 31.059 22H48.94C53.936 22 58 26.064 58 31.059V48.94c0 4.996-4.064 9.06-9.059 9.06z" fill="#FEFEFE"/><path d="M29 43.482h4.778v-3.964H29v3.964zm7.262-6.518h4.778V33h-4.778v3.964zm6.96 0H48V33h-4.778v3.964zm0 6.518H48v-3.964h-4.778v3.964zm0 6.518H48v-3.964h-4.778V50zm-6.96-6.518h4.778v-3.964h-4.778v3.964zm0 6.518h4.778v-3.964h-4.778V50zM29 50h4.778v-3.964H29V50zM48.5 20c1.375 0 2.5 1.015 2.5 2.255v2.49C51 25.985 49.875 27 48.5 27S46 25.985 46 24.745v-2.49C46 21.015 47.125 20 48.5 20M31.5 20c1.375 0 2.5 1.015 2.5 2.255v2.49C34 25.985 32.875 27 31.5 27S29 25.985 29 24.745v-2.49C29 21.015 30.125 20 31.5 20" fill="#ECAA20"/><path d="M31.059 23.646c-4.088 0-7.413 3.325-7.413 7.413V48.94c0 4.089 3.325 7.414 7.413 7.414H48.94c4.088 0 7.413-3.325 7.413-7.414V31.06c0-4.088-3.325-7.413-7.413-7.413H31.06zM48.94 58H31.06C26.063 58 22 53.936 22 48.94V31.06C22 26.064 26.063 22 31.059 22H48.94C53.936 22 58 26.064 58 31.059V48.94c0 4.996-4.064 9.06-9.059 9.06z" fill="#ECAA20"/></g></svg><svg width="82" height="82" viewBox="-1 -1 82 82" id="icon-c1-calendar-80" x="224" y="221" xmlns="http://www.w3.org/2000/svg"><g fill="none" fill-rule="evenodd"><path d="M79 40C79 18.46 61.54 1 40 1S1 18.46 1 40s17.46 39 39 39 39-17.46 39-39z" stroke="#ECAA20" stroke-width="2" fill="#FFF"/><path d="M29 43.482h4.778v-3.964H29v3.964zm7.262-6.518h4.778V33h-4.778v3.964zm6.96 0H48V33h-4.778v3.964zm0 6.518H48v-3.964h-4.778v3.964zm0 6.518H48v-3.964h-4.778V50zm-6.96-6.518h4.778v-3.964h-4.778v3.964zm0 6.518h4.778v-3.964h-4.778V50zM29 50h4.778v-3.964H29V50zM48.5 20c1.375 0 2.5 1.015 2.5 2.255v2.49C51 25.985 49.875 27 48.5 27S46 25.985 46 24.745v-2.49C46 21.015 47.125 20 48.5 20M31.5 20c1.375 0 2.5 1.015 2.5 2.255v2.49C34 25.985 32.875 27 31.5 27S29 25.985 29 24.745v-2.49C29 21.015 30.125 20 31.5 20" fill="#FEFEFE"/><path d="M31.059 23.646c-4.088 0-7.413 3.325-7.413 7.413V48.94c0 4.089 3.325 7.414 7.413 7.414H48.94c4.088 0 7.413-3.325 7.413-7.414V31.06c0-4.088-3.325-7.413-7.413-7.413H31.06zM48.94 58H31.06C26.063 58 22 53.936 22 48.94V31.06C22 26.064 26.063 22 31.059 22H48.94C53.936 22 58 26.064 58 31.059V48.94c0 4.996-4.064 9.06-9.059 9.06z" fill="#FEFEFE"/><path d="M29 43.482h4.778v-3.964H29v3.964zm7.262-6.518h4.778V33h-4.778v3.964zm6.96 0H48V33h-4.778v3.964zm0 6.518H48v-3.964h-4.778v3.964zm0 6.518H48v-3.964h-4.778V50zm-6.96-6.518h4.778v-3.964h-4.778v3.964zm0 6.518h4.778v-3.964h-4.778V50zM29 50h4.778v-3.964H29V50zM48.5 20c1.375 0 2.5 1.015 2.5 2.255v2.49C51 25.985 49.875 27 48.5 27S46 25.985 46 24.745v-2.49C46 21.015 47.125 20 48.5 20M31.5 20c1.375 0 2.5 1.015 2.5 2.255v2.49C34 25.985 32.875 27 31.5 27S29 25.985 29 24.745v-2.49C29 21.015 30.125 20 31.5 20" fill="#ECAA20"/><path d="M31.059 23.646c-4.088 0-7.413 3.325-7.413 7.413V48.94c0 4.089 3.325 7.414 7.413 7.414H48.94c4.088 0 7.413-3.325 7.413-7.414V31.06c0-4.088-3.325-7.413-7.413-7.413H31.06zM48.94 58H31.06C26.063 58 22 53.936 22 48.94V31.06C22 26.064 26.063 22 31.059 22H48.94C53.936 22 58 26.064 58 31.059V48.94c0 4.996-4.064 9.06-9.059 9.06z" fill="#ECAA20"/></g></svg><svg width="35" height="35" viewBox="-1 -1 82 82" id="icon-c1-information-33" x="306" y="303" xmlns="http://www.w3.org/2000/svg"><g fill="none" fill-rule="evenodd"><path d="M40 79c21.54 0 39-17.46 39-39S61.54 1 40 1 1 18.46 1 40s17.46 39 39 39" stroke="#ECAA20" stroke-width="2" fill="#FFF"/><path d="M40.453 20.661c-10.412 0-18.884 8.468-18.884 18.876 0 3.578 2.368 8.895 2.392 8.949.356.795.385 2.004.064 2.814l-3.052 7.717 7.58-3.12c.811-.333 2.026-.311 2.823.052.054.025 5.447 2.463 9.077 2.463 10.413 0 18.885-8.467 18.885-18.875s-8.472-18.876-18.885-18.876zM20.193 61a1.19 1.19 0 0 1-.848-.332c-.176-.174-.548-.67-.204-1.539l3.338-8.44c.157-.395.14-1.135-.034-1.523-.104-.231-2.538-5.694-2.538-9.629C19.907 28.212 29.124 19 40.453 19 51.783 19 61 28.212 61 39.537c0 11.324-9.217 20.537-20.547 20.537-3.993 0-9.534-2.506-9.767-2.613-.383-.174-1.11-.188-1.5-.028l-8.3 3.416c-.264.11-.496.151-.693.151z" fill="#ECAA20"/><path d="M35.466 37.701A.465.465 0 0 1 35 37.24v-2.777c0-.254.21-.462.466-.462h6.669c.256 0 .465.208.465.462v11.393c0 .253.21.462.465.462h1.47c.256 0 .465.207.465.461v2.76c0 .254-.21.462-.465.462h-9.07a.465.465 0 0 1-.465-.462v-2.76c0-.254.21-.461.466-.461h1.52a.466.466 0 0 0 .465-.462v-7.692a.465.465 0 0 0-.465-.462h-1.52zM37 30.012c0-.827.296-1.533.878-2.125A2.89 2.89 0 0 1 40.004 27a2.87 2.87 0 0 1 2.125.887A2.92 2.92 0 0 1 43 30.012c0 .821-.296 1.527-.877 2.113a2.92 2.92 0 0 1-2.12.875c-.817 0-1.519-.296-2.113-.887-.594-.586-.89-1.292-.89-2.1z" fill="#ECAA20"/></g></svg><svg width="82" height="82" viewBox="-1 -1 82 82" id="icon-c1-information-80" x="341" y="338" xmlns="http://www.w3.org/2000/svg"><g fill="none" fill-rule="evenodd"><path d="M40 79c21.54 0 39-17.46 39-39S61.54 1 40 1 1 18.46 1 40s17.46 39 39 39" stroke="#ECAA20" stroke-width="2" fill="#FFF"/><path d="M40.453 20.661c-10.412 0-18.884 8.468-18.884 18.876 0 3.578 2.368 8.895 2.392 8.949.356.795.385 2.004.064 2.814l-3.052 7.717 7.58-3.12c.811-.333 2.026-.311 2.823.052.054.025 5.447 2.463 9.077 2.463 10.413 0 18.885-8.467 18.885-18.875s-8.472-18.876-18.885-18.876zM20.193 61a1.19 1.19 0 0 1-.848-.332c-.176-.174-.548-.67-.204-1.539l3.338-8.44c.157-.395.14-1.135-.034-1.523-.104-.231-2.538-5.694-2.538-9.629C19.907 28.212 29.124 19 40.453 19 51.783 19 61 28.212 61 39.537c0 11.324-9.217 20.537-20.547 20.537-3.993 0-9.534-2.506-9.767-2.613-.383-.174-1.11-.188-1.5-.028l-8.3 3.416c-.264.11-.496.151-.693.151z" fill="#ECAA20"/><path d="M35.466 37.701A.465.465 0 0 1 35 37.24v-2.777c0-.254.21-.462.466-.462h6.669c.256 0 .465.208.465.462v11.393c0 .253.21.462.465.462h1.47c.256 0 .465.207.465.461v2.76c0 .254-.21.462-.465.462h-9.07a.465.465 0 0 1-.465-.462v-2.76c0-.254.21-.461.466-.461h1.52a.466.466 0 0 0 .465-.462v-7.692a.465.465 0 0 0-.465-.462h-1.52zM37 30.012c0-.827.296-1.533.878-2.125A2.89 2.89 0 0 1 40.004 27a2.87 2.87 0 0 1 2.125.887A2.92 2.92 0 0 1 43 30.012c0 .821-.296 1.527-.877 2.113a2.92 2.92 0 0 1-2.12.875c-.817 0-1.519-.296-2.113-.887-.594-.586-.89-1.292-.89-2.1z" fill="#ECAA20"/></g></svg><svg width="35" height="35" viewBox="-1 -1 82 82" id="icon-c1-pause-33" x="423" y="420" xmlns="http://www.w3.org/2000/svg"><g fill="none" fill-rule="evenodd"><path d="M79 40C79 18.46 61.54 1 40 1S1 18.46 1 40s17.46 39 39 39 39-17.46 39-39z" stroke="#ECAA20" stroke-width="2" fill="#FFF"/><path d="M40.5 21.63c-9.853 0-17.87 8.017-17.87 17.87 0 9.853 8.017 17.87 17.87 17.87 9.853 0 17.87-8.017 17.87-17.87 0-9.853-8.017-17.87-17.87-17.87m0 37.37C29.748 59 21 50.252 21 39.5S29.748 20 40.5 20 60 28.748 60 39.5 51.252 59 40.5 59" fill="#ECAA20"/><path d="M35.56 48h-.119A2.446 2.446 0 0 1 33 45.548V33.452A2.446 2.446 0 0 1 35.441 31h.118A2.446 2.446 0 0 1 38 33.452v12.096A2.446 2.446 0 0 1 35.56 48M45.56 48h-.119A2.446 2.446 0 0 1 43 45.548V33.452A2.446 2.446 0 0 1 45.441 31h.118A2.446 2.446 0 0 1 48 33.452v12.096A2.446 2.446 0 0 1 45.56 48" fill="#ECAA20"/></g></svg><svg width="82" height="82" viewBox="-1 -1 82 82" id="icon-c1-pause-80" x="458" y="455" xmlns="http://www.w3.org/2000/svg"><g fill="none" fill-rule="evenodd"><path d="M79 40C79 18.46 61.54 1 40 1S1 18.46 1 40s17.46 39 39 39 39-17.46 39-39z" stroke="#ECAA20" stroke-width="2" fill="#FFF"/><path d="M40.5 21.63c-9.853 0-17.87 8.017-17.87 17.87 0 9.853 8.017 17.87 17.87 17.87 9.853 0 17.87-8.017 17.87-17.87 0-9.853-8.017-17.87-17.87-17.87m0 37.37C29.748 59 21 50.252 21 39.5S29.748 20 40.5 20 60 28.748 60 39.5 51.252 59 40.5 59" fill="#ECAA20"/><path d="M35.56 48h-.119A2.446 2.446 0 0 1 33 45.548V33.452A2.446 2.446 0 0 1 35.441 31h.118A2.446 2.446 0 0 1 38 33.452v12.096A2.446 2.446 0 0 1 35.56 48M45.56 48h-.119A2.446 2.446 0 0 1 43 45.548V33.452A2.446 2.446 0 0 1 45.441 31h.118A2.446 2.446 0 0 1 48 33.452v12.096A2.446 2.446 0 0 1 45.56 48" fill="#ECAA20"/></g></svg><svg width="35" height="35" viewBox="-1 -1 82 82" id="icon-c1-play-33" x="540" y="537" xmlns="http://www.w3.org/2000/svg"><g fill="none" fill-rule="evenodd"><path d="M79 40C79 18.46 61.54 1 40 1S1 18.46 1 40s17.46 39 39 39 39-17.46 39-39z" stroke="#ECAA20" stroke-width="2" fill="#FFF"/><g fill="#ECAA20"><path d="M40 21.672c-10.106 0-18.328 8.222-18.328 18.328S29.894 58.328 40 58.328 58.328 50.106 58.328 40 50.106 21.672 40 21.672M40 60c-11.028 0-20-8.972-20-20s8.972-20 20-20 20 8.972 20 20-8.972 20-20 20"/><path d="M46.643 38.667a1.15 1.15 0 0 1 0 1.666l-9.777 9.404c-.476.458-.866.303-.866-.345V29.608c0-.648.39-.803.866-.345l9.777 9.404z"/></g></g></svg><svg width="82" height="82" viewBox="-1 -1 82 82" id="icon-c1-play-80" x="575" y="572" xmlns="http://www.w3.org/2000/svg"><g fill="none" fill-rule="evenodd"><path d="M79 40C79 18.46 61.54 1 40 1S1 18.46 1 40s17.46 39 39 39 39-17.46 39-39z" stroke="#ECAA20" stroke-width="2" fill="#FFF"/><g fill="#ECAA20"><path d="M40 21.672c-10.106 0-18.328 8.222-18.328 18.328S29.894 58.328 40 58.328 58.328 50.106 58.328 40 50.106 21.672 40 21.672M40 60c-11.028 0-20-8.972-20-20s8.972-20 20-20 20 8.972 20 20-8.972 20-20 20"/><path d="M46.643 38.667a1.15 1.15 0 0 1 0 1.666l-9.777 9.404c-.476.458-.866.303-.866-.345V29.608c0-.648.39-.803.866-.345l9.777 9.404z"/></g></g></svg><svg width="35" height="35" viewBox="-1 -1 82 82" id="icon-c1-record-33" x="657" y="654" xmlns="http://www.w3.org/2000/svg"><g fill="none" fill-rule="evenodd"><path d="M40 79c21.54 0 39-17.46 39-39S61.54 1 40 1 1 18.46 1 40s17.46 39 39 39" stroke="#ECAA20" stroke-width="2" fill="#FFF"/><path d="M40.5 21.63c-9.853 0-17.87 8.017-17.87 17.87 0 9.853 8.017 17.87 17.87 17.87 9.853 0 17.87-8.017 17.87-17.87 0-9.853-8.017-17.87-17.87-17.87m0 37.37C29.748 59 21 50.252 21 39.5S29.748 20 40.5 20 60 28.748 60 39.5 51.252 59 40.5 59" fill="#ECAA20"/><path d="M50 39a9 9 0 1 1-18 0 9 9 0 0 1 18 0" fill="#ECAA20"/></g></svg><svg width="82" height="82" viewBox="-1 -1 82 82" id="icon-c1-record-80" x="692" y="689" xmlns="http://www.w3.org/2000/svg"><g fill="none" fill-rule="evenodd"><path d="M40 79c21.54 0 39-17.46 39-39S61.54 1 40 1 1 18.46 1 40s17.46 39 39 39" stroke="#ECAA20" stroke-width="2" fill="#FFF"/><path d="M40.5 21.63c-9.853 0-17.87 8.017-17.87 17.87 0 9.853 8.017 17.87 17.87 17.87 9.853 0 17.87-8.017 17.87-17.87 0-9.853-8.017-17.87-17.87-17.87m0 37.37C29.748 59 21 50.252 21 39.5S29.748 20 40.5 20 60 28.748 60 39.5 51.252 59 40.5 59" fill="#ECAA20"/><path d="M50 39a9 9 0 1 1-18 0 9 9 0 0 1 18 0" fill="#ECAA20"/></g></svg><svg width="35" height="35" viewBox="-1 -1 82 82" id="icon-c1-tick-33" x="774" y="771" xmlns="http://www.w3.org/2000/svg"><g fill="none" fill-rule="evenodd"><path d="M40 79c21.54 0 39-17.46 39-39S61.54 1 40 1 1 18.46 1 40s17.46 39 39 39" stroke="#ECAA20" stroke-width="2" fill="#FFF"/><path d="M40 21.672c-10.106 0-18.328 8.222-18.328 18.328S29.894 58.328 40 58.328 58.328 50.106 58.328 40 50.106 21.672 40 21.672M40 60c-11.028 0-20-8.972-20-20s8.972-20 20-20 20 8.972 20 20-8.972 20-20 20" fill="#ECAA20"/><path d="M38.82 40.327c-.434.469-1.13.455-1.546-.032l-3.294-3.856a1.166 1.166 0 0 0-1.64-.128l-1.935 1.655a1.17 1.17 0 0 0-.128 1.641l6.85 8.018a1.013 1.013 0 0 0 1.546.032l12.018-12.97a1.17 1.17 0 0 0-.061-1.645l-1.866-1.733a1.165 1.165 0 0 0-1.644.063l-8.3 8.955z" fill="#ECAA20"/></g></svg><svg width="82" height="82" viewBox="-1 -1 82 82" id="icon-c1-tick-80" x="809" y="806" xmlns="http://www.w3.org/2000/svg"><g fill="none" fill-rule="evenodd"><path d="M40 79c21.54 0 39-17.46 39-39S61.54 1 40 1 1 18.46 1 40s17.46 39 39 39" stroke="#ECAA20" stroke-width="2" fill="#FFF"/><path d="M40 21.672c-10.106 0-18.328 8.222-18.328 18.328S29.894 58.328 40 58.328 58.328 50.106 58.328 40 50.106 21.672 40 21.672M40 60c-11.028 0-20-8.972-20-20s8.972-20 20-20 20 8.972 20 20-8.972 20-20 20" fill="#ECAA20"/><path d="M38.82 40.327c-.434.469-1.13.455-1.546-.032l-3.294-3.856a1.166 1.166 0 0 0-1.64-.128l-1.935 1.655a1.17 1.17 0 0 0-.128 1.641l6.85 8.018a1.013 1.013 0 0 0 1.546.032l12.018-12.97a1.17 1.17 0 0 0-.061-1.645l-1.866-1.733a1.165 1.165 0 0 0-1.644.063l-8.3 8.955z" fill="#ECAA20"/></g></svg><svg width="35" height="35" viewBox="-1 -1 82 82" id="icon-calendar-33" x="891" y="888" xmlns="http://www.w3.org/2000/svg"><defs><path id="aqa" d="M0 .502h79.487v77.692H0z"/></defs><g fill="none" fill-rule="evenodd"><path fill="#FEFEFE" d="M29.45 42.152h4.758v-3.94H29.45v3.94zm7.231-6.48h4.758v-3.94h-4.758v3.94zm6.93 0h4.758v-3.94h-4.757v3.94zm0 6.48h4.758v-3.94h-4.757v3.94zm0 6.478h4.758v-3.94h-4.757v3.94zm-6.93-6.478h4.758v-3.94h-4.758v3.94zm0 6.478h4.758v-3.94h-4.758v3.94zm-7.231 0h4.758v-3.94H29.45v3.94zm18.581-29.342c1.3 0 2.362 1.04 2.362 2.309v2.548c0 1.27-1.063 2.309-2.362 2.309-1.299 0-2.362-1.04-2.362-2.309v-2.548c0-1.27 1.063-2.309 2.362-2.309m-16.867 0c1.299 0 2.362 1.04 2.362 2.309v2.548c0 1.27-1.063 2.309-2.362 2.309-1.3 0-2.362-1.04-2.362-2.309v-2.548c0-1.27 1.063-2.309 2.362-2.309"/><path fill="#FEFEFE" d="M30.784 23.022c-4.096 0-7.428 3.256-7.428 7.26v17.513c0 4.004 3.332 7.26 7.428 7.26h17.92c4.095 0 7.427-3.256 7.427-7.26V30.28c0-4.003-3.332-7.26-7.428-7.26h-17.92zm17.92 33.645h-17.92c-5.005 0-9.077-3.98-9.077-8.872V30.28c0-4.891 4.072-8.872 9.077-8.872h17.92c5.004 0 9.076 3.98 9.076 8.872v17.514c0 4.892-4.072 8.872-9.077 8.872z"/><path fill="#FEFEFE" d="M29.45 42.152h4.758v-3.94H29.45v3.94zm7.231-6.48h4.758v-3.94h-4.758v3.94zm6.93 0h4.758v-3.94h-4.757v3.94zm0 6.48h4.758v-3.94h-4.757v3.94zm0 6.478h4.758v-3.94h-4.757v3.94zm-6.93-6.478h4.758v-3.94h-4.758v3.94zm0 6.478h4.758v-3.94h-4.758v3.94zm-7.231 0h4.758v-3.94H29.45v3.94zm18.581-29.342c1.3 0 2.362 1.04 2.362 2.309v2.548c0 1.27-1.063 2.309-2.362 2.309-1.299 0-2.362-1.04-2.362-2.309v-2.548c0-1.27 1.063-2.309 2.362-2.309m-16.867 0c1.299 0 2.362 1.04 2.362 2.309v2.548c0 1.27-1.063 2.309-2.362 2.309-1.3 0-2.362-1.04-2.362-2.309v-2.548c0-1.27 1.063-2.309 2.362-2.309"/><path fill="#FEFEFE" d="M30.784 23.022c-4.096 0-7.428 3.256-7.428 7.26v17.513c0 4.004 3.332 7.26 7.428 7.26h17.92c4.095 0 7.427-3.256 7.427-7.26V30.28c0-4.003-3.332-7.26-7.428-7.26h-17.92zm17.92 33.645h-17.92c-5.005 0-9.077-3.98-9.077-8.872V30.28c0-4.891 4.072-8.872 9.077-8.872h17.92c5.004 0 9.076 3.98 9.076 8.872v17.514c0 4.892-4.072 8.872-9.077 8.872z"/></g></svg><svg width="52" height="52" viewBox="-1 -1 82 82" id="icon-calendar-50" x="926" y="923" xmlns="http://www.w3.org/2000/svg"><defs><path id="ara" d="M0 .502h79.487v77.692H0z"/></defs><g fill="none" fill-rule="evenodd"><path fill="#FEFEFE" d="M29.45 42.152h4.758v-3.94H29.45v3.94zm7.231-6.48h4.758v-3.94h-4.758v3.94zm6.93 0h4.758v-3.94h-4.757v3.94zm0 6.48h4.758v-3.94h-4.757v3.94zm0 6.478h4.758v-3.94h-4.757v3.94zm-6.93-6.478h4.758v-3.94h-4.758v3.94zm0 6.478h4.758v-3.94h-4.758v3.94zm-7.231 0h4.758v-3.94H29.45v3.94zm18.581-29.342c1.3 0 2.362 1.04 2.362 2.309v2.548c0 1.27-1.063 2.309-2.362 2.309-1.299 0-2.362-1.04-2.362-2.309v-2.548c0-1.27 1.063-2.309 2.362-2.309m-16.867 0c1.299 0 2.362 1.04 2.362 2.309v2.548c0 1.27-1.063 2.309-2.362 2.309-1.3 0-2.362-1.04-2.362-2.309v-2.548c0-1.27 1.063-2.309 2.362-2.309"/><path fill="#FEFEFE" d="M30.784 23.022c-4.096 0-7.428 3.256-7.428 7.26v17.513c0 4.004 3.332 7.26 7.428 7.26h17.92c4.095 0 7.427-3.256 7.427-7.26V30.28c0-4.003-3.332-7.26-7.428-7.26h-17.92zm17.92 33.645h-17.92c-5.005 0-9.077-3.98-9.077-8.872V30.28c0-4.891 4.072-8.872 9.077-8.872h17.92c5.004 0 9.076 3.98 9.076 8.872v17.514c0 4.892-4.072 8.872-9.077 8.872z"/><path fill="#FEFEFE" d="M29.45 42.152h4.758v-3.94H29.45v3.94zm7.231-6.48h4.758v-3.94h-4.758v3.94zm6.93 0h4.758v-3.94h-4.757v3.94zm0 6.48h4.758v-3.94h-4.757v3.94zm0 6.478h4.758v-3.94h-4.757v3.94zm-6.93-6.478h4.758v-3.94h-4.758v3.94zm0 6.478h4.758v-3.94h-4.758v3.94zm-7.231 0h4.758v-3.94H29.45v3.94zm18.581-29.342c1.3 0 2.362 1.04 2.362 2.309v2.548c0 1.27-1.063 2.309-2.362 2.309-1.299 0-2.362-1.04-2.362-2.309v-2.548c0-1.27 1.063-2.309 2.362-2.309m-16.867 0c1.299 0 2.362 1.04 2.362 2.309v2.548c0 1.27-1.063 2.309-2.362 2.309-1.3 0-2.362-1.04-2.362-2.309v-2.548c0-1.27 1.063-2.309 2.362-2.309"/><path fill="#FEFEFE" d="M30.784 23.022c-4.096 0-7.428 3.256-7.428 7.26v17.513c0 4.004 3.332 7.26 7.428 7.26h17.92c4.095 0 7.427-3.256 7.427-7.26V30.28c0-4.003-3.332-7.26-7.428-7.26h-17.92zm17.92 33.645h-17.92c-5.005 0-9.077-3.98-9.077-8.872V30.28c0-4.891 4.072-8.872 9.077-8.872h17.92c5.004 0 9.076 3.98 9.076 8.872v17.514c0 4.892-4.072 8.872-9.077 8.872z"/></g></svg><svg width="82" height="82" viewBox="-1 -1 82 82" id="icon-calendar-80" x="978" y="975" xmlns="http://www.w3.org/2000/svg"><defs><path id="asa" d="M0 .502h79.487v77.692H0z"/></defs><g fill="none" fill-rule="evenodd"><path fill="#FEFEFE" d="M29.45 42.152h4.758v-3.94H29.45v3.94zm7.231-6.48h4.758v-3.94h-4.758v3.94zm6.93 0h4.758v-3.94h-4.757v3.94zm0 6.48h4.758v-3.94h-4.757v3.94zm0 6.478h4.758v-3.94h-4.757v3.94zm-6.93-6.478h4.758v-3.94h-4.758v3.94zm0 6.478h4.758v-3.94h-4.758v3.94zm-7.231 0h4.758v-3.94H29.45v3.94zm18.581-29.342c1.3 0 2.362 1.04 2.362 2.309v2.548c0 1.27-1.063 2.309-2.362 2.309-1.299 0-2.362-1.04-2.362-2.309v-2.548c0-1.27 1.063-2.309 2.362-2.309m-16.867 0c1.299 0 2.362 1.04 2.362 2.309v2.548c0 1.27-1.063 2.309-2.362 2.309-1.3 0-2.362-1.04-2.362-2.309v-2.548c0-1.27 1.063-2.309 2.362-2.309"/><path fill="#FEFEFE" d="M30.784 23.022c-4.096 0-7.428 3.256-7.428 7.26v17.513c0 4.004 3.332 7.26 7.428 7.26h17.92c4.095 0 7.427-3.256 7.427-7.26V30.28c0-4.003-3.332-7.26-7.428-7.26h-17.92zm17.92 33.645h-17.92c-5.005 0-9.077-3.98-9.077-8.872V30.28c0-4.891 4.072-8.872 9.077-8.872h17.92c5.004 0 9.076 3.98 9.076 8.872v17.514c0 4.892-4.072 8.872-9.077 8.872z"/><path fill="#FEFEFE" d="M29.45 42.152h4.758v-3.94H29.45v3.94zm7.231-6.48h4.758v-3.94h-4.758v3.94zm6.93 0h4.758v-3.94h-4.757v3.94zm0 6.48h4.758v-3.94h-4.757v3.94zm0 6.478h4.758v-3.94h-4.757v3.94zm-6.93-6.478h4.758v-3.94h-4.758v3.94zm0 6.478h4.758v-3.94h-4.758v3.94zm-7.231 0h4.758v-3.94H29.45v3.94zm18.581-29.342c1.3 0 2.362 1.04 2.362 2.309v2.548c0 1.27-1.063 2.309-2.362 2.309-1.299 0-2.362-1.04-2.362-2.309v-2.548c0-1.27 1.063-2.309 2.362-2.309m-16.867 0c1.299 0 2.362 1.04 2.362 2.309v2.548c0 1.27-1.063 2.309-2.362 2.309-1.3 0-2.362-1.04-2.362-2.309v-2.548c0-1.27 1.063-2.309 2.362-2.309"/><path fill="#FEFEFE" d="M30.784 23.022c-4.096 0-7.428 3.256-7.428 7.26v17.513c0 4.004 3.332 7.26 7.428 7.26h17.92c4.095 0 7.427-3.256 7.427-7.26V30.28c0-4.003-3.332-7.26-7.428-7.26h-17.92zm17.92 33.645h-17.92c-5.005 0-9.077-3.98-9.077-8.872V30.28c0-4.891 4.072-8.872 9.077-8.872h17.92c5.004 0 9.076 3.98 9.076 8.872v17.514c0 4.892-4.072 8.872-9.077 8.872z"/></g></svg><svg width="17" height="12" viewBox="-1 -1 17 12" id="icon-chevron-down" x="1060" y="1057" xmlns="http://www.w3.org/2000/svg"><path fill="#005b70" fill-rule="evenodd" d="M2.616.5l4.926 4.841L12.384.585l2.116 2.08L7.542 9.5.5 2.579z"/></svg><svg width="11" height="16" viewBox="-1 -1 11 16" id="icon-chevron-right" x="1077" y="1069" xmlns="http://www.w3.org/2000/svg"><path fill="#005b70" fill-rule="evenodd" d="M0 11.884l4.841-4.926L.085 2.116 2.165 0 9 6.958 2.079 14z"/></svg><svg width="7" height="10" viewBox="-1 -1 11 16" id="icon-chevron-right-5" x="1088" y="1085" xmlns="http://www.w3.org/2000/svg"><path fill="#005b70" fill-rule="evenodd" d="M0 11.884l4.841-4.926L.085 2.116 2.165 0 9 6.958 2.079 14z"/></svg><svg width="11" height="16" viewBox="-1 -1 11 16" id="icon-chevron-right-black" x="1095" y="1095" xmlns="http://www.w3.org/2000/svg"><path fill-rule="evenodd" d="M0 11.884l4.841-4.926L.085 2.116 2.165 0 9 6.958 2.079 14z"/></svg><svg width="11" height="16" viewBox="-1 -1 11 16" id="icon-chevron-right-greyish-brown" x="1106" y="1111" xmlns="http://www.w3.org/2000/svg"><path fill="#575757" fill-rule="evenodd" d="M0 11.884l4.841-4.926L.085 2.116 2.165 0 9 6.958 2.079 14z"/></svg><svg width="11" height="16" viewBox="-1 -1 11 16" id="icon-chevron-right-white" x="1117" y="1127" xmlns="http://www.w3.org/2000/svg"><path fill="#FFF" fill-rule="evenodd" d="M0 11.884l4.841-4.926L.085 2.116 2.165 0 9 6.958 2.079 14z"/></svg><svg width="35" height="35" viewBox="-1 -1 82 82" id="icon-citizen-33" x="1128" y="1143" xmlns="http://www.w3.org/2000/svg"><defs><path id="aza" d="M0 0h79.564v79.565H0z"/><path id="azb" d="M-13.196 79.565H79.2V0h-92.396z"/><path id="azd" d="M39.783 0C17.811 0 0 17.811 0 39.783c0 21.971 17.811 39.782 39.783 39.782 21.971 0 39.782-17.81 39.782-39.782"/><path id="azf" d="M39.783 0C17.811 0 0 17.811 0 39.783c0 21.971 17.811 39.782 39.783 39.782 21.971 0 39.782-17.81 39.782-39.782"/><path id="azh" d="M39.783 0C17.811 0 0 17.811 0 39.783c0 21.971 17.811 39.782 39.783 39.782 21.971 0 39.782-17.81 39.782-39.782"/><path id="azj" d="M39.783 0C17.811 0 0 17.811 0 39.783c0 21.971 17.811 39.782 39.783 39.782 21.971 0 39.782-17.81 39.782-39.782"/></defs><g fill="none" fill-rule="evenodd" transform="translate(.01 .483)"><mask id="azc" fill="#fff"><use xlink:href="#azb"/></mask><path fill="#FEFEFE" d="M29.69 60.206h19.211v-1.65h-19.21z" mask="url(#azc)"/><mask id="aze" fill="#fff"><use xlink:href="#azd"/></mask><path fill="#FEFEFE" d="M18.647 51.527l-22.77-15.979a15.76 15.76 0 0 0 1.925-4.208l22.751 15.966a.552.552 0 0 0-.08.166 14.55 14.55 0 0 1-1.826 4.055" mask="url(#aze)"/><mask id="azg" fill="#fff"><use xlink:href="#azf"/></mask><path fill="#FEFEFE" d="M20.816 56.848a.54.54 0 0 0-.218.355l-4.928-.774c1.165-.871 4.053-3.388 5.432-7.77l2.412 4.387a.54.54 0 0 0-.26.328c-.6 2.126-2.42 3.46-2.438 3.474" mask="url(#azg)"/><mask id="azi" fill="#fff"><use xlink:href="#azh"/></mask><path fill="#FEFEFE" d="M-4.95 36.289l22.769 15.978c-1.555 2.056-3.14 3.062-3.165 3.079a.54.54 0 0 0-.157.148l-22.744-15.96c.506-.349 1.918-1.41 3.296-3.245" mask="url(#azi)"/><mask id="azk" fill="#fff"><use xlink:href="#azj"/></mask><path fill="#FEFEFE" d="M24.55 53.608l2.162 3.93-4.444-.698c.595-.52 1.692-1.642 2.282-3.232" mask="url(#azk)"/><path fill="#DD805B" d="M24.742 40.078h30.159V18.144H24.742z" mask="url(#azk)"/><path fill="#FEFEFE" d="M32.967 18.144v8.225h-8.225v5.484h8.225v8.225h5.483v-8.225H54.9V26.37H38.45v-8.225z" mask="url(#azk)"/><path fill="#D04827" d="M33.584 18.144v9.643h-9.666v2.742h9.666v9.69h2.742v-9.69h17.89v-2.742h-17.89v-9.643z" mask="url(#azk)"/></g></svg><svg width="82" height="82" viewBox="-1 -1 82 82" id="icon-citizen-80" x="1163" y="1178" xmlns="http://www.w3.org/2000/svg"><defs><path id="baa" d="M0 0h79.564v79.565H0z"/><path id="bab" d="M-13.196 79.565H79.2V0h-92.396z"/><path id="bad" d="M39.783 0C17.811 0 0 17.811 0 39.783c0 21.971 17.811 39.782 39.783 39.782 21.971 0 39.782-17.81 39.782-39.782"/><path id="baf" d="M39.783 0C17.811 0 0 17.811 0 39.783c0 21.971 17.811 39.782 39.783 39.782 21.971 0 39.782-17.81 39.782-39.782"/><path id="bah" d="M39.783 0C17.811 0 0 17.811 0 39.783c0 21.971 17.811 39.782 39.783 39.782 21.971 0 39.782-17.81 39.782-39.782"/><path id="baj" d="M39.783 0C17.811 0 0 17.811 0 39.783c0 21.971 17.811 39.782 39.783 39.782 21.971 0 39.782-17.81 39.782-39.782"/></defs><g fill="none" fill-rule="evenodd" transform="translate(.01 .483)"><mask id="bac" fill="#fff"><use xlink:href="#bab"/></mask><path fill="#FEFEFE" d="M29.69 60.206h19.211v-1.65h-19.21z" mask="url(#bac)"/><mask id="bae" fill="#fff"><use xlink:href="#bad"/></mask><path fill="#FEFEFE" d="M18.647 51.527l-22.77-15.979a15.76 15.76 0 0 0 1.925-4.208l22.751 15.966a.552.552 0 0 0-.08.166 14.55 14.55 0 0 1-1.826 4.055" mask="url(#bae)"/><mask id="bag" fill="#fff"><use xlink:href="#baf"/></mask><path fill="#FEFEFE" d="M20.816 56.848a.54.54 0 0 0-.218.355l-4.928-.774c1.165-.871 4.053-3.388 5.432-7.77l2.412 4.387a.54.54 0 0 0-.26.328c-.6 2.126-2.42 3.46-2.438 3.474" mask="url(#bag)"/><mask id="bai" fill="#fff"><use xlink:href="#bah"/></mask><path fill="#FEFEFE" d="M-4.95 36.289l22.769 15.978c-1.555 2.056-3.14 3.062-3.165 3.079a.54.54 0 0 0-.157.148l-22.744-15.96c.506-.349 1.918-1.41 3.296-3.245" mask="url(#bai)"/><mask id="bak" fill="#fff"><use xlink:href="#baj"/></mask><path fill="#FEFEFE" d="M24.55 53.608l2.162 3.93-4.444-.698c.595-.52 1.692-1.642 2.282-3.232" mask="url(#bak)"/><path fill="#DD805B" d="M24.742 40.078h30.159V18.144H24.742z" mask="url(#bak)"/><path fill="#FEFEFE" d="M32.967 18.144v8.225h-8.225v5.484h8.225v8.225h5.483v-8.225H54.9V26.37H38.45v-8.225z" mask="url(#bak)"/><path fill="#D04827" d="M33.584 18.144v9.643h-9.666v2.742h9.666v9.69h2.742v-9.69h17.89v-2.742h-17.89v-9.643z" mask="url(#bak)"/></g></svg><svg width="18" height="18" viewBox="-1 -1 18 18" id="icon-cross" x="1245" y="1260" xmlns="http://www.w3.org/2000/svg"><path fill="none" stroke="#FFF" stroke-linecap="square" stroke-width="3" d="M7.778 7.778l-6.717 6.718 6.717-6.718-6.717-6.717 6.717 6.717zm0 0l6.374-6.374-6.374 6.374 6.374 6.374-6.374-6.374z"/></svg><svg width="32" height="32" viewBox="-1 -1 32 32" id="icon-cross-black" x="1263" y="1278" xmlns="http://www.w3.org/2000/svg"><path d="M8.06 21.496L21.153 8.404M8.06 8.06l13.092 13.092" fill-rule="nonzero" stroke="#4C4C4C" stroke-linecap="square" stroke-width="3" fill="none"/></svg><svg width="32" height="32" viewBox="-1 -1 32 32" id="icon-cross-white" x="1295" y="1310" xmlns="http://www.w3.org/2000/svg"><path d="M8.06 21.496L21.153 8.404M8.06 8.06l13.092 13.092" fill-rule="nonzero" stroke="#fff" stroke-linecap="square" stroke-width="3" fill="none"/></svg><svg width="32" height="32" viewBox="-1 -1 32 32" id="icon-delete" x="1327" y="1342" xmlns="http://www.w3.org/2000/svg"><g fill="none" fill-rule="evenodd"><circle cx="15" cy="15" r="14" stroke="#005b70" stroke-width="2"/><path d="M8.06 21.496L21.153 8.404M8.06 8.06l13.092 13.092" fill-rule="nonzero" stroke="#4C4C4C" stroke-linecap="square" stroke-width="3"/></g></svg><svg width="14" height="20" viewBox="-1 -1 14 20" id="icon-expand" x="1359" y="1374" xmlns="http://www.w3.org/2000/svg"><path d="M1.813 10l4.223 4.303 4.15-4.227L12 11.924 6.036 18 0 11.848zm8.374-2L5.964 3.697l-4.15 4.227L0 6.076 5.964 0 12 6.152z" fill-rule="evenodd"/></svg><svg width="14" height="20" viewBox="-1 -1 14 20" id="icon-expand-white" x="1373" y="1394" xmlns="http://www.w3.org/2000/svg"><path d="M1.813 10l4.223 4.303 4.15-4.227L12 11.924 6.036 18 0 11.848zm8.374-2L5.964 3.697l-4.15 4.227L0 6.076 5.964 0 12 6.152z" fill="#FFF" fill-rule="evenodd"/></svg><svg width="16" height="16" viewBox="-1 -1 16 16" id="icon-external" x="1387" y="1414" xmlns="http://www.w3.org/2000/svg"><g fill="#005b70" fill-rule="evenodd"><path d="M12 7h2V0h-2z"/><path d="M7 2h7V0H7zM0 2h5V0H0zm12 12h2V9h-2z"/><path d="M0 14h14v-2H0z"/><path d="M0 12.412h2.001V1H0zM11.174 1L5 7.175 6.826 9 13 2.825z"/></g></svg><svg width="16" height="16" viewBox="-1 -1 16 16" id="icon-external-white" x="1403" y="1430" xmlns="http://www.w3.org/2000/svg"><g fill="#FFF" fill-rule="evenodd"><path d="M12 7h2V0h-2z"/><path d="M7 2h7V0H7zM0 2h5V0H0zm12 12h2V9h-2z"/><path d="M0 14h14v-2H0z"/><path d="M0 12.412h2.001V1H0zM11.174 1L5 7.175 6.826 9 13 2.825z"/></g></svg><svg width="49" height="49" viewBox="-1 -1 49 49" id="icon-facebook" x="1419" y="1446" xmlns="http://www.w3.org/2000/svg"><g fill="#FFF" fill-rule="evenodd"><path d="M23.5 1.785c-11.959 0-21.715 9.757-21.715 21.715S11.54 45.215 23.5 45.215c11.958 0 21.715-9.757 21.715-21.715S35.458 1.785 23.5 1.785M23.5 47C10.53 47 0 36.47 0 23.5S10.53 0 23.5 0 47 10.53 47 23.5 36.47 47 23.5 47"/><path d="M29 19.98h-4.032v-2.92c0-.896.934-1.104 1.37-1.104h2.604v-3.94L25.957 12c-4.072 0-5.002 2.938-5.002 4.822v3.157H18v4.06h2.955V35h4.013V24.04h3.41L29 19.98z"/></g></svg><svg width="27" height="21" viewBox="-1 -1 27 21" id="icon-hamburger-black" x="1468" y="1495" xmlns="http://www.w3.org/2000/svg"><path fill="none" stroke="#000" stroke-width="3" d="M0 9.5h25H0zm0-8h25H0zm0 16h25H0z"/></svg><svg width="27" height="21" viewBox="-1 -1 27 21" id="icon-hamburger-petrol" x="1495" y="1516" xmlns="http://www.w3.org/2000/svg"><path fill="none" stroke="#005b70" stroke-width="3" d="M0 9.5h25H0zm0-8h25H0zm0 16h25H0z"/></svg><svg width="35" height="35" viewBox="-1 -1 82 82" id="icon-information-33" x="1522" y="1537" xmlns="http://www.w3.org/2000/svg"><g fill="#FEFEFE" fill-rule="evenodd"><path d="M41.29 20.889c-10.333 0-18.74 8.426-18.74 18.784 0 3.56 2.349 8.852 2.373 8.905.354.791.382 1.995.063 2.8l-3.028 7.68 7.522-3.105c.805-.331 2.01-.31 2.802.052.053.025 5.405 2.451 9.008 2.451 10.333 0 18.74-8.426 18.74-18.783 0-10.358-8.407-18.784-18.74-18.784zM21.184 61.032a1.18 1.18 0 0 1-.842-.331c-.175-.173-.543-.666-.203-1.531l3.313-8.399c.156-.393.139-1.13-.033-1.516-.103-.23-2.52-5.666-2.52-9.582 0-11.27 9.148-20.437 20.391-20.437 11.243 0 20.39 9.167 20.39 20.437 0 11.27-9.147 20.437-20.39 20.437-3.963 0-9.461-2.494-9.693-2.6-.38-.174-1.102-.188-1.488-.028l-8.237 3.4c-.263.108-.492.15-.688.15z"/><path d="M35.468 38.181a.47.47 0 0 1-.468-.469v-2.818a.47.47 0 0 1 .468-.469h6.695a.47.47 0 0 1 .468.47v11.558c0 .257.21.47.466.47h1.476a.47.47 0 0 1 .467.468v2.8a.47.47 0 0 1-.467.468h-9.105a.47.47 0 0 1-.468-.468v-2.8a.47.47 0 0 1 .468-.469h1.525a.47.47 0 0 0 .468-.469V38.65a.47.47 0 0 0-.468-.469h-1.525zM37 30.194c0-.785.28-1.454.828-2.016a2.718 2.718 0 0 1 2.005-.841c.788 0 1.456.281 2.004.841.549.562.822 1.231.822 2.016a2.76 2.76 0 0 1-.828 2.004 2.746 2.746 0 0 1-1.998.83c-.771 0-1.433-.281-1.993-.842-.56-.555-.84-1.225-.84-1.992z"/></g></svg><svg width="82" height="82" viewBox="-1 -1 82 82" id="icon-information-80" x="1557" y="1572" xmlns="http://www.w3.org/2000/svg"><g fill="#FEFEFE" fill-rule="evenodd"><path d="M41.29 20.889c-10.333 0-18.74 8.426-18.74 18.784 0 3.56 2.349 8.852 2.373 8.905.354.791.382 1.995.063 2.8l-3.028 7.68 7.522-3.105c.805-.331 2.01-.31 2.802.052.053.025 5.405 2.451 9.008 2.451 10.333 0 18.74-8.426 18.74-18.783 0-10.358-8.407-18.784-18.74-18.784zM21.184 61.032a1.18 1.18 0 0 1-.842-.331c-.175-.173-.543-.666-.203-1.531l3.313-8.399c.156-.393.139-1.13-.033-1.516-.103-.23-2.52-5.666-2.52-9.582 0-11.27 9.148-20.437 20.391-20.437 11.243 0 20.39 9.167 20.39 20.437 0 11.27-9.147 20.437-20.39 20.437-3.963 0-9.461-2.494-9.693-2.6-.38-.174-1.102-.188-1.488-.028l-8.237 3.4c-.263.108-.492.15-.688.15z"/><path d="M35.468 38.181a.47.47 0 0 1-.468-.469v-2.818a.47.47 0 0 1 .468-.469h6.695a.47.47 0 0 1 .468.47v11.558c0 .257.21.47.466.47h1.476a.47.47 0 0 1 .467.468v2.8a.47.47 0 0 1-.467.468h-9.105a.47.47 0 0 1-.468-.468v-2.8a.47.47 0 0 1 .468-.469h1.525a.47.47 0 0 0 .468-.469V38.65a.47.47 0 0 0-.468-.469h-1.525zM37 30.194c0-.785.28-1.454.828-2.016a2.718 2.718 0 0 1 2.005-.841c.788 0 1.456.281 2.004.841.549.562.822 1.231.822 2.016a2.76 2.76 0 0 1-.828 2.004 2.746 2.746 0 0 1-1.998.83c-.771 0-1.433-.281-1.993-.842-.56-.555-.84-1.225-.84-1.992z"/></g></svg><svg width="35" height="35" viewBox="-1 -1 82 82" id="icon-language-33" x="1639" y="1654" xmlns="http://www.w3.org/2000/svg"><defs><path id="boa" d="M39.809.43C18.061.43.432 18.06.432 39.807c0 21.747 17.63 39.377 39.377 39.377 21.747 0 39.376-17.63 39.376-39.377"/><path id="boc" d="M39.809.43C18.061.43.432 18.06.432 39.807c0 21.747 17.63 39.377 39.377 39.377 21.747 0 39.376-17.63 39.376-39.377"/><path id="boe" d="M39.809.43C18.061.43.432 18.06.432 39.807c0 21.747 17.63 39.377 39.377 39.377 21.747 0 39.376-17.63 39.376-39.377"/></defs><g fill="none" fill-rule="evenodd" transform="translate(.347 -.18)"><path fill="#FEFEFE" d="M30.034 59.876H49.05v-1.633H30.034zm-5.041-30.269l-1.296 3.188h1.034c.179 0 .262-.19.262-.369v-2.82zm5.888 6.221H25.41c-.154 0-.416-.095-.416-.416v-.666c0-.155-.083-.298-.262-.298h-1.594l-.44 1.07c-.095.227-.167.31-.428.31h-1.82c-.214 0-.334-.095-.238-.393l3.486-7.934c.118-.261.237-.38.606-.38h6.245c.286 0 .322.154.322.321v1.475c0 .285-.214.32-.548.32h-2.248c-.261 0-.309.096-.309.191v.56c0 .19.13.273.261.273h2.035c.333 0 .392.166.38.321l-.107 1.452c-.036.428-.452.392-.583.392h-1.629c-.191 0-.334.107-.334.274v.654c0 .273.238.262.488.262h2.106c.523 0 .749.07.749.31v1.558c0 .237-.13.344-.25.344zm11.74-4.33l-1.368 1.511c.12.368.37.56.619.56.654 0 .75-.548.75-1.19v-.88zm-.737-2.141c-.69 0-.726.678-.726.928v.785l1.285-1.404a.632.632 0 0 0-.559-.309zm3.961-1.416l-.607.667c.203.404.321.892.321 1.486v3.034c0 2.914-2.652 2.855-3.675 2.855-.702 0-1.916-.012-2.736-.655l-.345.382c-.19.214-.417.201-.5.118l-.607-.63c-.142-.143-.13-.203.156-.512l.546-.594a2.982 2.982 0 0 1-.083-.762v-3.354c0-2.13 1.13-2.986 3.378-2.986.928 0 1.892.155 2.617.618.012 0 .37-.392.37-.392.213-.239.285-.322.606-.096l.57.405c.227.154.108.285-.011.416zm10.681-3.342c-.345 0-.619.32-.619.666 0 .344.274.666.619.666.344 0 .619-.322.619-.666 0-.345-.275-.666-.619-.666zm-.274 5.805l-.713 2.39h1.44l-.727-2.39zm.274-3.45c-.928 0-1.736-.76-1.736-1.689 0-.928.808-1.689 1.736-1.689.928 0 1.736.76 1.736 1.689 0 .928-.808 1.689-1.736 1.689zm3.711 8.874h-1.998c-.333 0-.357-.072-.428-.31l-.322-1.07h-2.45l-.321 1.07c-.071.238-.12.31-.429.31h-1.7c-.214 0-.333-.095-.239-.392l2.415-7.935c.083-.285.191-.38.607-.38h2.343c.417 0 .512.095.607.38l2.415 7.935c.119.38-.071.392-.5.392z"/><mask id="bob" fill="#fff"><use xlink:href="#boa"/></mask><path fill="#FEFEFE" d="M19.033 51.454L-3.505 35.638A15.599 15.599 0 0 0-1.6 31.473l22.52 15.803a.546.546 0 0 0-.08.164 14.402 14.402 0 0 1-1.808 4.014" mask="url(#bob)"/><mask id="bod" fill="#fff"><use xlink:href="#boc"/></mask><path fill="#FEFEFE" d="M21.435 56.361a.534.534 0 0 0-.215.352l-4.878-.766c1.153-.862 4.011-3.354 5.376-7.69l2.388 4.341a.534.534 0 0 0-.257.325c-.593 2.105-2.396 3.425-2.414 3.438" mask="url(#bod)"/><mask id="bof" fill="#fff"><use xlink:href="#boe"/></mask><path fill="#FEFEFE" d="M-4.12 36.516l22.537 15.816c-1.538 2.035-3.107 3.03-3.132 3.047a.535.535 0 0 0-.155.147L-7.383 39.728c.502-.345 1.9-1.396 3.263-3.212M24.718 53.71l2.14 3.89-4.399-.692c.589-.515 1.675-1.624 2.259-3.198" mask="url(#bof)"/></g></svg><svg width="82" height="82" viewBox="-1 -1 82 82" id="icon-language-80" x="1674" y="1689" xmlns="http://www.w3.org/2000/svg"><defs><path id="bpa" d="M39.809.43C18.061.43.432 18.06.432 39.807c0 21.747 17.63 39.377 39.377 39.377 21.747 0 39.376-17.63 39.376-39.377"/><path id="bpc" d="M39.809.43C18.061.43.432 18.06.432 39.807c0 21.747 17.63 39.377 39.377 39.377 21.747 0 39.376-17.63 39.376-39.377"/><path id="bpe" d="M39.809.43C18.061.43.432 18.06.432 39.807c0 21.747 17.63 39.377 39.377 39.377 21.747 0 39.376-17.63 39.376-39.377"/></defs><g fill="none" fill-rule="evenodd" transform="translate(.347 -.18)"><path fill="#FEFEFE" d="M30.034 59.876H49.05v-1.633H30.034zm-5.041-30.269l-1.296 3.188h1.034c.179 0 .262-.19.262-.369v-2.82zm5.888 6.221H25.41c-.154 0-.416-.095-.416-.416v-.666c0-.155-.083-.298-.262-.298h-1.594l-.44 1.07c-.095.227-.167.31-.428.31h-1.82c-.214 0-.334-.095-.238-.393l3.486-7.934c.118-.261.237-.38.606-.38h6.245c.286 0 .322.154.322.321v1.475c0 .285-.214.32-.548.32h-2.248c-.261 0-.309.096-.309.191v.56c0 .19.13.273.261.273h2.035c.333 0 .392.166.38.321l-.107 1.452c-.036.428-.452.392-.583.392h-1.629c-.191 0-.334.107-.334.274v.654c0 .273.238.262.488.262h2.106c.523 0 .749.07.749.31v1.558c0 .237-.13.344-.25.344zm11.74-4.33l-1.368 1.511c.12.368.37.56.619.56.654 0 .75-.548.75-1.19v-.88zm-.737-2.141c-.69 0-.726.678-.726.928v.785l1.285-1.404a.632.632 0 0 0-.559-.309zm3.961-1.416l-.607.667c.203.404.321.892.321 1.486v3.034c0 2.914-2.652 2.855-3.675 2.855-.702 0-1.916-.012-2.736-.655l-.345.382c-.19.214-.417.201-.5.118l-.607-.63c-.142-.143-.13-.203.156-.512l.546-.594a2.982 2.982 0 0 1-.083-.762v-3.354c0-2.13 1.13-2.986 3.378-2.986.928 0 1.892.155 2.617.618.012 0 .37-.392.37-.392.213-.239.285-.322.606-.096l.57.405c.227.154.108.285-.011.416zm10.681-3.342c-.345 0-.619.32-.619.666 0 .344.274.666.619.666.344 0 .619-.322.619-.666 0-.345-.275-.666-.619-.666zm-.274 5.805l-.713 2.39h1.44l-.727-2.39zm.274-3.45c-.928 0-1.736-.76-1.736-1.689 0-.928.808-1.689 1.736-1.689.928 0 1.736.76 1.736 1.689 0 .928-.808 1.689-1.736 1.689zm3.711 8.874h-1.998c-.333 0-.357-.072-.428-.31l-.322-1.07h-2.45l-.321 1.07c-.071.238-.12.31-.429.31h-1.7c-.214 0-.333-.095-.239-.392l2.415-7.935c.083-.285.191-.38.607-.38h2.343c.417 0 .512.095.607.38l2.415 7.935c.119.38-.071.392-.5.392z"/><mask id="bpb" fill="#fff"><use xlink:href="#bpa"/></mask><path fill="#FEFEFE" d="M19.033 51.454L-3.505 35.638A15.599 15.599 0 0 0-1.6 31.473l22.52 15.803a.546.546 0 0 0-.08.164 14.402 14.402 0 0 1-1.808 4.014" mask="url(#bpb)"/><mask id="bpd" fill="#fff"><use xlink:href="#bpc"/></mask><path fill="#FEFEFE" d="M21.435 56.361a.534.534 0 0 0-.215.352l-4.878-.766c1.153-.862 4.011-3.354 5.376-7.69l2.388 4.341a.534.534 0 0 0-.257.325c-.593 2.105-2.396 3.425-2.414 3.438" mask="url(#bpd)"/><mask id="bpf" fill="#fff"><use xlink:href="#bpe"/></mask><path fill="#FEFEFE" d="M-4.12 36.516l22.537 15.816c-1.538 2.035-3.107 3.03-3.132 3.047a.535.535 0 0 0-.155.147L-7.383 39.728c.502-.345 1.9-1.396 3.263-3.212M24.718 53.71l2.14 3.89-4.399-.692c.589-.515 1.675-1.624 2.259-3.198" mask="url(#bpf)"/></g></svg><svg width="41" height="40" viewBox="-1 -1 41 40" id="icon-logo" x="1756" y="1771" xmlns="http://www.w3.org/2000/svg"><path d="M17 14h22V0H17zm-3-7a7 7 0 0 1-7 7A7 7 0 1 1 7 0a7 7 0 0 1 7 7M0 23h14v-7H0zm0 15h14V25H0zm26-17.5a4.5 4.5 0 1 1-9 0 4.5 4.5 0 0 1 9 0m8-.241L39 15v23l-23-.173z" fill="#D34619" fill-rule="evenodd"/></svg><svg width="42" height="42" viewBox="-1 -1 42 42" id="icon-notification" x="1797" y="1811" xmlns="http://www.w3.org/2000/svg"><path fill="#005b70" fill-rule="evenodd" d="M18 14h4v-4h-4v4zm0 16h4V18h-4v12zm2-30C8.96 0 0 8.96 0 20s8.96 20 20 20 20-8.96 20-20S31.04 0 20 0z"/></svg><svg width="42" height="42" viewBox="-1 -1 42 42" id="icon-padlock" x="1839" y="1853" xmlns="http://www.w3.org/2000/svg"><g fill="none" fill-rule="evenodd"><circle cx="20" cy="20" r="20" fill="#016177"/><path fill="#f6dad4" d="M23.1 16h-6.2v-2c0-1.71 1.39-3.1 3.1-3.1 1.71 0 3.1 1.39 3.1 3.1v2zM20 25c-1.1 0-2-.9-2-2s.9-2 2-2 2 .9 2 2-.9 2-2 2zm6-9h-1v-2c0-2.76-2.24-5-5-5-2.759 0-5 2.24-5 5v2h-1c-1.1 0-2 .9-2 2v10c0 1.1.9 2 2 2h12c1.1 0 2-.9 2-2V18c0-1.1-.9-2-2-2z"/></g></svg><svg width="35" height="35" viewBox="-1 -1 82 82" id="icon-pause-33" x="1881" y="1895" xmlns="http://www.w3.org/2000/svg"><defs><path id="bta" d="M0 .43h79.565v78.754H0z"/></defs><g fill="none" fill-rule="evenodd"><path fill="#FEFEFE" d="M40.774 21.302c-9.967 0-18.076 8.026-18.076 17.891 0 9.865 8.11 17.891 18.076 17.891 9.967 0 18.076-8.026 18.076-17.89 0-9.866-8.109-17.892-18.076-17.892m0 37.415c-10.877 0-19.725-8.759-19.725-19.524S29.897 19.67 40.774 19.67 60.5 28.428 60.5 39.193s-8.848 19.524-19.725 19.524"/><path fill="#FEFEFE" d="M35.939 47.741h-.12c-1.379 0-2.495-1.105-2.495-2.468V33.092c0-1.364 1.116-2.47 2.494-2.47h.12c1.378 0 2.495 1.106 2.495 2.47v12.18c0 1.364-1.117 2.47-2.494 2.47m9.791-.001h-.12c-1.378 0-2.495-1.105-2.495-2.468V33.092c0-1.364 1.117-2.47 2.495-2.47h.12c1.378 0 2.495 1.106 2.495 2.47v12.18c0 1.364-1.117 2.47-2.494 2.47"/></g></svg><svg width="82" height="82" viewBox="-1 -1 82 82" id="icon-pause-80" x="1916" y="1930" xmlns="http://www.w3.org/2000/svg"><defs><path id="bua" d="M0 .43h79.565v78.754H0z"/></defs><g fill="none" fill-rule="evenodd"><path fill="#FEFEFE" d="M40.774 21.302c-9.967 0-18.076 8.026-18.076 17.891 0 9.865 8.11 17.891 18.076 17.891 9.967 0 18.076-8.026 18.076-17.89 0-9.866-8.109-17.892-18.076-17.892m0 37.415c-10.877 0-19.725-8.759-19.725-19.524S29.897 19.67 40.774 19.67 60.5 28.428 60.5 39.193s-8.848 19.524-19.725 19.524"/><path fill="#FEFEFE" d="M35.939 47.741h-.12c-1.379 0-2.495-1.105-2.495-2.468V33.092c0-1.364 1.116-2.47 2.494-2.47h.12c1.378 0 2.495 1.106 2.495 2.47v12.18c0 1.364-1.117 2.47-2.494 2.47m9.791-.001h-.12c-1.378 0-2.495-1.105-2.495-2.468V33.092c0-1.364 1.117-2.47 2.495-2.47h.12c1.378 0 2.495 1.106 2.495 2.47v12.18c0 1.364-1.117 2.47-2.494 2.47"/></g></svg><svg width="49" height="35" viewBox="-1 -1 49 35" id="icon-people" x="1998" y="2012" xmlns="http://www.w3.org/2000/svg"><path fill="#007A94" fill-rule="evenodd" d="M16.435 19C10.965 19 0 21.73 0 27.167V33h16.435v-5.25c0-1.983.775-5.46 5.565-8.097-2.043-.42-4.015-.653-5.565-.653M34 21c-4.325 0-13 2.208-13 6.6V33h26v-5.4c0-4.392-8.675-6.6-13-6.6m-16.988-7A6.977 6.977 0 0 0 24 7c0-3.873-3.109-7-6.988-7A6.996 6.996 0 0 0 10 7c0 3.873 3.132 7 7.012 7m17.499 2C37.553 16 40 13.312 40 10s-2.447-6-5.489-6S29 6.688 29 10s2.469 6 5.511 6"/></svg><svg width="35" height="35" viewBox="-1 -1 82 82" id="icon-play-33" x="2047" y="2047" xmlns="http://www.w3.org/2000/svg"><g fill="#FEFEFE" fill-rule="evenodd"><path d="M41 22.672c-10.106 0-18.328 8.222-18.328 18.328S30.894 59.328 41 59.328 59.328 51.106 59.328 41 51.106 22.672 41 22.672M41 61c-11.028 0-20-8.972-20-20s8.972-20 20-20 20 8.972 20 20-8.972 20-20 20"/><path d="M47.643 39.667a1.15 1.15 0 0 1 0 1.666l-9.777 9.404c-.476.458-.866.303-.866-.345V30.608c0-.648.39-.803.866-.345l9.777 9.404z"/></g></svg><svg width="82" height="82" viewBox="-1 -1 82 82" id="icon-play-80" x="2082" y="2082" xmlns="http://www.w3.org/2000/svg"><g fill="#FEFEFE" fill-rule="evenodd"><path d="M41 22.672c-10.106 0-18.328 8.222-18.328 18.328S30.894 59.328 41 59.328 59.328 51.106 59.328 41 51.106 22.672 41 22.672M41 61c-11.028 0-20-8.972-20-20s8.972-20 20-20 20 8.972 20 20-8.972 20-20 20"/><path d="M47.643 39.667a1.15 1.15 0 0 1 0 1.666l-9.777 9.404c-.476.458-.866.303-.866-.345V30.608c0-.648.39-.803.866-.345l9.777 9.404z"/></g></svg><svg width="35" height="35" viewBox="-1 -1 82 82" id="icon-record-33" x="2164" y="2164" xmlns="http://www.w3.org/2000/svg"><defs><path id="bya" d="M0 .43h79.565v78.754H0z"/></defs><g fill="none" fill-rule="evenodd"><path fill="#FEFEFE" d="M40.81 21.335c-9.967 0-18.076 8.027-18.076 17.892 0 9.864 8.11 17.89 18.076 17.89 9.967 0 18.076-8.026 18.076-17.89 0-9.865-8.109-17.892-18.076-17.892m0 37.415c-10.877 0-19.725-8.758-19.725-19.523 0-10.766 8.848-19.524 19.725-19.524s19.726 8.758 19.726 19.524c0 10.765-8.85 19.523-19.726 19.523"/><path fill="#FEFEFE" d="M49.7 39.188c0 4.855-3.976 8.792-8.883 8.792-4.905 0-8.883-3.937-8.883-8.792 0-4.856 3.978-8.793 8.883-8.793 4.907 0 8.884 3.937 8.884 8.793"/></g></svg><svg width="82" height="82" viewBox="-1 -1 82 82" id="icon-record-80" x="2199" y="2199" xmlns="http://www.w3.org/2000/svg"><defs><path id="bza" d="M0 .43h79.565v78.754H0z"/></defs><g fill="none" fill-rule="evenodd"><path fill="#FEFEFE" d="M40.81 21.335c-9.967 0-18.076 8.027-18.076 17.892 0 9.864 8.11 17.89 18.076 17.89 9.967 0 18.076-8.026 18.076-17.89 0-9.865-8.109-17.892-18.076-17.892m0 37.415c-10.877 0-19.725-8.758-19.725-19.523 0-10.766 8.848-19.524 19.725-19.524s19.726 8.758 19.726 19.524c0 10.765-8.85 19.523-19.726 19.523"/><path fill="#FEFEFE" d="M49.7 39.188c0 4.855-3.976 8.792-8.883 8.792-4.905 0-8.883-3.937-8.883-8.792 0-4.856 3.978-8.793 8.883-8.793 4.907 0 8.884 3.937 8.884 8.793"/></g></svg><svg width="19" height="19" viewBox="-1 -1 19 19" id="icon-search-tundora-17" x="2281" y="2281" xmlns="http://www.w3.org/2000/svg"><path fill="#4C4C4C" fill-rule="evenodd" d="M11.964 10.714l4.703 4.703v1.25h-1.25l-4.703-4.703a6.667 6.667 0 1 1 1.25-1.25zm-5.297.953a5 5 0 1 0 0-10 5 5 0 0 0 0 10z"/></svg><svg width="19" height="19" viewBox="-1 -1 19 19" id="icon-search-white-17" x="2300" y="2300" xmlns="http://www.w3.org/2000/svg"><path fill="#FFF" fill-rule="evenodd" d="M11.964 10.714l4.703 4.703v1.25h-1.25l-4.703-4.703a6.667 6.667 0 1 1 1.25-1.25zm-5.297.953a5 5 0 1 0 0-10 5 5 0 0 0 0 10z"/></svg><svg width="31" height="31" viewBox="-1 -1 31 31" id="icon-search-white-29" x="2319" y="2319" xmlns="http://www.w3.org/2000/svg"><g fill="#FFF" fill-rule="evenodd"><path d="M12 23.53c-6.627 0-12-5.268-12-11.765C0 5.267 5.373 0 12 0s12 5.267 12 11.765c0 6.497-5.373 11.764-12 11.764zm0-2.942c4.97 0 9-3.95 9-8.823S16.97 2.94 12 2.94s-9 3.95-9 8.824c0 4.873 4.03 8.823 9 8.823z"/><path d="M26.8 29H29v-2.2L20.2 18 18 20.2z"/></g></svg><svg width="35" height="35" viewBox="-1 -1 82 82" id="icon-society-33" x="2350" y="2350" xmlns="http://www.w3.org/2000/svg"><defs><path id="cda" d="M0 0h79.565v79.565H0z"/><path id="cdc" d="M-12.371 79.65h92.569V0h-92.57z"/><path id="cde" d="M39.783 0C17.811 0 0 17.81 0 39.782c0 21.972 17.811 39.783 39.783 39.783 21.971 0 39.782-17.81 39.782-39.783"/><path id="cdg" d="M39.783 0C17.811 0 0 17.81 0 39.782c0 21.972 17.811 39.783 39.783 39.783 21.971 0 39.782-17.81 39.782-39.783"/><path id="cdi" d="M39.783 0C17.811 0 0 17.81 0 39.782c0 21.972 17.811 39.783 39.783 39.783 21.971 0 39.782-17.81 39.782-39.783"/><path id="cdk" d="M40 0C17.908 0 0 17.908 0 40s17.908 40 40 40 40-17.908 40-40"/></defs><g fill="none" fill-rule="evenodd" transform="translate(.01 .586)"><mask id="cdb" fill="#fff"><use xlink:href="#cda"/></mask><path fill="#FEFEFE" d="M37.056 28.041h-1.592v11.125h1.592v7.902h5.397v-7.902h1.59V28.041h-1.59zm2.894-.924a2.837 2.837 0 1 0-.001-5.674 2.837 2.837 0 0 0 0 5.674M28.041 29.69v8.237h1.179v5.849h3.995V29.69H29.22zm3.749-4.948a2.1 2.1 0 1 0 0 4.199 2.1 2.1 0 0 0 0-4.199m-8.697 6.598v5.828h.834v4.14h2.827V31.34h-2.827zm2.311-4.124a1.486 1.486 0 1 0 0 2.973 1.486 1.486 0 0 0 0-2.973M47.01 29.69v14.086h3.995v-5.85h1.178v-8.235h-1.178zm2.1-.748a2.1 2.1 0 1 0 0-4.2 2.1 2.1 0 0 0 0 4.2m7.325 2.398h-2.827v9.968h2.827v-4.14h.834V31.34zm-1.341-1.151a1.486 1.486 0 1 0 0-2.973 1.486 1.486 0 0 0 0 2.973" mask="url(#cdb)"/><mask id="cdd" fill="#fff"><use xlink:href="#cdc"/></mask><path fill="#FEFEFE" d="M29.69 59.381h19.211v-1.649h-19.21z" mask="url(#cdd)"/><mask id="cdf" fill="#fff"><use xlink:href="#cde"/></mask><path fill="#FEFEFE" d="M18.647 51.527l-22.77-15.979a15.76 15.76 0 0 0 1.925-4.208l22.751 15.966a.552.552 0 0 0-.08.166 14.55 14.55 0 0 1-1.826 4.055" mask="url(#cdf)"/><mask id="cdh" fill="#fff"><use xlink:href="#cdg"/></mask><path fill="#FEFEFE" d="M21.64 56.023a.54.54 0 0 0-.217.356l-4.928-.775c1.164-.87 4.053-3.388 5.432-7.769l2.412 4.386a.54.54 0 0 0-.26.328c-.6 2.126-2.42 3.46-2.439 3.474" mask="url(#cdh)"/><mask id="cdj" fill="#fff"><use xlink:href="#cdi"/></mask><path fill="#FEFEFE" d="M-4.126 36.289l22.77 15.978c-1.555 2.056-3.14 3.062-3.165 3.079a.54.54 0 0 0-.157.148l-22.745-15.96c.507-.349 1.919-1.41 3.297-3.245" mask="url(#cdj)"/><mask id="cdl" fill="#fff"><use xlink:href="#cdk"/></mask><path fill="#FEFEFE" d="M24.55 53.608l2.162 3.93-4.444-.698c.595-.52 1.692-1.642 2.282-3.232" mask="url(#cdl)"/></g></svg><svg width="82" height="82" viewBox="-1 -1 82 82" id="icon-society-80" x="2385" y="2385" xmlns="http://www.w3.org/2000/svg"><defs><path id="cea" d="M0 0h79.565v79.565H0z"/><path id="cec" d="M-12.371 79.65h92.569V0h-92.57z"/><path id="cee" d="M39.783 0C17.811 0 0 17.81 0 39.782c0 21.972 17.811 39.783 39.783 39.783 21.971 0 39.782-17.81 39.782-39.783"/><path id="ceg" d="M39.783 0C17.811 0 0 17.81 0 39.782c0 21.972 17.811 39.783 39.783 39.783 21.971 0 39.782-17.81 39.782-39.783"/><path id="cei" d="M39.783 0C17.811 0 0 17.81 0 39.782c0 21.972 17.811 39.783 39.783 39.783 21.971 0 39.782-17.81 39.782-39.783"/><path id="cek" d="M40 0C17.908 0 0 17.908 0 40s17.908 40 40 40 40-17.908 40-40"/></defs><g fill="none" fill-rule="evenodd" transform="translate(.01 .586)"><mask id="ceb" fill="#fff"><use xlink:href="#cea"/></mask><path fill="#FEFEFE" d="M37.056 28.041h-1.592v11.125h1.592v7.902h5.397v-7.902h1.59V28.041h-1.59zm2.894-.924a2.837 2.837 0 1 0-.001-5.674 2.837 2.837 0 0 0 0 5.674M28.041 29.69v8.237h1.179v5.849h3.995V29.69H29.22zm3.749-4.948a2.1 2.1 0 1 0 0 4.199 2.1 2.1 0 0 0 0-4.199m-8.697 6.598v5.828h.834v4.14h2.827V31.34h-2.827zm2.311-4.124a1.486 1.486 0 1 0 0 2.973 1.486 1.486 0 0 0 0-2.973M47.01 29.69v14.086h3.995v-5.85h1.178v-8.235h-1.178zm2.1-.748a2.1 2.1 0 1 0 0-4.2 2.1 2.1 0 0 0 0 4.2m7.325 2.398h-2.827v9.968h2.827v-4.14h.834V31.34zm-1.341-1.151a1.486 1.486 0 1 0 0-2.973 1.486 1.486 0 0 0 0 2.973" mask="url(#ceb)"/><mask id="ced" fill="#fff"><use xlink:href="#cec"/></mask><path fill="#FEFEFE" d="M29.69 59.381h19.211v-1.649h-19.21z" mask="url(#ced)"/><mask id="cef" fill="#fff"><use xlink:href="#cee"/></mask><path fill="#FEFEFE" d="M18.647 51.527l-22.77-15.979a15.76 15.76 0 0 0 1.925-4.208l22.751 15.966a.552.552 0 0 0-.08.166 14.55 14.55 0 0 1-1.826 4.055" mask="url(#cef)"/><mask id="ceh" fill="#fff"><use xlink:href="#ceg"/></mask><path fill="#FEFEFE" d="M21.64 56.023a.54.54 0 0 0-.217.356l-4.928-.775c1.164-.87 4.053-3.388 5.432-7.769l2.412 4.386a.54.54 0 0 0-.26.328c-.6 2.126-2.42 3.46-2.439 3.474" mask="url(#ceh)"/><mask id="cej" fill="#fff"><use xlink:href="#cei"/></mask><path fill="#FEFEFE" d="M-4.126 36.289l22.77 15.978c-1.555 2.056-3.14 3.062-3.165 3.079a.54.54 0 0 0-.157.148l-22.745-15.96c.507-.349 1.919-1.41 3.297-3.245" mask="url(#cej)"/><mask id="cel" fill="#fff"><use xlink:href="#cek"/></mask><path fill="#FEFEFE" d="M24.55 53.608l2.162 3.93-4.444-.698c.595-.52 1.692-1.642 2.282-3.232" mask="url(#cel)"/></g></svg><svg width="35" height="35" viewBox="-1 -1 82 82" id="icon-teacher-33" x="2467" y="2467" xmlns="http://www.w3.org/2000/svg"><defs><path id="cfa" d="M0 .435h79.565V80H0z"/><path id="cfb" d="M0 80.39h79.565V.825H0z"/></defs><g fill="none" fill-rule="evenodd" transform="translate(.01 .01)"><path fill="#FEFEFE" d="M20.092 43.757v2.884h3.021v12.357h18.675V46.641h6.728v12.357h2.882V46.641h2.61v-2.884zm23.28-9.2H31.151v7.964h12.221zm-6.11-.732a3.661 3.661 0 1 0 0-7.323 3.661 3.661 0 0 0 0 7.323m23.01-10.617c0-3.68-2.114-6.665-7.684-6.665s-7.685 2.985-7.685 6.665c0 2.272.806 4.278 2.731 5.482-.135.878-.41 1.903-.962 2.716a.276.276 0 0 0 .309.42c1.141-.351 3.093-1.057 4.07-2.036.48.055.991.084 1.537.084 5.57 0 7.684-2.985 7.684-6.666"/><mask id="cfc" fill="#fff"><use xlink:href="#cfb"/></mask><path fill="#939598" d="M48.106 24.924h9.605v-1.649h-9.605zm0-2.4h9.605v-1.65h-9.605z" mask="url(#cfc)"/></g></svg><svg width="82" height="82" viewBox="-1 -1 82 82" id="icon-teacher-80" x="2502" y="2502" xmlns="http://www.w3.org/2000/svg"><defs><path id="cga" d="M0 .435h79.565V80H0z"/><path id="cgb" d="M0 80.39h79.565V.825H0z"/></defs><g fill="none" fill-rule="evenodd" transform="translate(.01 .01)"><path fill="#FEFEFE" d="M20.092 43.757v2.884h3.021v12.357h18.675V46.641h6.728v12.357h2.882V46.641h2.61v-2.884zm23.28-9.2H31.151v7.964h12.221zm-6.11-.732a3.661 3.661 0 1 0 0-7.323 3.661 3.661 0 0 0 0 7.323m23.01-10.617c0-3.68-2.114-6.665-7.684-6.665s-7.685 2.985-7.685 6.665c0 2.272.806 4.278 2.731 5.482-.135.878-.41 1.903-.962 2.716a.276.276 0 0 0 .309.42c1.141-.351 3.093-1.057 4.07-2.036.48.055.991.084 1.537.084 5.57 0 7.684-2.985 7.684-6.666"/><mask id="cgc" fill="#fff"><use xlink:href="#cgb"/></mask><path fill="#939598" d="M48.106 24.924h9.605v-1.649h-9.605zm0-2.4h9.605v-1.65h-9.605z" mask="url(#cgc)"/></g></svg><svg width="35" height="35" viewBox="-1 -1 82 82" id="icon-tick-33" x="2584" y="2584" xmlns="http://www.w3.org/2000/svg"><defs><path id="cha" d="M0 0h80v80H0z"/></defs><g fill="none" fill-rule="evenodd" transform="translate(0 .473)"><mask id="chb" fill="#fff"><use xlink:href="#cha"/></mask><path fill="#FEFEFE" d="M40 21.672c-10.106 0-18.328 8.222-18.328 18.328S29.894 58.328 40 58.328 58.328 50.106 58.328 40 50.106 21.672 40 21.672M40 60c-11.028 0-20-8.972-20-20s8.972-20 20-20 20 8.972 20 20-8.972 20-20 20" mask="url(#chb)"/><path fill="#FEFEFE" d="M38.82 40.327a1.013 1.013 0 0 1-1.546-.032l-3.294-3.856a1.166 1.166 0 0 0-1.64-.128l-1.935 1.655a1.17 1.17 0 0 0-.128 1.641l6.85 8.018a1.013 1.013 0 0 0 1.546.032l12.018-12.97a1.17 1.17 0 0 0-.061-1.645l-1.866-1.733a1.165 1.165 0 0 0-1.644.063l-8.3 8.955z" mask="url(#chb)"/></g></svg><svg width="82" height="82" viewBox="-1 -1 82 82" id="icon-tick-80" x="2619" y="2619" xmlns="http://www.w3.org/2000/svg"><defs><path id="cia" d="M0 0h80v80H0z"/></defs><g fill="none" fill-rule="evenodd" transform="translate(0 .473)"><mask id="cib" fill="#fff"><use xlink:href="#cia"/></mask><path fill="#FEFEFE" d="M40 21.672c-10.106 0-18.328 8.222-18.328 18.328S29.894 58.328 40 58.328 58.328 50.106 58.328 40 50.106 21.672 40 21.672M40 60c-11.028 0-20-8.972-20-20s8.972-20 20-20 20 8.972 20 20-8.972 20-20 20" mask="url(#cib)"/><path fill="#FEFEFE" d="M38.82 40.327a1.013 1.013 0 0 1-1.546-.032l-3.294-3.856a1.166 1.166 0 0 0-1.64-.128l-1.935 1.655a1.17 1.17 0 0 0-.128 1.641l6.85 8.018a1.013 1.013 0 0 0 1.546.032l12.018-12.97a1.17 1.17 0 0 0-.061-1.645l-1.866-1.733a1.165 1.165 0 0 0-1.644.063l-8.3 8.955z" mask="url(#cib)"/></g></svg><svg width="11" height="11" viewBox="-1 -1 11 11" id="icon-tick-9" x="2701" y="2701" xmlns="http://www.w3.org/2000/svg"><path fill="#FFF" fill-rule="evenodd" d="M2.108 7.495L3.483 9l1.38-1.505L9 2.983 8.97 0 3.483 5.99 0 2.187l.036 3.05z"/></svg><svg width="49" height="49" viewBox="-1 -1 49 49" id="icon-twitter" x="2712" y="2712" xmlns="http://www.w3.org/2000/svg"><g fill="#FFF" fill-rule="evenodd"><path d="M34.237 14.363c-.88.545-1.818.968-2.874 1.15C30.54 14.605 29.368 14 28.077 14c-2.464 0-4.517 2.118-4.517 4.78 0 .363.058.726.117 1.09-3.754-.182-7.04-2.118-9.27-4.962-.41.726-.586 1.512-.586 2.42 0 1.634.822 3.086 1.995 3.994-.762 0-1.408-.242-2.053-.605v.06c0 2.3 1.525 4.236 3.637 4.66a3.676 3.676 0 0 1-1.173.181c-.294 0-.587 0-.822-.06.587 1.875 2.23 3.267 4.224 3.328-1.525 1.27-3.461 2.057-5.573 2.057-.352 0-.704 0-1.056-.06C14.994 32.212 17.341 33 19.923 33c8.272 0 12.848-7.26 12.848-13.554v-.605A8.9 8.9 0 0 0 35 16.361c-.821.362-1.701.664-2.581.725.762-.726 1.466-1.634 1.818-2.723"/><path d="M23.5 1.785c-11.958 0-21.715 9.757-21.715 21.715S11.542 45.215 23.5 45.215c11.959 0 21.715-9.757 21.715-21.715S35.46 1.785 23.5 1.785M23.5 47C10.53 47 0 36.47 0 23.5S10.53 0 23.5 0 47 10.53 47 23.5 36.47 47 23.5 47"/></g></svg><svg width="42" height="43" viewBox="-1 -1 42 43" id="test-deg-selv-anchor" x="2761" y="2761" xmlns="http://www.w3.org/2000/svg"><g fill="none" fill-rule="evenodd" transform="translate(0 .167)"><circle cx="20" cy="20" r="20" fill="#CED025"/><g fill="#000"><path d="M26.893 26.323h1.989v-13.33h-1.989z"/><path d="M12.184 14.98h16.31v-1.988h-16.31zm3.261 7.78l4.918 4.92 1.407-1.406-4.92-4.92z"/><path d="M18.958 26.274l1.405 1.405 4.92-4.92-1.406-1.405z"/><path d="M19.08 17.68v7.395l2.567-.092-.001-7.303zm6.203 9.999h3.599v-1.988h-3.599zM11.76 26.323h1.99v-13.33h-1.99z"/><path d="M11.76 27.679h3.684v-1.988H11.76z"/></g></g></svg><svg width="37" height="37" viewBox="-1 -1 42 43" id="test-deg-selv-anchor-small" x="2803" y="2804" xmlns="http://www.w3.org/2000/svg"><g fill="none" fill-rule="evenodd" transform="translate(0 .167)"><circle cx="20" cy="20" r="20" fill="#CED025"/><g fill="#000"><path d="M26.893 26.323h1.989v-13.33h-1.989z"/><path d="M12.184 14.98h16.31v-1.988h-16.31zm3.261 7.78l4.918 4.92 1.407-1.406-4.92-4.92z"/><path d="M18.958 26.274l1.405 1.405 4.92-4.92-1.406-1.405z"/><path d="M19.08 17.68v7.395l2.567-.092-.001-7.303zm6.203 9.999h3.599v-1.988h-3.599zM11.76 26.323h1.99v-13.33h-1.99z"/><path d="M11.76 27.679h3.684v-1.988H11.76z"/></g></g></svg><svg width="56" height="58" viewBox="-1 -1 56 58" id="test-deg-selv-buddies" x="2840" y="2841" xmlns="http://www.w3.org/2000/svg"><defs><path d="M15.4 24.4c15.4-.6 14.4 2.3 14.4-7.2S23.353 0 15.4 0 1 7.7 1 17.2 0 25 15.4 24.4z" id="cna"/><path d="M15.4 24.4c15.4-.6 14.4 2.3 14.4-7.2S23.353 0 15.4 0 1 7.7 1 17.2 0 25 15.4 24.4z" id="cnc"/><ellipse id="cne" cx="1.5" cy="4" rx="1.5" ry="4"/><ellipse id="cng" cx="12.492" cy="14.064" rx="11.52" ry="13.76"/><ellipse id="cni" cx="11.939" cy="13.955" rx="11.52" ry="13.76"/></defs><g fill="none" fill-rule="evenodd"><g transform="translate(24 30)"><mask id="cnb" fill="#fff"><use xlink:href="#cna"/></mask><use fill="#00B8C6" xlink:href="#cna"/><path fill="#00A6B7" mask="url(#cnb)" d="M15.4 0h14v24h-14z"/></g><path fill="#FFF" d="M39.5 42L34 30h11z"/><path d="M20.255 42.352c8.284 0 15-3.03 15-6.768s-6.716-6.768-15-6.768c-4.907 0-9.538-1.28-12.255.413-1.87 1.164-.64 5.083-.745 6.355-.255 3.12 4.716 6.768 13 6.768z" fill="#00B8C6"/><g transform="translate(0 31)"><mask id="cnd" fill="#fff"><use xlink:href="#cnc"/></mask><use fill="#2B6382" xlink:href="#cnc"/><path fill="#003655" mask="url(#cnd)" d="M15.4 0h14v24h-14z"/></g><path fill="#FFF" d="M15.5 43L10 31h11z"/><ellipse fill="#FFBE89" cx="5.755" cy="33.695" rx="3.5" ry="4"/><g transform="translate(6 29.695)"><mask id="cnf" fill="#fff"><use xlink:href="#cne"/></mask><use fill="#DA9D73" xlink:href="#cne"/><path fill="#DA9D73" mask="url(#cnf)" d="M-1 .305h4v8h-4z"/></g><path d="M38.013 2.073c5.844-.511 11.124 4.284 12.431 10.968.597.02 1.099.483 1.152 1.094l.28 3.188a1.2 1.2 0 0 1-1.304 1.3c-.712 4.733-3.508 8.631-7.328 10.182l.114 1.309a1.2 1.2 0 0 1-1.091 1.3l-3.985.348a1.2 1.2 0 0 1-1.3-1.09l-.133-1.529c-3.74-1.069-6.882-4.293-8.326-8.575l-.053.007a1.2 1.2 0 0 1-1.3-1.09l-.28-3.189a1.2 1.2 0 0 1 .785-1.232c.114-6.824 4.486-12.48 10.338-12.991z" fill="#FFBE89"/><g transform="rotate(-5 45.504 -291.074)"><mask id="cnh" fill="#fff"><use xlink:href="#cng"/></mask><use fill="#FFBE89" xlink:href="#cng"/><path fill="#DA9D73" mask="url(#cnh)" d="M12.492.304h17.92v27.52h-17.92z"/></g><g><path d="M17.367 3.024c5.852.41 10.317 5.971 10.562 12.778.586.112 1.01.649.967 1.26l-.224 3.193a1.2 1.2 0 0 1-1.49 1.08c-1.444 4.563-4.815 7.976-8.831 8.91l-.092 1.31a1.2 1.2 0 0 1-1.281 1.114l-3.99-.279a1.2 1.2 0 0 1-1.114-1.28l.108-1.531c-3.527-1.64-6.125-5.317-6.882-9.772l-.054-.002a1.2 1.2 0 0 1-1.113-1.28l.223-3.193a1.2 1.2 0 0 1 .967-1.094c1.18-6.722 6.383-11.624 12.244-11.214z" fill="#FFBE89"/><g transform="rotate(4 -25.854 79.318)"><mask id="cnj" fill="#fff"><use xlink:href="#cni"/></mask><use fill="#FFBE89" xlink:href="#cni"/><path fill="#DA9D73" mask="url(#cnj)" d="M11.939.195h17.92v27.52h-17.92z"/></g></g><rect fill="#022E53" x="30" y="1" width="18" height="6" rx="3"/><path d="M22 1c.627 0 1.209.192 1.69.52A3 3 0 0 1 26.3 3.3l4.881 10.962a3 3 0 1 1-5.481 2.44l-3.698-8.304c-.294-.05-.579-.15-.84-.298L21 8c-1.94-1.293-7.743-.967-9.817-.084L11 8a2.758 2.758 0 0 1-.949.278L6.301 16.7a3 3 0 0 1-5.482-2.44L5.699 3.3A3 3 0 0 1 8.312 1.52 2.98 2.98 0 0 1 10 1h12z" fill="#022E53"/></g></svg><svg width="42" height="42" viewBox="-1 -1 37 37" id="test-deg-selv-external" x="2896" y="2899" xmlns="http://www.w3.org/2000/svg"><g fill="none" fill-rule="evenodd"><circle cx="17.5" cy="17.5" r="17.5" fill="#CED025"/><g fill="#000"><path d="M21.625 17.615h1.604V12h-1.604z"/><path d="M17.615 13.604h5.614V12h-5.614zm-5.615 0h4.01V12H12zm9.625 9.626h1.604v-4.011h-1.604z"/><path d="M12 23.23h11.23v-1.605H12z"/><path d="M12 21.955h1.605v-9.153H12zm8.962-9.153l-4.952 4.953 1.465 1.464 4.952-4.953z"/></g></g></svg><svg width="37" height="37" viewBox="-1 -1 37 37" id="test-deg-selv-external-small" x="2938" y="2941" xmlns="http://www.w3.org/2000/svg"><g fill="none" fill-rule="evenodd"><circle cx="17.5" cy="17.5" r="17.5" fill="#CED025"/><g fill="#000"><path d="M21.625 17.615h1.604V12h-1.604z"/><path d="M17.615 13.604h5.614V12h-5.614zm-5.615 0h4.01V12H12zm9.625 9.626h1.604v-4.011h-1.604z"/><path d="M12 23.23h11.23v-1.605H12z"/><path d="M12 21.955h1.605v-9.153H12zm8.962-9.153l-4.952 4.953 1.465 1.464 4.952-4.953z"/></g></g></svg><svg width="50" height="76" viewBox="-1 -1 50 76" id="test-deg-selv-jigsaw" x="2975" y="2978" xmlns="http://www.w3.org/2000/svg"><defs><linearGradient x1="50%" y1="0%" x2="50%" y2="94.73%" id="cqc"><stop stop-color="#62CEEC" offset="0%"/><stop stop-color="#149DC4" offset="100%"/></linearGradient><path d="M2.001 0A1.999 1.999 0 0 0 0 2V72.79c0 1.105.771 1.527 1.707.953l20.586-12.637c.943-.58 2.478-.575 3.414 0l20.586 12.637c.943.578 1.707.155 1.707-.953V2a2 2 0 0 0-2.001-2H2z" id="cqb"/><filter x="-25%" y="-9.5%" width="145.8%" height="129.7%" filterUnits="objectBoundingBox" id="cqa"><feOffset dx="-1" dy="4" in="SourceAlpha" result="shadowOffsetOuter1"/><feGaussianBlur stdDeviation="3" in="shadowOffsetOuter1" result="shadowBlurOuter1"/><feColorMatrix values="0 0 0 0 0.117647059 0 0 0 0 0.149019608 0 0 0 0 0.176470588 0 0 0 0.2 0" in="shadowBlurOuter1"/></filter></defs><g fill="none" fill-rule="evenodd"><use fill="#000" filter="url(#cqa)" xlink:href="#cqb"/><use fill="url(#cqc)" xlink:href="#cqb"/><path d="M18.01 29.772a3.68 3.68 0 0 0-6.283-2.643 3.681 3.681 0 0 0 2.642 6.283l-5.215 5.215a.528.528 0 0 0 0 .746l14.473 14.472c.206.207.54.207.746 0l14.473-14.473a.527.527 0 0 0 0-.745l-5.215-5.215a3.68 3.68 0 1 1-3.64-3.64l-5.618-5.617a.527.527 0 0 0-.745 0l-.947.946-4.246 4.275-.426.396z" stroke="#FFF"/></g></svg><svg width="38" height="58" viewBox="-1 -1 50 76" id="test-deg-selv-jigsaw-small" x="3025" y="3054" xmlns="http://www.w3.org/2000/svg"><defs><linearGradient x1="50%" y1="0%" x2="50%" y2="94.73%" id="crc"><stop stop-color="#62CEEC" offset="0%"/><stop stop-color="#149DC4" offset="100%"/></linearGradient><path d="M2.001 0A1.999 1.999 0 0 0 0 2V72.79c0 1.105.771 1.527 1.707.953l20.586-12.637c.943-.58 2.478-.575 3.414 0l20.586 12.637c.943.578 1.707.155 1.707-.953V2a2 2 0 0 0-2.001-2H2z" id="crb"/><filter x="-25%" y="-9.5%" width="145.8%" height="129.7%" filterUnits="objectBoundingBox" id="cra"><feOffset dx="-1" dy="4" in="SourceAlpha" result="shadowOffsetOuter1"/><feGaussianBlur stdDeviation="3" in="shadowOffsetOuter1" result="shadowBlurOuter1"/><feColorMatrix values="0 0 0 0 0.117647059 0 0 0 0 0.149019608 0 0 0 0 0.176470588 0 0 0 0.2 0" in="shadowBlurOuter1"/></filter></defs><g fill="none" fill-rule="evenodd"><use fill="#000" filter="url(#cra)" xlink:href="#crb"/><use fill="url(#crc)" xlink:href="#crb"/><path d="M18.01 29.772a3.68 3.68 0 0 0-6.283-2.643 3.681 3.681 0 0 0 2.642 6.283l-5.215 5.215a.528.528 0 0 0 0 .746l14.473 14.472c.206.207.54.207.746 0l14.473-14.473a.527.527 0 0 0 0-.745l-5.215-5.215a3.68 3.68 0 1 1-3.64-3.64l-5.618-5.617a.527.527 0 0 0-.745 0l-.947.946-4.246 4.275-.426.396z" stroke="#FFF"/></g></svg><svg width="50" height="76" viewBox="-1 -1 50 76" id="test-deg-selv-laptop" x="3063" y="3112" xmlns="http://www.w3.org/2000/svg"><defs><linearGradient x1="50%" y1="0%" x2="50%" y2="99.105%" id="csc"><stop stop-color="#FFB975" offset="0%"/><stop stop-color="#E76208" offset="100%"/></linearGradient><path d="M2.001 0A1.999 1.999 0 0 0 0 2V72.79c0 1.105.771 1.527 1.707.953l20.586-12.637c.943-.58 2.478-.575 3.414 0l20.586 12.637c.943.578 1.707.155 1.707-.953V2a2 2 0 0 0-2.001-2H2z" id="csb"/><filter x="-25%" y="-9.5%" width="145.8%" height="129.7%" filterUnits="objectBoundingBox" id="csa"><feOffset dx="-1" dy="4" in="SourceAlpha" result="shadowOffsetOuter1"/><feGaussianBlur stdDeviation="3" in="shadowOffsetOuter1" result="shadowBlurOuter1"/><feColorMatrix values="0 0 0 0 0.117647059 0 0 0 0 0.149019608 0 0 0 0 0.176470588 0 0 0 0.2 0" in="shadowBlurOuter1"/></filter></defs><g fill="none" fill-rule="evenodd"><use fill="#000" filter="url(#csa)" xlink:href="#csb"/><use fill="url(#csc)" xlink:href="#csb"/><g stroke="#FFF"><g stroke-width="1.023"><path d="M34.224 38.09h-19.64c-1.068 0-1.934-.83-1.934-1.85V25.175c0-1.02.866-1.85 1.933-1.85h19.641c1.068 0 1.933.83 1.933 1.85V36.24c0 1.02-.865 1.85-1.933 1.85zM37.823 44.354l-27.422.157c-.895.005-1.387-.993-.814-1.65l4.16-4.77h21.37l3.55 4.666c.504.662.012 1.592-.844 1.597z"/><path d="M33.05 28.383H16.496M33.05 30.708H16.496M33.05 33.144H16.496M19.063 42.084h10.682" stroke-linecap="round"/></g></g></g></svg><svg width="38" height="58" viewBox="-1 -1 50 76" id="test-deg-selv-laptop-small" x="3113" y="3188" xmlns="http://www.w3.org/2000/svg"><defs><linearGradient x1="50%" y1="0%" x2="50%" y2="99.105%" id="ctc"><stop stop-color="#FFB975" offset="0%"/><stop stop-color="#E76208" offset="100%"/></linearGradient><path d="M2.001 0A1.999 1.999 0 0 0 0 2V72.79c0 1.105.771 1.527 1.707.953l20.586-12.637c.943-.58 2.478-.575 3.414 0l20.586 12.637c.943.578 1.707.155 1.707-.953V2a2 2 0 0 0-2.001-2H2z" id="ctb"/><filter x="-25%" y="-9.5%" width="145.8%" height="129.7%" filterUnits="objectBoundingBox" id="cta"><feOffset dx="-1" dy="4" in="SourceAlpha" result="shadowOffsetOuter1"/><feGaussianBlur stdDeviation="3" in="shadowOffsetOuter1" result="shadowBlurOuter1"/><feColorMatrix values="0 0 0 0 0.117647059 0 0 0 0 0.149019608 0 0 0 0 0.176470588 0 0 0 0.2 0" in="shadowBlurOuter1"/></filter></defs><g fill="none" fill-rule="evenodd"><use fill="#000" filter="url(#cta)" xlink:href="#ctb"/><use fill="url(#ctc)" xlink:href="#ctb"/><g stroke="#FFF"><g stroke-width="1.023"><path d="M34.224 38.09h-19.64c-1.068 0-1.934-.83-1.934-1.85V25.175c0-1.02.866-1.85 1.933-1.85h19.641c1.068 0 1.933.83 1.933 1.85V36.24c0 1.02-.865 1.85-1.933 1.85zM37.823 44.354l-27.422.157c-.895.005-1.387-.993-.814-1.65l4.16-4.77h21.37l3.55 4.666c.504.662.012 1.592-.844 1.597z"/><path d="M33.05 28.383H16.496M33.05 30.708H16.496M33.05 33.144H16.496M19.063 42.084h10.682" stroke-linecap="round"/></g></g></g></svg><svg width="50" height="76" viewBox="-1 -1 50 76" id="test-deg-selv-lightbulb" x="3151" y="3246" xmlns="http://www.w3.org/2000/svg"><defs><linearGradient x1="50%" y1="0%" x2="50%" y2="100%" id="cuc"><stop stop-color="#47A172" offset="0%"/><stop stop-color="#257149" offset="100%"/></linearGradient><path d="M2.001 0A1.999 1.999 0 0 0 0 2V72.79c0 1.105.771 1.527 1.707.953l20.586-12.637c.943-.58 2.478-.575 3.414 0l20.586 12.637c.943.578 1.707.155 1.707-.953V2a2 2 0 0 0-2.001-2H2z" id="cub"/><filter x="-25%" y="-9.5%" width="145.8%" height="129.7%" filterUnits="objectBoundingBox" id="cua"><feOffset dx="-1" dy="4" in="SourceAlpha" result="shadowOffsetOuter1"/><feGaussianBlur stdDeviation="3" in="shadowOffsetOuter1" result="shadowBlurOuter1"/><feColorMatrix values="0 0 0 0 0.117647059 0 0 0 0 0.149019608 0 0 0 0 0.176470588 0 0 0 0.2 0" in="shadowBlurOuter1"/></filter></defs><g fill="none" fill-rule="evenodd"><use fill="#000" filter="url(#cua)" xlink:href="#cub"/><use fill="url(#cuc)" xlink:href="#cub"/><g stroke="#FFF"><path d="M25.588 21.203a10.849 10.849 0 0 0-4.182.002c.65-.075 1.342-.118 2.093-.118h.03c.737 0 1.417.043 2.059.116z"/><path d="M27.403 46.02c.534-.974-.62-1.01-.065-1.973 2.197-3.812 4.957-5.154 6.22-8.928.447-1.77.693-3.378.693-4.572 0-4.59-3.609-8.51-8.414-9.424-.03-.003-.062-.004-.091-.008.018.004.036.005.054.008a19.601 19.601 0 0 0-4.363-.005c-4.381.824-7.76 4.162-8.34 8.201-.057.402-.097.811-.097 1.228 0 .29.017.61.045.945.016.46.045.917.087 1.37a9.114 9.114 0 0 0 .692 2.769c1.274 3.007 4.076 4.88 6.119 8.403.559.966-.578 1.007-.04 1.985M20.385 51.546c.266 1.538 1.612.954 3.235.954 1.624 0 2.971.584 3.236-.954M19.423 49.528h8.326M19.423 46.88h8.326"/><path d="M22.046 43.417c0-7.892-.028-5.95-.916-7.228-.912-1.311-1.119-2.362.271-2.684 1.39-.323 1.683.684 2.446.322 1.711-.814 4.006-1.14 2.801 2.362-.551 1.605-1.652-.503-1.652 7.228"/></g></g></svg><svg width="38" height="58" viewBox="-1 -1 50 76" id="test-deg-selv-lightbulb-small" x="3201" y="3322" xmlns="http://www.w3.org/2000/svg"><defs><linearGradient x1="50%" y1="0%" x2="50%" y2="100%" id="cvc"><stop stop-color="#47A172" offset="0%"/><stop stop-color="#257149" offset="100%"/></linearGradient><path d="M2.001 0A1.999 1.999 0 0 0 0 2V72.79c0 1.105.771 1.527 1.707.953l20.586-12.637c.943-.58 2.478-.575 3.414 0l20.586 12.637c.943.578 1.707.155 1.707-.953V2a2 2 0 0 0-2.001-2H2z" id="cvb"/><filter x="-25%" y="-9.5%" width="145.8%" height="129.7%" filterUnits="objectBoundingBox" id="cva"><feOffset dx="-1" dy="4" in="SourceAlpha" result="shadowOffsetOuter1"/><feGaussianBlur stdDeviation="3" in="shadowOffsetOuter1" result="shadowBlurOuter1"/><feColorMatrix values="0 0 0 0 0.117647059 0 0 0 0 0.149019608 0 0 0 0 0.176470588 0 0 0 0.2 0" in="shadowBlurOuter1"/></filter></defs><g fill="none" fill-rule="evenodd"><use fill="#000" filter="url(#cva)" xlink:href="#cvb"/><use fill="url(#cvc)" xlink:href="#cvb"/><g stroke="#FFF"><path d="M25.588 21.203a10.849 10.849 0 0 0-4.182.002c.65-.075 1.342-.118 2.093-.118h.03c.737 0 1.417.043 2.059.116z"/><path d="M27.403 46.02c.534-.974-.62-1.01-.065-1.973 2.197-3.812 4.957-5.154 6.22-8.928.447-1.77.693-3.378.693-4.572 0-4.59-3.609-8.51-8.414-9.424-.03-.003-.062-.004-.091-.008.018.004.036.005.054.008a19.601 19.601 0 0 0-4.363-.005c-4.381.824-7.76 4.162-8.34 8.201-.057.402-.097.811-.097 1.228 0 .29.017.61.045.945.016.46.045.917.087 1.37a9.114 9.114 0 0 0 .692 2.769c1.274 3.007 4.076 4.88 6.119 8.403.559.966-.578 1.007-.04 1.985M20.385 51.546c.266 1.538 1.612.954 3.235.954 1.624 0 2.971.584 3.236-.954M19.423 49.528h8.326M19.423 46.88h8.326"/><path d="M22.046 43.417c0-7.892-.028-5.95-.916-7.228-.912-1.311-1.119-2.362.271-2.684 1.39-.323 1.683.684 2.446.322 1.711-.814 4.006-1.14 2.801 2.362-.551 1.605-1.652-.503-1.652 7.228"/></g></g></svg><svg width="93" height="59" viewBox="-1 -1 93 59" id="test-deg-selv-piggybank" x="3239" y="3380" xmlns="http://www.w3.org/2000/svg"><defs><ellipse id="cwa" cx="9.8" cy="2.45" rx="9.8" ry="2.45"/><ellipse id="cwc" cx="9.908" cy="2.665" rx="9.8" ry="2.45"/><ellipse id="cwe" cx="9" cy="8.55" rx="9" ry="8.55"/><path d="M17.88 1.49l.36 1.344C21.772 1.661 25.768 1 30 1c14.36 0 26 7.611 26 17 0 5.925-4.636 11.142-11.665 14.185l1.615 6.032a2 2 0 0 1-1.414 2.45l-.966.258a2 2 0 0 1-2.45-1.414l-1.528-5.705C36.624 34.576 33.388 35 30 35c-2.65 0-5.206-.26-7.615-.74l-1.194 6.144a2 2 0 0 1-2.345 1.581l-.982-.19a2 2 0 0 1-1.581-2.346l1.267-6.521c-5.035-1.799-9.06-4.655-11.376-8.112l-4.738-1.394A2 2 0 0 1 0 21.504V16a2 2 0 0 1 2-2h2.724c1.354-3.672 4.531-6.879 8.87-9.189l-.544-2.028a2 2 0 0 1 1.414-2.45l.966-.258a2 2 0 0 1 2.45 1.414z" id="cwg"/></defs><g fill="none" fill-rule="evenodd"><g transform="translate(1 47)"><ellipse stroke="#D99F00" stroke-width=".98" fill="#FFBF00" cx="9.8" cy="3.92" rx="9.8" ry="2.45"/><ellipse stroke="#D99F00" stroke-width=".98" fill="#FFBF00" cx="9.8" cy="2.45" rx="9.8" ry="2.45"/><mask id="cwb" fill="#fff"><use xlink:href="#cwa"/></mask><use fill="#FFBF00" xlink:href="#cwa"/><path fill="#DDA300" mask="url(#cwb)" d="M12.74-.49l7.84-.49v8.33L7.84 6.86 4.9 4.9z"/><ellipse fill="#FFF" cx="2.45" cy="1.96" rx="1.47" ry="1"/></g><g transform="rotate(10 -240.891 82.64)"><g><ellipse stroke="#D99F00" stroke-width=".98" fill="#FFBF00" cx="9.908" cy="4.135" rx="9.8" ry="2.45"/><ellipse stroke="#D99F00" stroke-width=".98" fill="#FFBF00" cx="9.908" cy="2.665" rx="9.8" ry="2.45"/><g><mask id="cwd" fill="#fff"><use xlink:href="#cwc"/></mask><use fill="#FFBF00" xlink:href="#cwc"/><path fill="#DDA300" mask="url(#cwd)" d="M12.848-.275l7.84-.49v8.33l-12.74-.49-2.94-1.96z"/></g></g><ellipse fill="#FFF" cx="2.558" cy="2.175" rx="1.47" ry="1"/></g><g transform="translate(42)"><mask id="cwf" fill="#fff"><use xlink:href="#cwe"/></mask><use fill="#FFBF00" xlink:href="#cwe"/><path fill="#DDA300" mask="url(#cwf)" d="M11.7-1.456l7.2-1.694v28.8L7.2 23.956l-2.7-6.777z"/></g><path d="M45.6 4.95c.278 0 .4-.5.9-.9s1.35-.557 1.35-.9c0-.621-.279-.9-.9-.9s-2.25 1.179-2.25 1.8.279.9.9.9z" fill="#FFF"/><g transform="translate(21 14)"><path d="M17.88 1.49l.36 1.344C21.772 1.661 25.768 1 30 1c14.36 0 26 7.611 26 17 0 5.925-4.636 11.142-11.665 14.185l1.615 6.032a2 2 0 0 1-1.414 2.45l-.966.258a2 2 0 0 1-2.45-1.414l-1.528-5.705C36.624 34.576 33.388 35 30 35c-2.65 0-5.206-.26-7.615-.74l-1.194 6.144a2 2 0 0 1-2.345 1.581l-.982-.19a2 2 0 0 1-1.581-2.346l1.267-6.521c-5.035-1.799-9.06-4.655-11.376-8.112l-4.738-1.394A2 2 0 0 1 0 21.504V16a2 2 0 0 1 2-2h2.724c1.354-3.672 4.531-6.879 8.87-9.189l-.544-2.028a2 2 0 0 1 1.414-2.45l.966-.258a2 2 0 0 1 2.45 1.414z" fill="#FF008E"/><mask id="cwh" fill="#fff"><use xlink:href="#cwg"/></mask><use fill="#FF008E" xlink:href="#cwg"/><path fill="#E30076" mask="url(#cwh)" d="M45-5l25-3v56l-53-5z"/><circle fill="#022E53" cx="13" cy="13" r="2"/><path d="M55.5 17.5h4l1.34-.574c1.08-.463 1.04.82 2.16-.926s1.406-2.781 1-4c-.406-1.219-2.076-1.815-3-2-.924-.185-1.154.154-2 1-.846.846-1.304.48-1 2 .203 1.014.87 2.014 2 3 2.204 1.333 3.87 2 5 2s2.13-.667 3-2" stroke="#E30076" stroke-width="2" stroke-linecap="square"/><path d="M24 5c5.71-1.007 12.071.069 11.88-1.019-.192-1.088-4.977-1.153-10.688-.146-5.711 1.007-10.098 1.709-9.906 2.796C15.478 7.72 18.289 6.007 24 5z" fill="#FFF"/></g></g></svg></svg>