<?xml version="1.0" encoding="UTF-8"?>
<svg width="114px" height="89px" viewBox="0 0 114 89" version="1.1" xmlns="http://www.w3.org/2000/svg" xmlns:xlink="http://www.w3.org/1999/xlink">
    <!-- Generator: Sketch 42 (36781) - http://www.bohemiancoding.com/sketch -->
    <title>Group 13</title>
    <desc>Created with Sketch.</desc>
    <defs></defs>
    <g id="Endelig-design" stroke="none" stroke-width="1" fill="none" fill-rule="evenodd">
        <g id="0A---Startside" transform="translate(-938.000000, -1451.000000)">
            <g id="Group-13" transform="translate(938.000000, 1451.000000)">
                <g id="Group-Copy" transform="translate(77.000000, 8.000000)">
                    <polyline id="Fill-62" fill="#FCC390" points="16.6594426 67.4205492 8.23145902 68.9064344 1.12072131 28.5783934 3.87405738 19.5548607 9.54737705 27.0925082 16.6594426 67.4205492"></polyline>
                    <polyline id="Fill-63" fill="#FEE4BF" points="3.87405738 19.5548607 1.12072131 28.5783934 9.54737705 27.0925082 3.87405738 19.5548607"></polyline>
                    <polyline id="Fill-64" fill="#353C45" points="3.87405738 19.5548607 3.21078689 21.7259262 5.23777869 21.3680656 3.87405738 19.5548607"></polyline>
                    <path d="M15.7133361,72.8767623 L10.9847951,73.71 C10.2557951,73.8394672 9.59053279,73.5314016 9.50090164,73.0234918 L8.79181967,68.9973934 C8.70218852,68.4901475 9.22204918,67.9729426 9.95104918,67.8448033 L14.6789262,67.0109016 C15.4092541,66.8827623 16.0725246,67.1908279 16.1621557,67.6980738 L16.8719016,71.7241721 C16.9615328,72.232082 16.443,72.748623 15.7133361,72.8767623" id="Fill-65" fill="#F16A66"></path>
                    <polyline id="Fill-66" fill="#FFFFFF" points="16.9953934 69.3300246 8.56740984 70.8159098 7.87890984 66.906 16.3055656 65.4194508 16.9953934 69.3300246"></polyline>
                    <polyline id="Fill-67" fill="#CFA178" points="13.4081557 48.984418 9.06336885 48.984418 5.33404918 27.8354508 9.54737705 27.0925082 13.4081557 48.984418"></polyline>
                    <polyline id="Fill-68" fill="#D0BD9F" points="5.33404918 27.8354508 4.22527869 21.5466639 5.23777869 21.3680656 3.87405738 19.5548607 9.54737705 27.0925082 5.33404918 27.8354508"></polyline>
                    <polyline id="Fill-69" fill="#2B3239" points="4.22527869 21.5466639 3.87405738 19.5548607 5.23777869 21.3680656 4.22527869 21.5466639"></polyline>
                    <path d="M18.0869016,21.3076475 C14.3097787,21.0912049 11.4229918,17.8531967 11.6407623,14.0754098 C12.0457623,7.02044262 16.1741066,2.38485246 18.2117213,0.509901639 C18.8066066,-0.0398360656 19.0416393,0.162 18.8637049,0.952745902 C18.3929754,3.05011475 18.3206066,7.33913115 23.1248361,12.5291066 C26.2406803,15.8939262 21.8646885,21.5247541 18.0869016,21.3076475" id="Fill-70" fill="#EB8452"></path>
                    <path d="M18.9061967,0.703770492 C18.8716721,0.541106557 18.8404672,0.381762295 18.8132459,0.224409836 C18.9075246,0.278852459 18.9400574,0.441516393 18.9061967,0.703770492" id="Fill-71" fill="#C06D44"></path>
                    <path d="M20.8057131,20.5607213 L15.3428607,20.5607213 C13.122,19.4160984 11.6274836,17.0983033 11.6288115,14.4717787 C11.6288115,14.3403197 11.6327951,14.2081967 11.6407623,14.0754098 C11.6832541,13.3318033 11.775541,12.6207295 11.8943852,11.9309016 C12.6678689,14.661 15.0945492,16.7318115 18.0869016,16.9031066 C18.1579426,16.9077541 18.2296475,16.9097459 18.3006885,16.9097459 C20.3708361,16.9097459 22.5731066,15.2167131 23.5975574,13.1465656 C25.180377,15.6701803 23.3240164,19.0708525 20.8057131,20.5607213" id="Fill-72" fill="#C06D44"></path>
                    <path d="M17.9780164,70.2329754 C16.7616885,70.2329754 15.7133361,69.2490246 15.6343279,68.0353525 L12.8391639,24.5363607 L23.1168689,24.5363607 L20.321041,68.0353525 C20.2433607,69.2490246 19.1943443,70.2329754 17.9780164,70.2329754" id="Fill-73" fill="#0FA3B4"></path>
                    <polyline id="Fill-74" fill="#FFFFFF" points="20.9152623 20.5607213 15.0414344 20.5607213 12.8391639 24.5363607 23.1168689 24.5363607 20.9152623 20.5607213"></polyline>
                    <polyline id="Fill-75" fill="#F04F5F" points="21.3249098 52.4216066 22.4456311 34.9973115 13.5117295 34.9973115 14.6317869 52.4216066 21.3249098 52.4216066"></polyline>
                    <polyline id="Fill-76" fill="#0C8796" points="22.4449672 34.9973115 17.9780164 34.9973115 17.9780164 24.5363607 23.1168689 24.5363607 22.4449672 34.9973115"></polyline>
                    <polyline id="Fill-77" fill="#D1D3D4" points="23.1168689 24.5363607 17.9780164 24.5363607 17.9780164 20.5607213 20.9152623 20.5607213 23.1168689 24.5363607"></polyline>
                    <polyline id="Fill-78" fill="#C5414F" points="21.546 48.984418 17.9780164 48.984418 17.9780164 34.9973115 22.4449672 34.9973115 21.546 48.984418"></polyline>
                    <polyline id="Fill-79" fill="#06626B" points="28.1806967 71.3231557 23.9673689 70.5802131 19.753377 69.8372705 26.8647787 29.5085656 32.5380984 21.971582 35.2914344 30.9951148 28.1806967 71.3231557"></polyline>
                    <polyline id="Fill-80" fill="#FEE4BF" points="32.5380984 21.971582 26.8647787 29.5085656 35.2914344 30.9951148 32.5380984 21.971582"></polyline>
                    <polyline id="Fill-81" fill="#353C45" points="32.5380984 21.971582 31.1723852 23.784123 33.200041 24.1413197 32.5380984 21.971582"></polyline>
                    <path d="M25.4266967,76.1267213 L20.6988197,75.2928197 C19.9684918,75.1646803 19.4486311,74.6481393 19.5382623,74.1402295 L20.2486721,70.1147951 C20.3383033,69.6068852 21.0035656,69.2988197 21.7319016,69.426959 L26.4604426,70.2608607 C27.1901066,70.3903279 27.7086393,70.9068689 27.6196721,71.4141148 L26.9092623,75.4402131 C26.8196311,75.948123 26.1563607,76.2561885 25.4266967,76.1267213" id="Fill-82" fill="#F16A66"></path>
                    <polyline id="Fill-83" fill="#FFFFFF" points="27.843418 73.2326311 19.4160984 71.746082 20.1059262 67.8368361 28.5339098 69.3220574 27.843418 73.2326311"></polyline>
                    <polyline id="Fill-84" fill="#055159" points="32.1198197 48.984418 27.7750328 48.984418 31.0781066 30.2515082 35.2914344 30.9951148 32.1198197 48.984418"></polyline>
                    <polyline id="Fill-85" fill="#D0BD9F" points="35.2914344 30.9951148 31.0781066 30.2515082 32.186877 23.9627213 33.200041 24.1413197 32.5380984 21.971582 35.2914344 30.9951148"></polyline>
                    <polyline id="Fill-86" fill="#2B3239" points="33.200041 24.1413197 32.186877 23.9627213 32.5380984 21.971582 33.200041 24.1413197"></polyline>
                    <path d="M25.2866066,80.908377 L13.5847623,80.908377 C6.25094262,80.908377 0.30607377,74.9635082 0.30607377,67.6296885 L0.30607377,48.984418 L4.71858197,48.984418 L5.83996721,55.3442459 L5.83996721,67.6296885 C5.83996721,70.5244426 6.77677869,73.194123 8.34831148,75.3758115 L12.2761475,75.3758115 C11.886418,74.8353689 11.5358607,74.2643852 11.228459,73.6675082 L13.3497295,73.2930492 L13.3497295,73.2937131 L15.7133361,72.8767623 C16.3892213,72.757918 16.8831885,72.3064426 16.8818607,71.837041 C16.8818607,71.7991967 16.878541,71.7620164 16.8719016,71.7241721 L16.5166967,69.7084672 C16.9223607,70.035123 17.4335902,70.2329754 17.9780164,70.2329754 C18.7289262,70.2329754 19.4160984,69.8578525 19.8503115,69.284877 L19.4160984,71.746082 L19.9439262,71.8396967 L19.5382623,74.1402295 C19.4486311,74.6481393 19.9684918,75.1646803 20.6988197,75.2928197 L23.0630902,75.7097705 L23.0624262,75.7104344 L25.4266967,76.1267213 C25.4333361,76.1280492 25.4399754,76.129377 25.4472787,76.130041 C25.4472787,76.130041 25.4472787,76.1307049 25.4479426,76.1307049 C25.5521803,76.1479672 25.6557541,76.1559344 25.7560082,76.1559344 L25.7573361,76.1559344 L25.7606557,76.1559344 C26.335623,76.1552705 26.8116639,75.8817295 26.9039508,75.4687623 C26.9046148,75.4654426 26.9052787,75.462123 26.9059426,75.4581393 C26.9072705,75.4521639 26.9085984,75.4461885 26.9092623,75.4402131 L27.3149262,73.1396803 L27.843418,73.2326311 L32.1198197,48.984418 L36.9884508,48.984418 L36.9884508,67.6296885 C36.9884508,74.9635082 31.7493443,80.908377 25.2866066,80.908377 M20.4651148,65.801877 L21.546,48.984418 L23.4302459,48.984418 L20.4651148,65.801877 M14.985,57.9262869 L13.4081557,48.984418 L14.4106967,48.984418 L14.985,57.9262869" id="Fill-87" fill="#BBDFE6"></path>
                    <path d="M9.76713934,66.5733689 L9.76713934,52.9773197 L12.0922377,66.1630574 L9.76713934,66.5733689 M14.985,57.9302705 L13.4081557,48.984418 L14.985,57.9262869 L14.985,57.9302705 M5.83996721,55.3442459 L4.71858197,48.984418 L9.06336885,48.984418 L5.83996721,48.984418 L5.83996721,55.3442459" id="Fill-88" fill="#FEE1C8"></path>
                    <path d="M11.228459,73.6675082 C10.7265246,72.6908607 10.3407787,71.6451639 10.0924672,70.5470164 L12.7820656,70.0729672 L13.3497295,73.2937131 L11.228459,73.6675082 M16.8818607,71.837041 C16.8818607,71.7991967 16.878541,71.7620164 16.8719016,71.7241721 L16.5160328,69.7078033 L16.5166967,69.7084672 L16.8719016,71.7241721 C16.878541,71.7620164 16.8818607,71.7991967 16.8818607,71.837041" id="Fill-89" fill="#F9B5B3"></path>
                    <path d="M10.0924672,70.5470164 C9.8800082,69.608877 9.76713934,68.6328934 9.76713934,67.6296885 L9.76713934,66.5733689 L12.0922377,66.1630574 L12.7820656,70.0729672 L10.0924672,70.5470164" id="Fill-90" fill="#FFFFFF"></path>
                    <polyline id="Fill-91" fill="#E7D0BC" points="12.0922377 66.1630574 9.76713934 52.9773197 9.76713934 48.984418 9.06336885 48.984418 13.4081557 48.984418 14.985 57.9302705 15.4756475 65.5661803 12.0922377 66.1630574"></polyline>
                    <path d="M13.3497295,73.2937131 L12.7820656,70.0729672 L16.2524508,69.4608197 C16.3341148,69.5497869 16.422418,69.6321148 16.5160328,69.7078033 L16.8719016,71.7241721 C16.878541,71.7620164 16.8818607,71.7991967 16.8818607,71.837041 C16.8831885,72.3064426 16.3892213,72.757918 15.7133361,72.8767623 L13.3497295,73.2930492" id="Fill-92" fill="#E3ACAA"></path>
                    <path d="M12.7820656,70.0729672 L12.0922377,66.1630574 L15.4756475,65.5661803 L15.6343279,68.0353525 C15.6695164,68.5791148 15.8999016,69.0770656 16.2524508,69.4608197 L12.7820656,70.0729672" id="Fill-93" fill="#E8E9EB"></path>
                    <path d="M17.9780164,70.2329754 C17.4335902,70.2329754 16.9223607,70.035123 16.5166967,69.7084672 L16.5160328,69.7078033 C16.422418,69.6321148 16.3341148,69.5497869 16.2524508,69.4608197 C15.8999016,69.0770656 15.6695164,68.5791148 15.6343279,68.0353525 L14.985,57.9302705 L14.985,57.9262869 L14.4106967,48.984418 L14.6317869,52.4216066 L17.9780164,52.4216066 L17.9780164,70.2329754" id="Fill-94" fill="#87D1DA"></path>
                    <path d="M21.3249098,52.4216066 L21.3249098,52.4216066 L21.546,48.984418 L21.3249098,52.4216066 M17.9780164,52.4216066 L14.6317869,52.4216066 L14.4106967,48.984418 L17.9780164,48.984418 L17.9780164,52.4216066" id="Fill-95" fill="#F9A7AF"></path>
                    <path d="M17.9780164,70.2329754 L17.9780164,52.4216066 L21.3249098,52.4216066 L20.4651148,65.801877 L19.8503115,69.284877 C19.4160984,69.8578525 18.7289262,70.2329754 17.9780164,70.2329754" id="Fill-96" fill="#86C3CB"></path>
                    <polyline id="Fill-97" fill="#E2A0A7" points="21.3249098 52.4216066 17.9780164 52.4216066 17.9780164 48.984418 21.546 48.984418 21.3249098 52.4216066"></polyline>
                    <path d="M28.1806967,71.3231557 L31.7367295,51.1588033 L28.1806967,71.3231557 M24.319918,68.5797787 L20.1059262,67.8368361 L23.4302459,48.984418 L27.7750328,48.984418 L24.319918,68.5797787" id="Fill-98" fill="#83B1B5"></path>
                    <path d="M25.7573361,76.1559344 L25.7573361,76.1559344 L25.7606557,76.1559344 L25.7573361,76.1559344 M25.7560082,76.1559344 C25.6557541,76.1559344 25.5521803,76.1479672 25.4479426,76.1307049 C25.5521803,76.1479672 25.6557541,76.1559344 25.7560082,76.1559344 M25.4472787,76.130041 C25.4399754,76.129377 25.4333361,76.1280492 25.4266967,76.1267213 C25.4333361,76.1280492 25.4399754,76.129377 25.4472787,76.130041 M23.0630902,75.7097705 L20.6988197,75.2928197 C19.9684918,75.1646803 19.4486311,74.6481393 19.5382623,74.1402295 L19.9439262,71.8396967 L23.6307541,72.4896885 L23.0624262,75.7104344 M26.9039508,75.4687623 C26.9046148,75.4654426 26.9052787,75.462123 26.9059426,75.4581393 C26.9052787,75.462123 26.9046148,75.4654426 26.9039508,75.4687623 M26.9092623,75.4402131 L27.3149262,73.1396803 L26.9092623,75.4402131" id="Fill-99" fill="#F9B5B3"></path>
                    <polyline id="Fill-100" fill="#FFFFFF" points="23.6307541 72.4896885 19.9439262 71.8396967 19.4160984 71.746082 20.1059262 67.8368361 24.319918 68.5797787 23.6307541 72.4896885"></polyline>
                    <path d="M25.7573361,76.1559344 L25.7560082,76.1559344 L25.7573361,76.1559344 M25.7606557,76.1559344 C26.335623,76.1552705 26.8116639,75.8817295 26.9039508,75.4687623 C26.8116639,75.8817295 26.335623,76.1552705 25.7606557,76.1559344 M25.4479426,76.1307049 C25.4472787,76.1307049 25.4472787,76.130041 25.4472787,76.130041 C25.4472787,76.130041 25.4472787,76.1307049 25.4479426,76.1307049 M25.4266967,76.1267213 L25.4266967,76.1267213 L23.0624262,75.7104344 L25.4266967,76.1267213 M26.9059426,75.4581393 C26.9072705,75.4521639 26.9085984,75.4461885 26.9092623,75.4402131 C26.9085984,75.4461885 26.9072705,75.4521639 26.9059426,75.4581393 M27.843418,73.2326311 L27.3149262,73.1396803 L27.3149262,73.1390164 L27.843418,73.2326311 L28.1806967,71.3231557 L27.843418,73.2326311" id="Fill-101" fill="#B0CFD5"></path>
                    <polyline id="Fill-102" fill="#82A8AC" points="28.1806967 71.3231557 28.1806967 71.3231557 28.5339098 69.3220574 24.319918 68.5797787 27.7750328 48.984418 32.1198197 48.984418 28.1806967 71.3231557"></polyline>
                    <path d="M25.7573361,76.1559344 L25.7560082,76.1559344 C25.6557541,76.1559344 25.5521803,76.1479672 25.4479426,76.1307049 C25.4472787,76.1307049 25.4472787,76.130041 25.4472787,76.130041 C25.4399754,76.129377 25.4333361,76.1280492 25.4266967,76.1267213 L23.0630902,75.7097705 L23.6307541,72.4896885 L27.3149262,73.1390164 L27.3149262,73.1396803 L26.9092623,75.4402131 C26.9085984,75.4461885 26.9072705,75.4521639 26.9059426,75.4581393 C26.9052787,75.462123 26.9046148,75.4654426 26.9039508,75.4687623 C26.8116639,75.8817295 26.335623,76.1552705 25.7606557,76.1559344 L25.7573361,76.1559344" id="Fill-103" fill="#E3ACAA"></path>
                    <polyline id="Fill-104" fill="#E8E9EB" points="27.843418 73.2326311 27.3149262 73.1390164 23.6307541 72.4896885 24.319918 68.5797787 28.5339098 69.3220574 27.843418 73.2326311"></polyline>
                    <path d="M12.2761475,75.3758115 L8.34831148,75.3758115 C6.77677869,73.194123 5.83996721,70.5244426 5.83996721,67.6296885 L5.83996721,55.3442459 L8.56740984,70.8159098 L9.0952377,70.722959 L9.50090164,73.0234918 C9.57659016,73.4530574 10.063918,73.739877 10.6541557,73.739877 C10.7617131,73.739877 10.8725902,73.729918 10.9847951,73.71 L11.228459,73.6675082 C11.5358607,74.2643852 11.886418,74.8353689 12.2761475,75.3758115" id="Fill-105" fill="#EBF6F8"></path>
                    <polyline id="Fill-106" fill="#FFF7EE" points="7.87890984 66.906 5.83996721 55.3442459 5.83996721 48.984418 9.06336885 48.984418 9.76713934 52.9773197 9.76713934 66.5733689 7.87890984 66.906"></polyline>
                    <path d="M10.6541557,73.739877 C10.063918,73.739877 9.57659016,73.4530574 9.50090164,73.0234918 L9.0952377,70.722959 L10.0924672,70.5470164 C10.3407787,71.6451639 10.7265246,72.6908607 11.228459,73.6675082 L10.9847951,73.71 C10.8725902,73.729918 10.7617131,73.739877 10.6541557,73.739877" id="Fill-107" fill="#FDE9E8"></path>
                    <path d="M8.56740984,70.8159098 L7.87890984,66.906 L9.76713934,66.5733689 L9.76713934,67.6296885 C9.76713934,68.6328934 9.8800082,69.608877 10.0924672,70.5470164 L9.0952377,70.722959 L8.56740984,70.8159098" id="Fill-108" fill="#FFFFFF"></path>
                    <polyline id="Fill-109" fill="#F9F1EC" points="9.76713934 52.9773197 9.06336885 48.984418 9.76713934 48.984418 9.76713934 52.9773197"></polyline>
                </g>
                <g id="Group-2">
                    <path d="M41.8863934,88.251377 L25.5473443,88.251377 C25.1303279,88.251377 24.7932459,87.913541 24.7932459,87.4972787 L24.7932459,1.02859016 C24.7932459,0.612327869 25.1303279,0.274491803 25.5473443,0.274491803 L41.8863934,0.274491803 C42.3034098,0.274491803 42.6404918,0.612327869 42.6404918,1.02859016 L42.6404918,87.4972787 C42.6404918,87.913541 42.3034098,88.251377 41.8863934,88.251377" id="Fill-110" fill="#06626B"></path>
                    <polygon id="Fill-111" fill="#448891" points="31.548459 67.3575738 35.8845246 67.3575738 35.8845246 21.1682951 31.548459 21.1682951"></polygon>
                    <polygon id="Fill-112" fill="#448891" points="24.7932459 14.7237705 31.548459 14.7237705 31.548459 11.6493115 24.7932459 11.6493115"></polygon>
                    <polygon id="Fill-113" fill="#448891" points="35.8845246 14.7237705 42.6404918 14.7237705 42.6404918 11.6493115 35.8845246 11.6493115"></polygon>
                    <polygon id="Fill-114" fill="#448891" points="24.7932459 76.8758033 31.548459 76.8758033 31.548459 73.8013443 24.7932459 73.8013443"></polygon>
                    <polygon id="Fill-115" fill="#448891" points="35.8845246 76.8758033 42.6404918 76.8758033 42.6404918 73.8013443 35.8845246 73.8013443"></polygon>
                    <path d="M41.8863934,88.251377 L33.7164918,88.251377 L33.7164918,67.3575738 L35.8845246,67.3575738 L35.8845246,21.1682951 L33.7164918,21.1682951 L33.7164918,0.274491803 L41.8863934,0.274491803 C42.3034098,0.274491803 42.6404918,0.612327869 42.6404918,1.02859016 L42.6404918,11.6493115 L35.8845246,11.6493115 L35.8845246,14.7237705 L42.6404918,14.7237705 L42.6404918,73.8013443 L35.8845246,73.8013443 L35.8845246,76.8758033 L42.6404918,76.8758033 L42.6404918,87.4972787 C42.6404918,87.913541 42.3034098,88.251377 41.8863934,88.251377" id="Fill-116" fill="#055159"></path>
                    <polygon id="Fill-117" fill="#387179" points="33.7164918 67.3575738 35.8845246 67.3575738 35.8845246 21.1682951 33.7164918 21.1682951"></polygon>
                    <polygon id="Fill-118" fill="#387179" points="35.8845246 14.7237705 42.6404918 14.7237705 42.6404918 11.6493115 35.8845246 11.6493115"></polygon>
                    <polygon id="Fill-119" fill="#387179" points="35.8845246 76.8758033 42.6404918 76.8758033 42.6404918 73.8013443 35.8845246 73.8013443"></polygon>
                    <path d="M17.2447213,88.2483607 L1.28121311,86.8525246 C0.86495082,86.8163279 0.558786885,86.4513443 0.594229508,86.0358361 L7.32380328,9.12836066 C7.3592459,8.71360656 7.7257377,8.40668852 8.1397377,8.44213115 L24.104,9.84022951 C24.5195082,9.87642623 24.8256721,10.2421639 24.7902295,10.656918 L18.0606557,87.5636393 C18.0252131,87.9791475 17.6602295,88.2853115 17.2447213,88.2483607" id="Fill-120" fill="#FCC390"></path>
                    <polyline id="Fill-121" fill="#EB8452" points="6.50485246 18.4897377 23.9705246 20.017541 24.1680984 17.7642951 6.70167213 16.2357377 6.50485246 18.4897377"></polyline>
                    <polyline id="Fill-122" fill="#EB8452" points="5.70701639 27.5984918 23.1734426 29.1262951 23.3710164 26.8730492 5.90459016 25.3444918 5.70701639 27.5984918"></polyline>
                    <polyline id="Fill-123" fill="#EB8452" points="6.29219672 20.922459 23.758623 22.4510164 23.8332787 21.5702295 6.36836066 20.0416721 6.29219672 20.922459"></polyline>
                    <polyline id="Fill-124" fill="#EB8452" points="1.41318033 76.6752131 18.8796066 78.2037705 18.6827869 80.4570164 1.21636066 78.9292131 1.41318033 76.6752131"></polyline>
                    <polyline id="Fill-125" fill="#EB8452" points="2.2102623 67.566459 19.6766885 69.0950164 19.4798689 71.3475082 2.01344262 69.820459 2.2102623 67.566459"></polyline>
                    <polyline id="Fill-126" fill="#EB8452" points="1.62659016 74.2424918 19.0930164 75.7702951 19.0160984 76.651082 1.54967213 75.1225246 1.62659016 74.2424918"></polyline>
                    <polyline id="Fill-127" fill="#EB8452" points="11.3899016 31.5303607 8.48888525 64.6797705 7.61036066 64.6028525 10.510623 31.4534426 11.3899016 31.5303607"></polyline>
                    <polyline id="Fill-128" fill="#EB8452" points="14.5827541 31.809377 11.6824918 64.959541 10.8017049 64.882623 13.7019672 31.7332131 14.5827541 31.809377"></polyline>
                    <polyline id="Fill-129" fill="#EB8452" points="17.7740984 32.0891475 14.8760984 65.2393115 13.9945574 65.1623934 16.8948197 32.0122295 17.7740984 32.0891475"></polyline>
                    <path d="M17.3216393,88.251377 C17.6881311,88.2468525 18.0003279,87.9776393 18.055377,87.6119016 C18.0003279,87.9776393 17.6881311,88.2468525 17.3216393,88.251377 M17.2530164,88.2491148 C17.2507541,88.2491148 17.2477377,88.2491148 17.2447213,88.2483607 L9.26259016,87.5515738 L17.2447213,88.2483607 C17.2477377,88.2491148 17.2507541,88.2491148 17.2530164,88.2491148 M18.0568852,87.5975738 C18.0583934,87.5862623 18.0599016,87.5749508 18.0606557,87.5636393 L18.6827869,80.4570164 L18.0606557,87.5636393 C18.0599016,87.5749508 18.0583934,87.5862623 18.0568852,87.5975738" id="Fill-130" fill="#619EAA"></path>
                    <path d="M17.3125902,88.251377 L17.3125902,88.251377 C17.2929836,88.251377 17.273377,88.250623 17.2530164,88.2491148 C17.2507541,88.2491148 17.2477377,88.2491148 17.2447213,88.2483607 L9.26259016,87.5508197 L9.95032787,79.6931148 L18.6827869,80.4570164 L18.0606557,87.5636393 C18.0599016,87.5749508 18.0583934,87.5862623 18.0568852,87.5975738 C18.0568852,87.6020984 18.0561311,87.607377 18.055377,87.6119016 C18.0003279,87.9776393 17.6881311,88.2468525 17.3216393,88.251377 L17.3125902,88.251377 M18.8554754,78.4812787 L18.8796066,78.2037705 L10.1471475,77.4391148 L10.2828852,75.8871803 L19.0160984,76.651082 L18.8554754,78.4812787" id="Fill-131" fill="#CFA178"></path>
                    <polyline id="Fill-132" fill="#C06D44" points="18.6827869 80.4570164 18.6827869 80.4570164 9.95032787 79.6931148 10.1471475 77.4391148 18.8796066 78.2037705 18.6827869 80.4570164"></polyline>
                    <polyline id="Fill-133" fill="#619EAA" points="24.104 9.84022951 16.122623 9.14118033 24.104 9.84022951"></polyline>
                    <path d="M19.0930164,75.7702951 L10.3598033,75.0063934 L10.7474098,70.5843607 L19.4798689,71.3475082 L19.0930164,75.7702951 M19.527377,70.8068197 L19.6766885,69.0950164 L10.9442295,68.3303607 L11.2428525,64.921082 L11.6824918,64.959541 L14.5827541,31.809377 L14.1423607,31.770918 L14.4409836,28.3623934 L23.1734426,29.1262951 L23.3710164,26.8730492 L14.6378033,26.1091475 L15.0246557,21.6863607 L23.758623,22.4510164 L19.527377,70.8068197 M16.8948197,32.0122295 L13.9945574,65.1623934 L14.8760984,65.2393115 L17.7740984,32.0891475 L16.8948197,32.0122295 M23.7706885,22.3092459 L23.8332787,21.5702295 L15.1023279,20.8055738 L15.2380656,19.2536393 L23.9705246,20.017541 L24.1680984,17.7642951 L15.4348852,16.9996393 L16.122623,9.14118033 L24.104,9.84022951 C24.4983934,9.87416393 24.794,10.2059672 24.7932459,10.5943279 C24.7932459,10.6146885 24.7917377,10.6358033 24.7902295,10.656918 L23.7706885,22.3092459" id="Fill-134" fill="#CFA178"></path>
                    <polyline id="Fill-135" fill="#C06D44" points="23.9705246 20.017541 15.2380656 19.2536393 15.4348852 16.9996393 24.1680984 17.7642951 23.9705246 20.017541"></polyline>
                    <polyline id="Fill-136" fill="#C06D44" points="23.1734426 29.1262951 14.4409836 28.3623934 14.6378033 26.1091475 23.3710164 26.8730492 23.1734426 29.1262951"></polyline>
                    <polyline id="Fill-137" fill="#C06D44" points="23.758623 22.4510164 23.758623 22.4510164 15.0246557 21.6863607 15.1023279 20.8055738 23.8332787 21.5702295 23.7706885 22.3092459 23.7578689 22.4502623"></polyline>
                    <polyline id="Fill-138" fill="#C06D44" points="19.4798689 71.3475082 19.4798689 71.3475082 10.7474098 70.5843607 10.9442295 68.3303607 19.6766885 69.0950164 19.527377 70.8068197 19.4798689 71.3475082"></polyline>
                    <polyline id="Fill-139" fill="#C06D44" points="19.0160984 76.651082 19.0160984 76.651082 10.2828852 75.8871803 10.3598033 75.0063934 19.0930164 75.7702951 19.0153443 76.651082"></polyline>
                    <polyline id="Fill-140" fill="#C06D44" points="11.6824918 64.959541 11.2428525 64.921082 14.1423607 31.770918 14.5827541 31.809377 11.6824918 64.959541"></polyline>
                    <polyline id="Fill-141" fill="#C06D44" points="14.8760984 65.2393115 13.9945574 65.1623934 16.8948197 32.0122295 17.7740984 32.0891475 14.8760984 65.2393115"></polyline>
                    <path d="M63.6285574,88.251377 L43.3945902,88.251377 C42.9775738,88.251377 42.6404918,87.913541 42.6404918,87.4972787 L42.6404918,31.5680656 C42.6404918,31.1518033 42.9775738,30.8139672 43.3945902,30.8139672 L63.6285574,30.8139672 C64.0455738,30.8139672 64.3826557,31.1518033 64.3826557,31.5680656 L64.3826557,87.4972787 C64.3826557,87.913541 64.0455738,88.251377 63.6285574,88.251377" id="Fill-142" fill="#F04F5F"></path>
                    <path d="M60.0880656,43.9707213 C60.0880656,47.602459 57.1433115,50.546459 53.5115738,50.546459 C49.8798361,50.546459 46.935082,47.602459 46.935082,43.9707213 C46.935082,40.3389836 49.8798361,37.3949836 53.5115738,37.3949836 C57.1433115,37.3949836 60.0880656,40.3389836 60.0880656,43.9707213" id="Fill-143" fill="#D63B51"></path>
                    <polygon id="Fill-144" fill="#D63B51" points="49.3014426 80.4562623 57.7217049 80.4562623 57.7217049 56.3130492 49.3014426 56.3130492"></polygon>
                    <path d="M63.6285574,88.251377 L53.5115738,88.251377 L53.5115738,80.4562623 L57.7217049,80.4562623 L57.7217049,56.3130492 L53.5115738,56.3130492 L53.5115738,50.546459 C57.1433115,50.546459 60.0880656,47.602459 60.0880656,43.9707213 C60.0880656,40.3389836 57.1433115,37.3949836 53.5115738,37.3949836 L53.5115738,30.8139672 L63.6285574,30.8139672 C64.0455738,30.8139672 64.3826557,31.1518033 64.3826557,31.5680656 L64.3826557,87.4972787 C64.3826557,87.913541 64.0455738,88.251377 63.6285574,88.251377" id="Fill-145" fill="#C5414F"></path>
                    <path d="M53.5115738,50.546459 L53.5115738,37.3949836 C57.1433115,37.3949836 60.0880656,40.3389836 60.0880656,43.9707213 C60.0880656,47.602459 57.1433115,50.546459 53.5115738,50.546459" id="Fill-146" fill="#AF3143"></path>
                    <polygon id="Fill-147" fill="#AF3143" points="53.5115738 80.4562623 57.7217049 80.4562623 57.7217049 56.3130492 53.5115738 56.3130492"></polygon>
                </g>
            </g>
        </g>
    </g>
</svg>