<svg height="512pt" viewBox="0 -9 512 512" fill="currentColor" width="512pt" xmlns="http://www.w3.org/2000/svg">
  <path
    d="m17.066406 358.398438c0-4.710938-3.820312-8.53125-8.53125-8.53125-4.714844 0-8.535156 3.820312-8.535156 8.53125v17.066406c0 4.714844 3.820312 8.535156 8.535156 8.535156 4.710938 0 8.53125-3.820312 8.53125-8.535156zm0 0"/>
  <path
    d="m25.601562 349.867188v34.132812c0 4.710938 3.820313 8.535156 8.53125 8.535156 4.714844 0 8.535157-3.824218 8.535157-8.535156v-34.132812c0-4.714844-3.820313-8.535157-8.535157-8.535157-4.710937 0-8.53125 3.820313-8.53125 8.535157zm0 0"/>
  <path
    d="m128 349.867188v34.132812c0 4.710938 3.820312 8.535156 8.535156 8.535156 4.710938 0 8.53125-3.824218 8.53125-8.535156v-34.132812c0-4.714844-3.820312-8.535157-8.53125-8.535157-4.714844 0-8.535156 3.820313-8.535156 8.535157zm0 0"/>
  <path
    d="m59.734375 332.800781v68.265625c0 4.714844 3.820313 8.535156 8.53125 8.535156 4.714844 0 8.535156-3.820312 8.535156-8.535156v-68.265625c0-4.714843-3.820312-8.535156-8.535156-8.535156-4.710937 0-8.53125 3.820313-8.53125 8.535156zm0 0"/>
  <path
    d="m93.867188 332.800781v68.265625c0 4.714844 3.820312 8.535156 8.53125 8.535156 4.714843 0 8.535156-3.820312 8.535156-8.535156v-68.265625c0-4.714843-3.820313-8.535156-8.535156-8.535156-4.710938 0-8.53125 3.820313-8.53125 8.535156zm0 0"/>
  <path
    d="m162.132812 315.734375v102.398437c0 4.714844 3.820313 8.535157 8.535157 8.535157 4.710937 0 8.53125-3.820313 8.53125-8.535157v-102.398437c0-4.714844-3.820313-8.535156-8.53125-8.535156-4.714844 0-8.535157 3.820312-8.535157 8.535156zm0 0"/>
  <path
    d="m196.265625 298.667969v136.53125c0 4.714843 3.820313 8.535156 8.535156 8.535156 4.710938 0 8.53125-3.820313 8.53125-8.535156v-136.53125c0-4.714844-3.820312-8.535157-8.53125-8.535157-4.714843 0-8.535156 3.820313-8.535156 8.535157zm0 0"/>
  <path
    d="m230.398438 247.464844v238.933594c0 4.714843 3.820312 8.535156 8.535156 8.535156 4.710937 0 8.53125-3.820313 8.53125-8.535156v-238.933594c0-4.710938-3.820313-8.53125-8.53125-8.53125-4.714844 0-8.535156 3.820312-8.535156 8.53125zm0 0"/>
  <path
    d="m503.464844 349.867188c-4.710938 0-8.53125 3.820312-8.53125 8.53125v17.066406c0 4.714844 3.820312 8.535156 8.53125 8.535156 4.714844 0 8.535156-3.820312 8.535156-8.535156v-17.066406c0-4.710938-3.820312-8.53125-8.535156-8.53125zm0 0"/>
  <path
    d="m477.867188 341.332031c-4.714844 0-8.535157 3.820313-8.535157 8.535157v34.132812c0 4.710938 3.820313 8.535156 8.535157 8.535156 4.710937 0 8.53125-3.824218 8.53125-8.535156v-34.132812c0-4.714844-3.820313-8.535157-8.53125-8.535157zm0 0"/>
  <path
    d="m375.464844 341.332031c-4.710938 0-8.53125 3.820313-8.53125 8.535157v34.132812c0 4.710938 3.820312 8.535156 8.53125 8.535156 4.714844 0 8.535156-3.824218 8.535156-8.535156v-34.132812c0-4.714844-3.820312-8.535157-8.535156-8.535157zm0 0"/>
  <path
    d="m452.265625 401.066406v-68.265625c0-4.714843-3.820313-8.535156-8.53125-8.535156-4.714844 0-8.535156 3.820313-8.535156 8.535156v68.265625c0 4.714844 3.820312 8.535156 8.535156 8.535156 4.710937 0 8.53125-3.820312 8.53125-8.535156zm0 0"/>
  <path
    d="m418.132812 401.066406v-68.265625c0-4.714843-3.820312-8.535156-8.53125-8.535156-4.714843 0-8.535156 3.820313-8.535156 8.535156v68.265625c0 4.714844 3.820313 8.535156 8.535156 8.535156 4.710938 0 8.53125-3.820312 8.53125-8.535156zm0 0"/>
  <path
    d="m332.800781 315.734375v102.398437c0 4.714844 3.820313 8.535157 8.53125 8.535157 4.714844 0 8.535157-3.820313 8.535157-8.535157v-102.398437c0-4.714844-3.820313-8.535156-8.535157-8.535156-4.710937 0-8.53125 3.820312-8.53125 8.535156zm0 0"/>
  <path
    d="m315.734375 435.199219v-136.53125c0-4.714844-3.820313-8.535157-8.535156-8.535157-4.710938 0-8.53125 3.820313-8.53125 8.535157v136.53125c0 4.714843 3.820312 8.535156 8.53125 8.535156 4.714843 0 8.535156-3.820313 8.535156-8.535156zm0 0"/>
  <path
    d="m264.535156 247.464844v238.933594c0 4.714843 3.820313 8.535156 8.53125 8.535156 4.714844 0 8.535156-3.820313 8.535156-8.535156v-238.933594c0-4.710938-3.820312-8.53125-8.535156-8.53125-4.710937 0-8.53125 3.820312-8.53125 8.53125zm0 0"/>
  <path
    d="m452.265625 93.867188c0 4.710937-3.820313 8.53125-8.53125 8.53125-4.714844 0-8.535156-3.820313-8.535156-8.53125 0-4.714844 3.820312-8.535157 8.535156-8.535157 4.710937 0 8.53125 3.820313 8.53125 8.535157zm0 0"/>
  <path
    d="m315.734375 93.867188c0 4.710937-3.820313 8.53125-8.535156 8.53125-4.710938 0-8.53125-3.820313-8.53125-8.53125 0-4.714844 3.820312-8.535157 8.53125-8.535157 4.714843 0 8.535156 3.820313 8.535156 8.535157zm0 0"/>
  <path
    d="m384 93.867188c0 4.710937-3.820312 8.53125-8.535156 8.53125-4.710938 0-8.53125-3.820313-8.53125-8.53125 0-4.714844 3.820312-8.535157 8.53125-8.535157 4.714844 0 8.535156 3.820313 8.535156 8.535157zm0 0"/>
  <path
    d="m494.933594 34.132812c-.019532-18.84375-15.289063-34.1132808-34.132813-34.132812h-170.667969c-18.84375.0195312-34.113281 15.289062-34.132812 34.132812v119.46875c.019531 18.839844 15.289062 34.113282 34.132812 34.132813h17l.132813-1.058594c.34375-3.054687 2.304687-5.691406 5.128906-6.898437 2.828125-1.207032 6.085938-.800782 8.53125 1.066406 2.445313 1.867188 3.695313 4.902344 3.273438 7.949219l-6.085938 48.722656 77.933594-56.683594c1.828125-1.332031 4.113281-1.886719 6.351563-1.53125 2.234374.351563 4.238281 1.582031 5.566406 3.414063 1.023437 1.472656 1.542968 3.230468 1.484375 5.019531h51.351562c18.84375-.019531 34.113281-15.292969 34.132813-34.132813zm-187.734375 85.332032c-14.136719 0-25.597657-11.460938-25.597657-25.597656 0-14.140626 11.460938-25.601563 25.597657-25.601563 14.140625 0 25.601562 11.460937 25.601562 25.601563-.015625 14.132812-11.46875 25.582031-25.601562 25.597656zm68.265625 0c-14.136719 0-25.597656-11.460938-25.597656-25.597656 0-14.140626 11.460937-25.601563 25.597656-25.601563 14.140625 0 25.601562 11.460937 25.601562 25.601563-.015625 14.132812-11.46875 25.582031-25.601562 25.597656zm68.269531 0c-14.140625 0-25.601563-11.460938-25.601563-25.597656 0-14.140626 11.460938-25.601563 25.601563-25.601563 14.136719 0 25.597656 11.460937 25.597656 25.601563-.015625 14.132812-11.464843 25.582031-25.597656 25.597656zm0 0"/>
</svg>
