<?xml version="1.0" encoding="UTF-8"?>
<svg width="192px" height="42px" viewBox="0 0 192 42" version="1.1" xmlns="http://www.w3.org/2000/svg" xmlns:xlink="http://www.w3.org/1999/xlink">
    <!-- Generator: Sketch 42 (36781) - http://www.bohemiancoding.com/sketch -->
    <title>eu_flag_co_funded_vect_pos_[cmyk]_right</title>
    <desc>Created with Sketch.</desc>
    <defs></defs>
    <g id="Endelig-design" stroke="none" stroke-width="1" fill="none" fill-rule="evenodd">
        <g id="0A---Startside" transform="translate(-770.000000, -1830.000000)">
            <g id="Group-24" transform="translate(0.000000, 1812.000000)">
                <g id="eu_flag_co_funded_vect_pos_[cmyk]_right" transform="translate(770.000000, 18.000000)">
                    <polygon id="Fill-1" fill="#174489" points="0.140411114 39.2402137 59.2516366 39.2402137 59.2516366 0.0704731981 0.140411114 0.0704731981"></polygon>
                    <polyline id="Fill-2" fill="#FFF101" points="29.6988043 4.42253864 30.1856091 5.93425783 31.7783253 5.92757899 30.483809 6.85363366 30.9840525 8.35867402 29.6988043 7.42133443 28.4105439 8.35959524 28.9107874 6.85363366 27.6144175 5.92757899 29.2099141 5.93425783 29.6988043 4.42253864"></polyline>
                    <polyline id="Fill-3" fill="#FFF101" points="23.1307616 6.17193214 23.6177982 7.68342103 25.2105143 7.6769725 23.915998 8.60302717 24.4160099 10.1080675 23.1307616 9.17049763 21.8427329 10.1089887 22.3429765 8.60302717 21.0463748 7.6769725 22.6421031 7.68342103 23.1307616 6.17193214"></polyline>
                    <polyline id="Fill-4" fill="#FFF101" points="18.323187 10.9509822 18.8097602 12.4624711 20.402708 12.4560226 19.1081917 13.381847 19.6082036 14.8871176 18.3229553 13.9493174 17.0349266 14.8880389 17.5351702 13.3820773 16.2385685 12.4560226 17.8342968 12.4627014 18.323187 10.9509822"></polyline>
                    <polyline id="Fill-5" fill="#FFF101" points="16.5636457 17.4791956 17.0502189 18.9909147 18.6431668 18.9844662 17.3486505 19.9100603 17.8486623 21.4153309 16.563414 20.477761 15.2753854 21.4164825 15.7756289 19.9105209 14.4790273 18.9844662 16.0747556 18.9911451 16.5636457 17.4791956"></polyline>
                    <polyline id="Fill-6" fill="#FFF101" points="18.3236504 24.0074089 18.8102236 25.5191281 20.4031714 25.5126795 19.1084234 26.4382736 19.6084353 27.9437746 18.323187 27.0062047 17.0351583 27.9449261 17.5356336 26.4389645 16.2388002 25.5124492 17.8347602 25.5193584 18.3236504 24.0074089"></polyline>
                    <polyline id="Fill-7" fill="#FFF101" points="23.1316884 28.786459 23.6182616 30.2984085 25.2112095 30.2914993 23.9164614 31.2173237 24.4164733 32.7228247 23.131225 31.7850245 21.8429646 32.7237459 22.3436716 31.2177843 21.0468382 30.2914993 22.6430299 30.2984085 23.1316884 28.786459"></polyline>
                    <polyline id="Fill-8" fill="#FFF101" points="29.7001945 30.5351616 30.1867676 32.0468808 31.7797155 32.0402019 30.4849675 32.9660263 30.9849793 34.4715273 29.6997311 33.5334967 28.4114707 34.4724485 28.9119459 32.9664869 27.615576 32.0402019 29.211536 32.0468808 29.7001945 30.5351616"></polyline>
                    <polyline id="Fill-9" fill="#FFF101" points="36.267542 28.7859984 36.7538835 30.2974873 38.3470631 30.2905781 37.0518516 31.2164025 37.5523269 32.7221338 36.2670786 31.7841032 34.9788183 32.7228247 35.4792935 31.2168631 34.1826919 30.2905781 35.7788836 30.2974873 36.267542 28.7859984"></polyline>
                    <polyline id="Fill-10" fill="#FFF101" points="41.0753483 24.006718 41.5614581 25.5184371 43.1546377 25.5117583 41.859658 26.4375827 42.3601332 27.9430836 41.0748849 27.0052834 39.7866246 27.9440049 40.2870998 26.4380433 38.9904982 25.5117583 40.5866899 25.5184371 41.0753483 24.006718"></polyline>
                    <polyline id="Fill-11" fill="#FFF101" points="42.835353 17.4782743 43.3214628 18.9895329 44.9146423 18.9833147 43.6196626 19.9089088 44.1201379 21.4144097 42.8346579 20.4766095 41.5463975 21.4153309 42.0471045 19.9093694 40.7502711 18.9833147 42.3466945 18.9895329 42.835353 17.4782743"></polyline>
                    <polyline id="Fill-12" fill="#FFF101" points="41.0753483 10.9505216 41.5614581 12.4620105 43.154406 12.4557923 41.8594263 13.3813864 42.3601332 14.8868873 41.0746532 13.9490871 39.7863929 14.8878085 40.2870998 13.381847 38.9904982 12.4553317 40.5866899 12.4620105 41.0753483 10.9505216"></polyline>
                    <polyline id="Fill-13" fill="#FFF101" points="36.2670786 6.17193214 36.7531884 7.68319072 38.3459046 7.6769725 37.0511565 8.60279687 37.5516318 10.1080675 36.2666152 9.17026732 34.9781231 10.1092191 35.4790618 8.60302717 34.1819968 7.67674219 35.7781885 7.68319072 36.2670786 6.17193214"></polyline>
                    <path d="M75.0576184,6.25184783 L76.2304914,6.54824981 C75.9846561,7.51138351 75.542338,8.24582478 74.9035369,8.75157362 C74.2647358,9.25732245 73.4836701,9.51019687 72.5608029,9.51019687 C71.6054976,9.51019687 70.8286025,9.31581981 70.2301175,8.92683539 C69.6314008,8.53808128 69.1761073,7.97475631 68.863542,7.23732108 C68.5512083,6.49988585 68.3950415,5.70786843 68.3950415,4.86149914 C68.3950415,3.93866874 68.5713664,3.13375427 68.9242478,2.44675574 C69.2768975,1.75952691 69.7785312,1.23765675 70.4296125,0.880914976 C71.080462,0.524173199 71.7968831,0.345917462 72.5788757,0.345917462 C73.4655973,0.345917462 74.2112128,0.57161594 74.815722,1.02301289 C75.420463,1.47440985 75.8414646,2.10912924 76.0794221,2.92717107 L74.9246217,3.19916077 C74.7191025,2.55453828 74.420671,2.08494726 74.0297905,1.79061802 C73.6389101,1.49674939 73.1472395,1.34935447 72.5547787,1.34935447 C71.8735763,1.34935447 71.304054,1.51264041 70.8466752,1.83898198 C70.3892964,2.16555386 70.0676947,2.60382346 69.8823335,3.15379077 C69.6969723,3.70398838 69.6042917,4.27122853 69.6042917,4.85551123 C69.6042917,5.60906777 69.7141182,6.26704793 69.9337712,6.82922138 C70.1534243,7.39139483 70.495184,7.81147037 70.958587,8.08967829 C71.42199,8.3676559 71.9238555,8.50675986 72.4639517,8.50675986 C73.1208255,8.50675986 73.6771408,8.3174495 74.132666,7.93859849 C74.5881912,7.55974747 74.8963542,6.99757402 75.0576184,6.25184783" id="Fill-14" fill="#254588"></path>
                    <path d="M77.1313469,6.14913199 C77.1313469,4.96053011 77.4617533,4.07984544 78.1227977,3.50753858 C78.6749424,3.03195965 79.3480352,2.79428533 80.142308,2.79428533 C81.0248591,2.79428533 81.7463776,3.08354787 82.3066318,3.66161234 C82.8668861,4.24013742 83.1470132,5.03906397 83.1470132,6.05862229 C83.1470132,6.88472478 83.0230529,7.53464428 82.7751323,8.00792016 C82.5272116,8.48165666 82.1664524,8.84945306 81.6930862,9.11130935 C81.2192566,9.37316565 80.7023306,9.50420895 80.142308,9.50420895 C79.2433062,9.50420895 78.5169219,9.21609793 77.9626919,8.6398759 C77.4084619,8.06365387 77.1313469,7.2334059 77.1313469,6.14913199 Z M78.2497701,6.14913199 C78.2497701,6.9713193 78.4291071,7.58692341 78.787781,7.99594433 C79.1466866,8.40519555 79.5980412,8.6094757 80.142308,8.6094757 C80.6821725,8.6094757 81.1316735,8.40404402 81.4903474,7.99295037 C81.8490213,7.58185671 82.02859,6.95519798 82.02859,6.11297417 C82.02859,5.31911432 81.8480945,4.71755879 81.4873353,4.30853787 C81.126576,3.89951696 80.6782336,3.6947762 80.142308,3.6947762 C79.5980412,3.6947762 79.1466866,3.89836544 78.787781,4.30554391 C78.4291071,4.71249209 78.2497701,5.32717498 78.2497701,6.14913199 L78.2497701,6.14913199 Z" id="Fill-15" fill="#254588"></path>
                    <polygon id="Fill-16" fill="#254588" points="83.999443 6.6993296 87.3426641 6.6993296 87.3426641 5.6051526 83.999443 5.6051526"></polygon>
                    <path d="M88.8058591,9.35911707 L88.8058591,3.7857465 L87.8445296,3.7857465 L87.8445296,2.93937721 L88.8058591,2.93937721 L88.8058591,2.25606356 C88.8058591,1.8249334 88.8440899,1.50457975 88.9207831,1.29500259 C89.0255122,1.01287949 89.2099466,0.784187057 89.4740863,0.60892528 C89.7379943,0.433663503 90.1077899,0.345917462 90.5834731,0.345917462 C90.8897825,0.345917462 91.2282984,0.382305584 91.5990208,0.454851524 L91.4359029,1.40393665 C91.2102257,1.36363335 90.9965969,1.34336655 90.7950166,1.34336655 C90.4643785,1.34336655 90.2305917,1.41407005 90.0936561,1.55501645 C89.9567205,1.69619315 89.8881369,1.95989188 89.8881369,2.34680356 L89.8881369,2.93937721 L91.1397884,2.93937721 L91.1397884,3.7857465 L89.8881369,3.7857465 L89.8881369,9.35911707 L88.8058591,9.35911707" id="Fill-17" fill="#254588"></path>
                    <path d="M96.1941251,9.35911707 L96.1941251,8.41601986 C95.6941133,9.14147925 95.0149962,9.50420895 94.1565421,9.50420895 C93.7777101,9.50420895 93.4239019,9.43166301 93.0953492,9.28657113 C92.7670281,9.14147925 92.5230464,8.95930834 92.3638675,8.73959778 C92.2046886,8.51988722 92.0927767,8.25089148 92.0283637,7.93261057 C91.9841087,7.71888793 91.9618654,7.38034021 91.9618654,6.91696742 L91.9618654,2.93937721 L93.0501674,2.93937721 L93.0501674,6.49988585 C93.0501674,7.06804722 93.072179,7.45104372 93.1166657,7.64841473 C93.1852493,7.93468331 93.3302945,8.15923027 93.5520328,8.32251621 C93.7735395,8.48557184 94.0476424,8.56732996 94.3743415,8.56732996 C94.7005772,8.56732996 95.0068866,8.4837294 95.293038,8.31629798 C95.579421,8.14909686 95.7819281,7.92132565 95.900791,7.63321463 C96.0196539,7.34533392 96.0792012,6.92710082 96.0792012,6.37897595 L96.0792012,2.93937721 L97.1675032,2.93937721 L97.1675032,9.35911707 L96.1941251,9.35911707" id="Fill-18" fill="#254588"></path>
                    <path d="M98.8723629,9.35911707 L98.8723629,2.93937721 L99.8517651,2.93937721 L99.8517651,3.85207422 C100.323278,3.14688163 101.00448,2.79428533 101.895372,2.79428533 C102.282314,2.79428533 102.637976,2.86383731 102.962358,3.00271097 C103.28674,3.14181493 103.529563,3.32421615 103.690827,3.54991462 C103.852092,3.7756131 103.96493,4.04368762 104.029343,4.35390787 C104.069659,4.55542437 104.089817,4.90802067 104.089817,5.41169676 L104.089817,9.35911707 L103.001747,9.35911707 L103.001747,5.4540728 C103.001747,5.0107365 102.959346,4.67932823 102.874543,4.45961767 C102.789972,4.24013742 102.639829,4.06464534 102.424347,3.93383234 C102.208633,3.80278904 101.955615,3.73715224 101.665525,3.73715224 C101.20189,3.73715224 100.801973,3.88431686 100.465542,4.1786461 C100.128648,4.47274503 99.9606649,5.03100331 99.9606649,5.85296031 L99.9606649,9.35911707 L98.8723629,9.35911707" id="Fill-19" fill="#254588"></path>
                    <path d="M109.924061,9.35911707 L109.924061,8.5491359 C109.516962,9.18592803 108.918245,9.50420895 108.128375,9.50420895 C107.616546,9.50420895 107.14596,9.36303225 106.716617,9.08113945 C106.287506,8.79901636 105.955015,8.40519555 105.718911,7.89921641 C105.48327,7.39369788 105.365334,6.81217884 105.365334,6.15535021 C105.365334,5.5144126 105.472149,4.93312387 105.686009,4.41125371 C105.899406,3.88938356 106.220081,3.48934452 106.647107,3.21136691 C107.074365,2.93315899 107.552133,2.79428533 108.079949,2.79428533 C108.466891,2.79428533 108.811662,2.87581315 109.113801,3.03909909 C109.416172,3.20215473 109.662007,3.41495615 109.851307,3.67681244 L109.851307,0.49699726 L110.933585,0.49699726 L110.933585,9.35911707 L109.924061,9.35911707 Z M106.483757,6.15535021 C106.483757,6.97730722 106.65707,7.59199011 107.003696,7.99893829 C107.350321,8.40611676 107.759506,8.6094757 108.231019,8.6094757 C108.706702,8.6094757 109.110789,8.41532895 109.443512,8.02634453 C109.775772,7.63736011 109.942134,7.04386524 109.942134,6.24609021 C109.942134,5.36747828 109.772992,4.72262549 109.434476,4.31153183 C109.095729,3.90043818 108.678666,3.6947762 108.182825,3.6947762 C107.699032,3.6947762 107.294944,3.89237752 106.970562,4.28734985 C106.645948,4.68232219 106.483757,5.30506574 106.483757,6.15535021 L106.483757,6.15535021 Z" id="Fill-20" fill="#254588"></path>
                    <path d="M117.040078,7.29167295 L118.164526,7.43077691 C117.987274,8.08783585 117.658721,8.59749986 117.179099,8.96022956 C116.699477,9.32272895 116.086858,9.50420895 115.341243,9.50420895 C114.401925,9.50420895 113.657468,9.21517671 113.107177,8.63665164 C112.557117,8.05858717 112.282088,7.24745448 112.282088,6.20348387 C112.282088,5.12358574 112.560129,4.28527711 113.116213,3.68901858 C113.672528,3.09252975 114.394047,2.79428533 115.280769,2.79428533 C116.139223,2.79428533 116.840351,3.08654183 117.384618,3.67082452 C117.928885,4.25510721 118.200903,5.07729453 118.200903,6.13715615 C118.200903,6.20164143 118.198817,6.29836935 118.194878,6.42733991 L113.406535,6.42733991 C113.446851,7.1325325 113.646114,7.67259671 114.00502,8.04730225 C114.363694,8.42223808 114.81111,8.6094757 115.347267,8.6094757 C115.746257,8.6094757 116.086858,8.50491742 116.368839,8.29534027 C116.651051,8.08576311 116.874875,7.75113057 117.040078,7.29167295 Z M113.467009,5.53260666 L117.052127,5.53260666 C117.003933,4.99254244 116.866765,4.58766701 116.641088,4.31751975 C116.294463,3.89836544 115.845193,3.68901858 115.292817,3.68901858 C114.793037,3.68901858 114.37273,3.8562197 114.032129,4.19062194 C113.69176,4.52502417 113.503155,4.97250595 113.467009,5.53260666 L113.467009,5.53260666 Z" id="Fill-21" fill="#254588"></path>
                    <path d="M123.696631,9.35911707 L123.696631,8.5491359 C123.289763,9.18592803 122.690815,9.50420895 121.900944,9.50420895 C121.389115,9.50420895 120.91853,9.36303225 120.489187,9.08113945 C120.060076,8.79901636 119.727584,8.40519555 119.491712,7.89921641 C119.25584,7.39369788 119.137904,6.81217884 119.137904,6.15535021 C119.137904,5.5144126 119.244718,4.93312387 119.458579,4.41125371 C119.671976,3.88938356 119.99265,3.48934452 120.419908,3.21136691 C120.846934,2.93315899 121.324702,2.79428533 121.852518,2.79428533 C122.23946,2.79428533 122.584464,2.87581315 122.886371,3.03909909 C123.188741,3.20215473 123.434576,3.41495615 123.624108,3.67681244 L123.624108,0.49699726 L124.706386,0.49699726 L124.706386,9.35911707 L123.696631,9.35911707 Z M120.256559,6.15535021 C120.256559,6.97730722 120.429871,7.59199011 120.776497,7.99893829 C121.123122,8.40611676 121.532307,8.6094757 122.00382,8.6094757 C122.479271,8.6094757 122.883359,8.41532895 123.216082,8.02634453 C123.548574,7.63736011 123.714704,7.04386524 123.714704,6.24609021 C123.714704,5.36747828 123.545561,4.72262549 123.207046,4.31153183 C122.868298,3.90043818 122.451235,3.6947762 121.955626,3.6947762 C121.471833,3.6947762 121.067745,3.89237752 120.743132,4.28734985 C120.41875,4.68232219 120.256559,5.30506574 120.256559,6.15535021 L120.256559,6.15535021 Z" id="Fill-22" fill="#254588"></path>
                    <path d="M130.860841,9.35911707 L129.851086,9.35911707 L129.851086,0.49699726 L130.939388,0.49699726 L130.939388,3.65861838 C131.398852,3.08239635 131.985289,2.79428533 132.698698,2.79428533 C133.093749,2.79428533 133.467483,2.87374041 133.820365,3.03288087 C134.172783,3.19225163 134.463105,3.41587737 134.690867,3.70398838 C134.91863,3.9923297 135.09704,4.3398593 135.225866,4.74680747 C135.354924,5.15375564 135.419337,5.58926158 135.419337,6.05240407 C135.419337,7.1527993 135.147319,8.00308377 134.603284,8.60348778 C134.059017,9.20412209 133.406314,9.50420895 132.644248,9.50420895 C131.886584,9.50420895 131.292038,9.18777047 130.860841,8.55512382 L130.860841,9.35911707 Z M130.848561,6.10076803 C130.848561,6.8706762 130.953522,7.42686174 131.163212,7.76932463 C131.505667,8.32942534 131.96907,8.6094757 132.553653,8.6094757 C133.029336,8.6094757 133.440374,8.4031228 133.787,7.98995641 C134.133625,7.57679001 134.306938,6.9614162 134.306938,6.14314407 C134.306938,5.30506574 134.140576,4.68623737 133.808085,4.28734985 C133.475593,3.88846234 133.073591,3.68901858 132.602078,3.68901858 C132.126395,3.68901858 131.715357,3.89560178 131.368731,4.30853787 C131.021874,4.72170427 130.848561,5.31911432 130.848561,6.10076803 L130.848561,6.10076803 Z" id="Fill-23" fill="#254588"></path>
                    <path d="M136.695085,11.8316669 L136.574137,10.8098055 C136.812095,10.8742908 137.019468,10.9067638 137.196951,10.9067638 C137.438847,10.9067638 137.632318,10.8664605 137.777363,10.7858539 C137.922408,10.705017 138.041271,10.592398 138.134184,10.4473062 C138.202535,10.3386024 138.313289,10.0684551 138.466443,9.63732499 C138.486601,9.57675489 138.518808,9.48808763 138.563295,9.37132321 L136.126953,2.93937721 L137.299595,2.93937721 L138.635817,6.65695356 C138.80913,7.12861732 138.96437,7.62423275 139.101537,8.14403016 C139.226424,7.64449955 139.375408,7.15671448 139.548721,6.68113554 L140.921089,2.93937721 L142.009391,2.93937721 L139.566794,9.46805113 C139.304971,10.1732437 139.101537,10.6589561 138.95626,10.9247275 C138.76279,11.283542 138.541283,11.5465499 138.291277,11.713751 C138.041271,11.8809521 137.743071,11.9645527 137.396446,11.9645527 C137.186756,11.9645527 136.952969,11.9201039 136.695085,11.8316669" id="Fill-24" fill="#254588"></path>
                    <path d="M148.750515,8.38584996 L148.90784,9.34691093 C148.601531,9.41139621 148.327428,9.44386915 148.085532,9.44386915 C147.690481,9.44386915 147.384171,9.38122631 147.166372,9.25640123 C146.948804,9.13157616 146.795649,8.96713869 146.707139,8.76377976 C146.618398,8.56019052 146.574143,8.13205433 146.574143,7.47914087 L146.574143,3.7857465 L145.775931,3.7857465 L145.775931,2.93937721 L146.574143,2.93937721 L146.574143,1.34935447 L147.656189,0.696441016 L147.656189,2.93937721 L148.750515,2.93937721 L148.750515,3.7857465 L147.656189,3.7857465 L147.656189,7.53948067 C147.656189,7.84993123 147.67542,8.04937499 147.713882,8.13804225 C147.752113,8.2267095 147.814441,8.2971827 147.901097,8.34969214 C147.987754,8.40197128 148.111482,8.428226 148.272978,8.428226 C148.393695,8.428226 148.553105,8.41417742 148.750515,8.38584996" id="Fill-25" fill="#254588"></path>
                    <path d="M149.81472,9.35911707 L149.81472,0.49699726 L150.903022,0.49699726 L150.903022,3.67681244 C151.410912,3.08838427 152.051566,2.79428533 152.825449,2.79428533 C153.301133,2.79428533 153.714256,2.88801929 154.065052,3.07525691 C154.415617,3.26272483 154.66655,3.52181747 154.817851,3.85207422 C154.96892,4.18256128 155.044455,4.66205539 155.044455,5.29078686 L155.044455,9.35911707 L153.956153,9.35911707 L153.956153,5.29078686 C153.956153,4.74680747 153.838217,4.35091392 153.602576,4.10287589 C153.366704,3.85506818 153.033286,3.73116432 152.601857,3.73116432 C152.279561,3.73116432 151.976032,3.81476488 151.692197,3.981966 C151.4079,4.14939742 151.205392,4.37601711 151.084444,4.66205539 C150.963496,4.94832397 150.903022,5.3432963 150.903022,5.84697239 L150.903022,9.35911707 L149.81472,9.35911707" id="Fill-26" fill="#254588"></path>
                    <path d="M161.096035,7.29167295 L162.220714,7.43077691 C162.04323,8.08783585 161.714678,8.59749986 161.235287,8.96022956 C160.755665,9.32272895 160.142815,9.50420895 159.397199,9.50420895 C158.458113,9.50420895 157.713656,9.21517671 157.163365,8.63665164 C156.613306,8.05858717 156.338044,7.24745448 156.338044,6.20348387 C156.338044,5.12358574 156.616318,4.28527711 157.172401,3.68901858 C157.728485,3.09252975 158.450003,2.79428533 159.336957,2.79428533 C160.195411,2.79428533 160.89654,3.08654183 161.440807,3.67082452 C161.984842,4.25510721 162.256859,5.07729453 162.256859,6.13715615 C162.256859,6.20164143 162.254774,6.29836935 162.251067,6.42733991 L157.462723,6.42733991 C157.503039,7.1325325 157.702303,7.67259671 158.061208,8.04730225 C158.419882,8.42223808 158.867066,8.6094757 159.403455,8.6094757 C159.802213,8.6094757 160.142815,8.50491742 160.425027,8.29534027 C160.70724,8.08576311 160.931063,7.75113057 161.096035,7.29167295 Z M157.523197,5.53260666 L161.108315,5.53260666 C161.059889,4.99254244 160.922722,4.58766701 160.697276,4.31751975 C160.350651,3.89836544 159.90115,3.68901858 159.348774,3.68901858 C158.848993,3.68901858 158.428919,3.8562197 158.088317,4.19062194 C157.747716,4.52502417 157.559343,4.97250595 157.523197,5.53260666 L157.523197,5.53260666 Z" id="Fill-27" fill="#254588"></path>
                    <polyline id="Fill-28" fill="#254588" points="68.7578861 24.2153739 68.7578861 15.3532541 75.1665181 15.3532541 75.1665181 16.3990671 69.9307591 16.3990671 69.9307591 19.1134368 74.8340265 19.1134368 74.8340265 20.1532619 69.9307591 20.1532619 69.9307591 23.1695608 75.3720374 23.1695608 75.3720374 24.2153739 68.7578861 24.2153739"></polyline>
                    <path d="M76.8412566,24.2153739 L76.8412566,17.795634 L77.8206589,17.795634 L77.8206589,18.7689011 C78.0704331,18.313589 78.3012078,18.0132719 78.5127513,17.86818 C78.7245265,17.7230881 78.9573865,17.6505422 79.2113314,17.6505422 C79.5778831,17.6505422 79.9509226,17.7675369 80.3297545,18.001296 L79.9548615,19.0107209 C79.6888682,18.8534229 79.4228748,18.7748891 79.1568815,18.7748891 C78.918924,18.7748891 78.7052953,18.8465138 78.5159951,18.9895329 C78.3264633,19.1325521 78.1913813,19.3310746 78.1109809,19.5851005 C77.9900327,19.9717819 77.9293269,20.3950817 77.9293269,20.8545393 L77.9293269,24.2153739 L76.8412566,24.2153739" id="Fill-29" fill="#254588"></path>
                    <path d="M85.1662918,23.4235868 C84.7633629,23.7660497 84.3752629,24.0078695 84.0024551,24.1488159 C83.6296474,24.2899926 83.2294989,24.3604658 82.802473,24.3604658 C82.0969419,24.3604658 81.5547604,24.188198 81.1761601,23.8436623 C80.7970965,23.4991267 80.6077963,23.0587843 80.6077963,22.5228656 C80.6077963,22.2084999 80.6793921,21.9215404 80.8223519,21.6615265 C80.9655435,21.4015127 81.1527583,21.1928567 81.3846915,21.035789 C81.616393,20.878491 81.8775206,20.7598841 82.1676109,20.6790472 C82.3812397,20.6228529 82.7035365,20.568501 83.1349647,20.5159916 C84.0135768,20.411203 84.6604874,20.2861476 85.0756965,20.1410558 C85.0796355,19.9920487 85.0817208,19.8971632 85.0817208,19.8570902 C85.0817208,19.4137539 84.9788453,19.1012306 84.7733261,18.9199809 C84.4952843,18.674246 84.0821605,18.5512633 83.5339547,18.5512633 C83.0221261,18.5512633 82.6442209,18.6408518 82.4002392,18.8202591 C82.1564892,18.9996663 81.9759938,19.317026 81.8592162,19.7723382 L80.7952429,19.6272463 C80.8918624,19.1719341 81.0510413,18.8041377 81.2727797,18.5240874 C81.494518,18.244037 81.8147295,18.0282417 82.2341092,17.8771619 C82.6532573,17.7260821 83.1389036,17.6505422 83.6910483,17.6505422 C84.2392541,17.6505422 84.6845844,17.7150274 85.0272709,17.843998 C85.3697257,17.9729686 85.621817,18.135103 85.7828495,18.3306315 C85.9441138,18.5261601 86.0571841,18.7730466 86.1215971,19.0710607 C86.1579743,19.2564559 86.176047,19.5908582 86.176047,20.0744977 L86.176047,21.5254165 C86.176047,22.5369142 86.1989854,23.1769306 86.2455575,23.4447748 C86.2918978,23.7128493 86.3834198,23.9696389 86.5205871,24.2153739 L85.3838595,24.2153739 C85.2712526,23.9899057 85.1984983,23.7257464 85.1662918,23.4235868 Z M85.0756965,20.993413 C84.6806455,21.1546262 84.087953,21.2916574 83.2980826,21.4045066 C82.8506669,21.4692222 82.5343944,21.5415378 82.3490332,21.6221444 C82.1634403,21.702751 82.0204804,21.820667 81.9196903,21.9758923 C81.8189001,22.1311175 81.7686209,22.3033854 81.7686209,22.4926957 C81.7686209,22.7828795 81.8782157,23.0246993 82.0981004,23.2179248 C82.3177535,23.4113806 82.6391235,23.5081086 83.0624421,23.5081086 C83.4815902,23.5081086 83.8543979,23.4166776 84.1808653,23.2331249 C84.5073327,23.0498025 84.7471438,22.7990008 84.9002985,22.4804896 C85.0170761,22.2347546 85.0756965,21.8722552 85.0756965,21.3925308 L85.0756965,20.993413 L85.0756965,20.993413 Z" id="Fill-30" fill="#254588"></path>
                    <path d="M87.4274668,22.2992399 L88.5037204,22.129966 C88.5639627,22.5613265 88.7324097,22.8915832 89.0083662,23.1211969 C89.2845544,23.3510408 89.6705692,23.4659628 90.1661787,23.4659628 C90.6659588,23.4659628 91.0369129,23.3641682 91.2785776,23.160579 C91.520474,22.95722 91.6414222,22.7181639 91.6414222,22.4443318 C91.6414222,22.1985968 91.5346078,22.0051409 91.320979,21.8639642 C91.1717632,21.7672363 90.8010408,21.6442537 90.2085801,21.4952466 C89.4106001,21.2937301 88.8572969,21.1193896 88.5489021,20.9724553 C88.2405074,20.8252906 88.0069523,20.6217014 87.8477734,20.3616875 C87.6883627,20.1016737 87.6088891,19.8147142 87.6088891,19.5003485 C87.6088891,19.2143102 87.674229,18.9492296 87.805372,18.7053371 C87.9362834,18.4616748 88.1144618,18.2590068 88.3403708,18.0977936 C88.5097446,17.9729686 88.7402876,17.8672588 89.0326949,17.7804339 C89.3248705,17.6938394 89.6381309,17.6505422 89.9729396,17.6505422 C90.476427,17.6505422 90.9189769,17.7230881 91.2996625,17.86818 C91.6808114,18.0132719 91.9618654,18.2097217 92.1432877,18.4575294 C92.3244782,18.7053371 92.4493653,19.0369757 92.517949,19.4519845 L91.4539757,19.5970764 C91.4057818,19.2665893 91.2656023,19.0086482 91.0339008,18.823253 C90.8019676,18.6378578 90.4745734,18.5452754 90.0512547,18.5452754 C89.5514746,18.5452754 89.194886,18.6279547 88.9812572,18.7930831 C88.7676284,18.9584418 88.660814,19.1518976 88.660814,19.3734506 C88.660814,19.514397 88.705069,19.6415252 88.7938106,19.7541441 C88.8823206,19.8711388 89.0213415,19.9678667 89.2108734,20.0443278 C89.3197731,20.0846311 89.6402163,20.1772136 90.1722029,20.3223055 C90.942147,20.5279674 91.4792311,20.6963201 91.7834552,20.8273634 C92.0876793,20.9581764 92.3265635,21.1486383 92.4998763,21.3985187 C92.673189,21.6483992 92.7598454,21.9588497 92.7598454,22.3294098 C92.7598454,22.6921395 92.6541895,23.0336812 92.4424143,23.3540348 C92.2308708,23.6743885 91.9254882,23.9221962 91.5264982,24.0976883 C91.1275082,24.2727197 90.6761537,24.3604658 90.1722029,24.3604658 C89.3378458,24.3604658 88.7020568,24.1872767 88.2648361,23.8408987 C87.8273837,23.4942903 87.548415,22.9802505 87.4274668,22.2992399" id="Fill-31" fill="#254588"></path>
                    <path d="M94.0536666,24.2153739 L94.0536666,17.795634 L95.0270446,17.795634 L95.0270446,18.6963552 C95.2286249,18.3819895 95.4967036,18.1291151 95.8312806,17.937732 C96.1658575,17.7463489 96.5465431,17.6505422 96.9738007,17.6505422 C97.4494839,17.6505422 97.8394375,17.7493428 98.1436616,17.9467138 C98.4481174,18.1443152 98.662673,18.42022 98.7875601,18.7748891 C99.2954498,18.025478 99.9564942,17.6505422 100.770693,17.6505422 C101.407409,17.6505422 101.896994,17.8269555 102.239681,18.1793214 C102.582136,18.532148 102.753827,19.0752062 102.753827,19.8087263 L102.753827,24.2153739 L101.67178,24.2153739 L101.67178,20.171456 C101.67178,19.7361803 101.63633,19.4227358 101.565893,19.2313527 C101.495224,19.0399696 101.367093,18.8856656 101.1815,18.7689011 C100.996602,18.6521367 100.778803,18.5936394 100.529029,18.5936394 C100.077442,18.5936394 99.7027811,18.7437979 99.4043495,19.0438848 C99.105918,19.344202 98.9569339,19.8248476 98.9569339,20.4855914 L98.9569339,24.2153739 L97.8686319,24.2153739 L97.8686319,20.0443278 C97.8686319,19.5609186 97.7798903,19.1979586 97.6026386,18.9563691 C97.4253869,18.7145493 97.135065,18.5936394 96.732136,18.5936394 C96.4258266,18.5936394 96.1424557,18.674246 95.8827183,18.8354592 C95.6227492,18.9966724 95.4341442,19.2322739 95.3173666,19.5424942 C95.2003574,19.8529448 95.1419686,20.3001962 95.1419686,20.8847092 L95.1419686,24.2153739 L94.0536666,24.2153739" id="Fill-32" fill="#254588"></path>
                    <path d="M108.57579,24.2153739 L108.57579,23.272507 C108.07601,23.9977361 107.397125,24.3604658 106.538439,24.3604658 C106.159607,24.3604658 105.805799,24.2881501 105.477246,24.142828 C105.148693,23.9977361 104.905175,23.8155652 104.745764,23.5958546 C104.586585,23.3763743 104.474674,23.1071483 104.410261,22.7888674 C104.366006,22.5751448 104.343762,22.2368273 104.343762,21.7732242 L104.343762,17.795634 L105.432064,17.795634 L105.432064,21.3561427 C105.432064,21.924304 105.454076,22.3073005 105.498563,22.5046716 C105.566915,22.7909401 105.712191,23.0154871 105.933698,23.178773 C106.155436,23.3418287 106.429539,23.4235868 106.756007,23.4235868 C107.082474,23.4235868 107.388784,23.3399862 107.675167,23.1727851 C107.961086,23.005584 108.163593,22.7778128 108.282688,22.4894715 C108.401551,22.2013604 108.460866,21.7833576 108.460866,21.2352328 L108.460866,17.795634 L109.5494,17.795634 L109.5494,24.2153739 L108.57579,24.2153739" id="Fill-33" fill="#254588"></path>
                    <path d="M110.818661,22.2992399 L111.894914,22.129966 C111.955389,22.5613265 112.123604,22.8915832 112.399792,23.1211969 C112.675749,23.3510408 113.061763,23.4659628 113.557373,23.4659628 C114.057385,23.4659628 114.428107,23.3641682 114.670003,23.160579 C114.911668,22.95722 115.032848,22.7181639 115.032848,22.4443318 C115.032848,22.1985968 114.926034,22.0051409 114.712405,21.8639642 C114.562957,21.7672363 114.192467,21.6442537 113.599774,21.4952466 C112.801794,21.2937301 112.248723,21.1193896 111.940328,20.9724553 C111.631933,20.8252906 111.398146,20.6217014 111.238967,20.3616875 C111.079557,20.1016737 111.000083,19.8147142 111.000083,19.5003485 C111.000083,19.2143102 111.065655,18.9492296 111.196566,18.7053371 C111.327709,18.4616748 111.505888,18.2590068 111.731797,18.0977936 C111.900939,17.9729686 112.131713,17.8672588 112.423889,17.7804339 C112.716296,17.6938394 113.029325,17.6505422 113.364134,17.6505422 C113.867853,17.6505422 114.310403,17.7230881 114.691088,17.86818 C115.072237,18.0132719 115.353059,18.2097217 115.534713,18.4575294 C115.715904,18.7053371 115.840791,19.0369757 115.909375,19.4519845 L114.845401,19.5970764 C114.796976,19.2665893 114.657028,19.0086482 114.425327,18.823253 C114.193393,18.6378578 113.865999,18.5452754 113.442681,18.5452754 C112.9429,18.5452754 112.58608,18.6279547 112.372451,18.7930831 C112.158822,18.9584418 112.05224,19.1518976 112.05224,19.3734506 C112.05224,19.514397 112.096495,19.6415252 112.185236,19.7541441 C112.273978,19.8711388 112.412767,19.9678667 112.602531,20.0443278 C112.711199,20.0846311 113.031642,20.1772136 113.563629,20.3223055 C114.333341,20.5279674 114.870425,20.6963201 115.174881,20.8273634 C115.479105,20.9581764 115.717989,21.1486383 115.891302,21.3985187 C116.064615,21.6483992 116.151271,21.9588497 116.151271,22.3294098 C116.151271,22.6921395 116.045384,23.0336812 115.83384,23.3540348 C115.622297,23.6743885 115.316914,23.9221962 114.917924,24.0976883 C114.518934,24.2727197 114.067348,24.3604658 113.563629,24.3604658 C112.729272,24.3604658 112.093483,24.1872767 111.65603,23.8408987 C111.218809,23.4942903 110.939841,22.9802505 110.818661,22.2992399" id="Fill-34" fill="#254588"></path>
                    <polyline id="Fill-35" fill="#254588" points="119.730364 22.7828795 119.730364 20.3527057 117.31812 20.3527057 117.31812 19.3370625 119.730364 19.3370625 119.730364 16.9250828 120.758192 16.9250828 120.758192 19.3370625 123.170668 19.3370625 123.170668 20.3527057 120.758192 20.3527057 120.758192 22.7828795 119.730364 22.7828795"></polyline>
                    <path d="M128.255126,24.2153739 L128.255126,15.3532541 L131.598579,15.3532541 C132.186869,15.3532541 132.636138,15.3818119 132.946618,15.4380062 C133.381986,15.5105521 133.746684,15.6487348 134.040945,15.8520938 C134.334974,16.055683 134.572005,16.3408001 134.751341,16.7074449 C134.930678,17.0743201 135.020347,17.4773531 135.020347,17.9165439 C135.020347,18.6701005 134.780536,19.3078138 134.300914,19.829684 C133.821292,20.3517844 132.954728,20.6127195 131.701223,20.6127195 L129.427999,20.6127195 L129.427999,24.2153739 L128.255126,24.2153739 Z M129.427999,19.5666762 L131.719296,19.5666762 C132.477191,19.5666762 133.015202,19.4257298 133.33356,19.1436067 C133.651918,18.8614836 133.811328,18.4646688 133.811328,17.9529321 C133.811328,17.5821417 133.717489,17.264782 133.530043,17.0006227 C133.342596,16.7366936 133.095834,16.5623531 132.789293,16.4778313 C132.591883,16.4255522 132.227185,16.3990671 131.695199,16.3990671 L129.427999,16.3990671 L129.427999,19.5666762 L129.427999,19.5666762 Z" id="Fill-36" fill="#254588"></path>
                    <path d="M136.362594,24.2153739 L136.362594,17.795634 L137.341996,17.795634 L137.341996,18.7689011 C137.592002,18.313589 137.822545,18.0132719 138.03432,17.86818 C138.245864,17.7230881 138.478724,17.6505422 138.732669,17.6505422 C139.09922,17.6505422 139.472028,17.7675369 139.851092,18.001296 L139.476199,19.0107209 C139.210205,18.8534229 138.944212,18.7748891 138.678219,18.7748891 C138.440261,18.7748891 138.226632,18.8465138 138.037332,18.9895329 C137.8478,19.1325521 137.712718,19.3310746 137.632318,19.5851005 C137.511138,19.9717819 137.450896,20.3950817 137.450896,20.8545393 L137.450896,24.2153739 L136.362594,24.2153739" id="Fill-37" fill="#254588"></path>
                    <path d="M140.092988,21.0056191 C140.092988,19.8167869 140.423394,18.9361023 141.084439,18.3637954 C141.636584,17.8884468 142.309676,17.6505422 143.103717,17.6505422 C143.9865,17.6505422 144.708019,17.9398047 145.268273,18.5180995 C145.828527,19.0963942 146.108654,19.8953208 146.108654,20.9148791 C146.108654,21.7409816 145.984694,22.3909011 145.736773,22.8644073 C145.488853,23.3379135 145.128094,23.7057099 144.654727,23.9675662 C144.181129,24.2296528 143.663972,24.3604658 143.103717,24.3604658 C142.204947,24.3604658 141.478331,24.0723548 140.924333,23.4961327 C140.369871,22.9196804 140.092988,22.0896627 140.092988,21.0056191 Z M141.211411,21.0056191 C141.211411,21.8275761 141.390517,22.4434105 141.749422,22.8524315 C142.108096,23.2614524 142.559682,23.4659628 143.103717,23.4659628 C143.643814,23.4659628 144.093315,23.2603008 144.451989,22.8494375 C144.810662,22.4383438 144.990231,21.8116851 144.990231,20.969231 C144.990231,20.1756015 144.809504,19.5738156 144.448976,19.1647947 C144.088217,18.7557738 143.639875,18.5512633 143.103717,18.5512633 C142.559682,18.5512633 142.108096,18.7548526 141.749422,19.1618007 C141.390517,19.5689792 141.211411,20.1834318 141.211411,21.0056191 L141.211411,21.0056191 Z" id="Fill-38" fill="#254588"></path>
                    <path d="M147.184444,24.7473774 L148.242625,24.9046755 C148.28688,25.2312473 148.409682,25.4689217 148.611494,25.6179287 C148.881426,25.8194452 149.250063,25.9203186 149.717869,25.9203186 C150.221588,25.9203186 150.610383,25.8194452 150.884718,25.6179287 C151.15882,25.4164122 151.34395,25.1342891 151.441033,24.7715594 C151.497336,24.5500064 151.523519,24.0845609 151.519348,23.3752228 C151.043896,23.9355538 150.451436,24.2153739 149.741966,24.2153739 C148.859415,24.2153739 148.176127,23.8973233 147.692566,23.2603008 C147.208773,22.6235087 146.966877,21.8600491 146.966877,20.969231 C146.966877,20.3568511 147.077862,19.7914534 147.299368,19.2734985 C147.521338,18.7557738 147.842477,18.3559651 148.263942,18.0736117 C148.684943,17.7917189 149.179858,17.6505422 149.74799,17.6505422 C150.505654,17.6505422 151.130553,17.9568472 151.622455,18.5694574 L151.622455,17.795634 L152.625954,17.795634 L152.625954,23.3450529 C152.625954,24.3443445 152.524006,25.0527613 152.320572,25.4698429 C152.116906,25.8869245 151.794609,26.2164903 151.35345,26.4583101 C150.911827,26.7001299 150.368718,26.8208095 149.723893,26.8208095 C148.958119,26.8208095 148.339476,26.6485417 147.867964,26.304006 C147.396451,25.9594704 147.168457,25.4405942 147.184444,24.7473774 Z M148.085532,20.8906971 C148.085532,21.7329209 148.25282,22.3476038 148.587165,22.7345155 C148.921742,23.1211969 149.34089,23.3146527 149.844841,23.3146527 C150.344621,23.3146527 150.763769,23.1223484 151.102517,22.7372792 C151.441033,22.3526705 151.610175,21.7490423 151.610175,20.926855 C151.610175,20.1410558 151.435704,19.5487124 151.087225,19.1495946 C150.738514,18.7507071 150.318439,18.5512633 149.826768,18.5512633 C149.342976,18.5512633 148.931706,18.7477131 148.59319,19.1406127 C148.254674,19.5335123 148.085532,20.1171041 148.085532,20.8906971 L148.085532,20.8906971 Z" id="Fill-39" fill="#254588"></path>
                    <path d="M154.258523,24.2153739 L154.258523,17.795634 L155.237694,17.795634 L155.237694,18.7689011 C155.4877,18.313589 155.718474,18.0132719 155.93025,17.86818 C156.141793,17.7230881 156.374421,17.6505422 156.628366,17.6505422 C156.994918,17.6505422 157.367957,17.7675369 157.746789,18.001296 L157.371896,19.0107209 C157.106135,18.8534229 156.83991,18.7748891 156.573916,18.7748891 C156.336191,18.7748891 156.122562,18.8465138 155.93303,18.9895329 C155.74373,19.1325521 155.608648,19.3310746 155.528016,19.5851005 C155.407068,19.9717819 155.346593,20.3950817 155.346593,20.8545393 L155.346593,24.2153739 L154.258523,24.2153739" id="Fill-40" fill="#254588"></path>
                    <path d="M162.583558,23.4235868 C162.180398,23.7660497 161.792529,24.0078695 161.419722,24.1488159 C161.046914,24.2899926 160.646765,24.3604658 160.219508,24.3604658 C159.514209,24.3604658 158.972027,24.188198 158.593427,23.8436623 C158.214363,23.4991267 158.024831,23.0587843 158.024831,22.5228656 C158.024831,22.2084999 158.096427,21.9215404 158.239619,21.6615265 C158.382578,21.4015127 158.570025,21.1928567 158.801958,21.035789 C159.03366,20.878491 159.294555,20.7598841 159.584877,20.6790472 C159.798506,20.6228529 160.120803,20.568501 160.552231,20.5159916 C161.430843,20.411203 162.077754,20.2861476 162.492963,20.1410558 C162.496902,19.9920487 162.498987,19.8971632 162.498987,19.8570902 C162.498987,19.4137539 162.396112,19.1012306 162.190593,18.9199809 C161.912551,18.674246 161.499427,18.5512633 160.951221,18.5512633 C160.439393,18.5512633 160.061487,18.6408518 159.817737,18.8202591 C159.573756,18.9996663 159.393492,19.317026 159.276483,19.7723382 L158.212509,19.6272463 C158.309129,19.1719341 158.46854,18.8041377 158.690046,18.5240874 C158.911785,18.244037 159.231996,18.0282417 159.651376,17.8771619 C160.070524,17.7260821 160.55617,17.6505422 161.108315,17.6505422 C161.656521,17.6505422 162.101851,17.7150274 162.444537,17.843998 C162.786992,17.9729686 163.039084,18.135103 163.200116,18.3306315 C163.36138,18.5261601 163.474219,18.7730466 163.538632,19.0710607 C163.575241,19.2564559 163.593314,19.5908582 163.593314,20.0744977 L163.593314,21.5254165 C163.593314,22.5369142 163.616252,23.1769306 163.662824,23.4447748 C163.709164,23.7128493 163.800686,23.9696389 163.937854,24.2153739 L162.801358,24.2153739 C162.688287,23.9899057 162.615765,23.7257464 162.583558,23.4235868 Z M162.492963,20.993413 C162.097912,21.1546262 161.505451,21.2916574 160.715349,21.4045066 C160.267934,21.4692222 159.951661,21.5415378 159.766068,21.6221444 C159.580707,21.702751 159.437515,21.820667 159.336957,21.9758923 C159.236167,22.1311175 159.185656,22.3033854 159.185656,22.4926957 C159.185656,22.7828795 159.295714,23.0246993 159.515367,23.2179248 C159.734788,23.4113806 160.05639,23.5081086 160.479477,23.5081086 C160.898857,23.5081086 161.271664,23.4166776 161.5979,23.2331249 C161.924599,23.0498025 162.16441,22.7990008 162.317565,22.4804896 C162.434574,22.2347546 162.492963,21.8722552 162.492963,21.3925308 L162.492963,20.993413 L162.492963,20.993413 Z" id="Fill-41" fill="#254588"></path>
                    <path d="M165.279869,24.2153739 L165.279869,17.795634 L166.253247,17.795634 L166.253247,18.6963552 C166.454596,18.3819895 166.722906,18.1291151 167.057483,17.937732 C167.391828,17.7463489 167.772745,17.6505422 168.200235,17.6505422 C168.675454,17.6505422 169.06564,17.7493428 169.369864,17.9467138 C169.67432,18.1443152 169.888875,18.42022 170.013994,18.7748891 C170.521652,18.025478 171.182696,17.6505422 171.996896,17.6505422 C172.633611,17.6505422 173.123428,17.8269555 173.465883,18.1793214 C173.80857,18.532148 173.980029,19.0752062 173.980029,19.8087263 L173.980029,24.2153739 L172.897751,24.2153739 L172.897751,20.171456 C172.897751,19.7361803 172.862532,19.4227358 172.791863,19.2313527 C172.721195,19.0399696 172.593527,18.8856656 172.407934,18.7689011 C172.222573,18.6521367 172.005005,18.5936394 171.754999,18.5936394 C171.303645,18.5936394 170.928752,18.7437979 170.630552,19.0438848 C170.33212,19.344202 170.183136,19.8248476 170.183136,20.4855914 L170.183136,24.2153739 L169.094834,24.2153739 L169.094834,20.0443278 C169.094834,19.5609186 169.006093,19.1979586 168.828841,18.9563691 C168.651358,18.7145493 168.361267,18.5936394 167.958338,18.5936394 C167.651797,18.5936394 167.36889,18.674246 167.108921,18.8354592 C166.84872,18.9966724 166.660346,19.2322739 166.543569,19.5424942 C166.42656,19.8529448 166.368171,20.3001962 166.368171,20.8847092 L166.368171,24.2153739 L165.279869,24.2153739" id="Fill-42" fill="#254588"></path>
                    <path d="M175.594293,24.2153739 L175.594293,17.795634 L176.567671,17.795634 L176.567671,18.6963552 C176.76902,18.3819895 177.037099,18.1291151 177.371907,17.937732 C177.706252,17.7463489 178.08717,17.6505422 178.514427,17.6505422 C178.989879,17.6505422 179.379832,17.7493428 179.684288,17.9467138 C179.988512,18.1443152 180.203068,18.42022 180.328187,18.7748891 C180.836076,18.025478 181.496889,17.6505422 182.31132,17.6505422 C182.948036,17.6505422 183.437621,17.8269555 183.780308,18.1793214 C184.122762,18.532148 184.294453,19.0752062 184.294453,19.8087263 L184.294453,24.2153739 L183.212175,24.2153739 L183.212175,20.171456 C183.212175,19.7361803 183.176725,19.4227358 183.106288,19.2313527 C183.035619,19.0399696 182.90772,18.8856656 182.722127,18.7689011 C182.536766,18.6521367 182.319198,18.5936394 182.069424,18.5936394 C181.618069,18.5936394 181.243176,18.7437979 180.944976,19.0438848 C180.646313,19.344202 180.497561,19.8248476 180.497561,20.4855914 L180.497561,24.2153739 L179.409259,24.2153739 L179.409259,20.0443278 C179.409259,19.5609186 179.320517,19.1979586 179.143265,18.9563691 C178.96555,18.7145493 178.675692,18.5936394 178.272531,18.5936394 C177.966222,18.5936394 177.683082,18.674246 177.423113,18.8354592 C177.163144,18.9966724 176.974771,19.2322739 176.857993,19.5424942 C176.740984,19.8529448 176.682595,20.3001962 176.682595,20.8847092 L176.682595,24.2153739 L175.594293,24.2153739" id="Fill-43" fill="#254588"></path>
                    <path d="M190.303632,22.1481601 L191.428311,22.2870337 C191.250828,22.9440927 190.922275,23.4537567 190.442884,23.8164864 C189.963031,24.1792161 189.350412,24.3604658 188.604796,24.3604658 C187.665478,24.3604658 186.921021,24.0714335 186.37073,23.4931388 C185.820671,22.914844 185.545641,22.1039416 185.545641,21.059971 C185.545641,19.9798426 185.823683,19.1417642 186.379767,18.5452754 C186.936082,17.9487866 187.657601,17.6505422 188.544322,17.6505422 C189.402776,17.6505422 190.104137,17.9427987 190.648172,18.5270813 C191.192439,19.111364 191.464456,19.9335513 191.464456,20.993413 C191.464456,21.0581286 191.462371,21.1546262 191.458432,21.2835967 L186.670089,21.2835967 C186.710405,21.9887893 186.9099,22.5288535 187.268574,22.9035591 C187.627248,23.2784949 188.074663,23.4659628 188.610821,23.4659628 C189.009811,23.4659628 189.350412,23.3609439 189.632624,23.1513668 C189.914605,22.9420199 190.138429,22.6073874 190.303632,22.1481601 Z M186.730563,20.3888635 L190.315912,20.3888635 C190.267486,19.8490296 190.130319,19.4439238 189.904642,19.1737766 C189.558016,18.7548526 189.108747,18.5452754 188.556371,18.5452754 C188.056591,18.5452754 187.636284,18.7124765 187.295914,19.0468788 C186.955313,19.3815113 186.766708,19.8287628 186.730563,20.3888635 L186.730563,20.3888635 Z" id="Fill-44" fill="#254588"></path>
                    <path d="M68.1895223,35.8621062 C68.1895223,34.6732741 68.5201603,33.7925894 69.1812047,33.2202825 C69.7331177,32.7449339 70.4064423,32.506799 71.2004834,32.506799 C72.0830344,32.506799 72.8045529,32.7960615 73.3648072,33.3743563 C73.9250614,33.9528814 74.2051886,34.7515776 74.2051886,35.7713662 C74.2051886,36.5974687 74.0812282,37.2471579 73.8333076,37.7208944 C73.585387,38.1944006 73.2246278,38.5619667 72.7512616,38.8240533 C72.277432,39.0861399 71.7605059,39.2169529 71.2004834,39.2169529 C70.3017132,39.2169529 69.5750973,38.9288419 69.0208673,38.3526199 C68.4666373,37.7761675 68.1895223,36.9461499 68.1895223,35.8621062 Z M69.3079455,35.8621062 C69.3079455,36.6840633 69.4872824,37.2998977 69.8461881,37.7086883 C70.204862,38.1179395 70.6562165,38.3222197 71.2004834,38.3222197 C71.7405796,38.3222197 72.1898488,38.116788 72.5485228,37.7059246 C72.9074284,37.2946007 73.0867654,36.6681722 73.0867654,35.8257181 C73.0867654,35.0318583 72.9062699,34.4303027 72.5457424,34.0212818 C72.1847514,33.6122609 71.736409,33.4077505 71.2004834,33.4077505 C70.6562165,33.4077505 70.204862,33.6111094 69.8461881,34.0182879 C69.4872824,34.425236 69.3079455,35.0396886 69.3079455,35.8621062 L69.3079455,35.8621062 Z" id="Fill-45" fill="#254588"></path>
                    <path d="M75.7409062,39.071861 L75.7409062,33.4982602 L74.7795766,33.4982602 L74.7795766,32.6518909 L75.7409062,32.6518909 L75.7409062,31.9688075 C75.7409062,31.5376774 75.7791369,31.217554 75.8555984,31.0079768 C75.9603275,30.7258538 76.1447619,30.496931 76.4089016,30.3216692 C76.6728096,30.1461772 77.0426052,30.0588917 77.5182884,30.0588917 C77.8245978,30.0588917 78.1631137,30.0950495 78.5340678,30.1675955 L78.3707183,31.1164503 C78.145041,31.076147 77.9314122,31.0563408 77.7300636,31.0563408 C77.3994256,31.0563408 77.1656387,31.1265837 77.0287031,31.2677604 C76.8915358,31.4089371 76.8229522,31.6726358 76.8229522,32.0595475 L76.8229522,32.6518909 L78.0746038,32.6518909 L78.0746038,33.4982602 L76.8229522,33.4982602 L76.8229522,39.071861 L75.7409062,39.071861" id="Fill-46" fill="#254588"></path>
                    <path d="M84.7371806,38.0988242 L84.8942743,39.0598852 C84.5879649,39.1243705 84.313862,39.1563828 84.0721973,39.1563828 C83.6771462,39.1563828 83.3708368,39.0939703 83.1530374,38.9691452 C82.9354697,38.8443201 82.782315,38.680113 82.6935733,38.4765237 C82.6048316,38.2731648 82.5605767,37.8447983 82.5605767,37.1918848 L82.5605767,33.4982602 L81.7625967,33.4982602 L81.7625967,32.6518909 L82.5605767,32.6518909 L82.5605767,31.0620984 L83.6428544,30.4094153 L83.6428544,32.6518909 L84.7371806,32.6518909 L84.7371806,33.4982602 L83.6428544,33.4982602 L83.6428544,37.2524549 C83.6428544,37.5629055 83.6618539,37.7623492 83.7003164,37.8510165 C83.7385471,37.9394535 83.8008748,38.010157 83.8877629,38.0622058 C83.9741876,38.1147152 84.0983796,38.14097 84.2594121,38.14097 C84.3803603,38.14097 84.5395392,38.1269214 84.7371806,38.0988242" id="Fill-47" fill="#254588"></path>
                    <path d="M85.801154,39.071861 L85.801154,30.2099715 L86.8894559,30.2099715 L86.8894559,33.3895564 C87.3973457,32.8013585 88.038232,32.506799 88.8121151,32.506799 C89.2875666,32.506799 89.7006903,32.6007632 90.0514864,32.7880009 C90.4020508,32.9754688 90.6529835,33.2345614 90.8040529,33.5648182 C90.955354,33.8955355 91.0308887,34.3750296 91.0308887,35.0035308 L91.0308887,39.071861 L89.9425867,39.071861 L89.9425867,35.0035308 C89.9425867,34.4595514 89.8246507,34.0634276 89.5890102,33.8156198 C89.3531381,33.5678121 89.0194879,33.4439083 88.5882914,33.4439083 C88.2657629,33.4439083 87.9626973,33.5277391 87.6783996,33.6949403 C87.3943335,33.8621414 87.1915947,34.0889914 87.0708782,34.3750296 C86.94993,34.6610679 86.8894559,35.0560403 86.8894559,35.5597163 L86.8894559,39.071861 L85.801154,39.071861" id="Fill-48" fill="#254588"></path>
                    <path d="M97.0827004,37.0046472 L98.2073795,37.1435209 C98.0298962,37.8005798 97.7013434,38.3102438 97.221953,38.6729735 C96.7420992,39.0357032 96.1294804,39.2169529 95.383865,39.2169529 C94.4447787,39.2169529 93.7000901,38.9279207 93.149799,38.3496259 C92.5997396,37.7713311 92.3247099,36.9601984 92.3247099,35.9164581 C92.3247099,34.83656 92.6027517,33.9980211 93.1590671,33.4015322 C93.7151507,32.8052737 94.4366692,32.506799 95.3233909,32.506799 C96.1818449,32.506799 96.8832054,32.7992858 97.4274723,33.3835685 C97.9715074,33.9678512 98.2437567,34.7898082 98.2437567,35.8499001 C98.2437567,35.9143854 98.2414397,36.0111133 98.237269,36.1400839 L93.4491574,36.1400839 C93.4894734,36.8452765 93.6889684,37.3853407 94.0476424,37.7600462 C94.406548,38.134982 94.8537319,38.3222197 95.3898892,38.3222197 C95.7888792,38.3222197 96.1294804,38.2174311 96.4116928,38.0078539 C96.6936736,37.7985071 96.9174972,37.4638745 97.0827004,37.0046472 Z M93.5096314,35.2453506 L97.0947489,35.2453506 C97.046555,34.7052864 96.9093877,34.300411 96.6837104,34.030494 C96.337085,33.6111094 95.887584,33.4015322 95.3354393,33.4015322 C94.8356592,33.4015322 94.4155843,33.5689637 94.0749831,33.9033659 C93.7343819,34.2379984 93.5460086,34.6852499 93.5096314,35.2453506 L93.5096314,35.2453506 Z" id="Fill-49" fill="#254588"></path>
                    <polyline id="Fill-50" fill="#254588" points="103.177145 39.071861 103.177145 30.2099715 109.585546 30.2099715 109.585546 31.2557846 104.349787 31.2557846 104.349787 33.9699239 109.253054 33.9699239 109.253054 35.009749 104.349787 35.009749 104.349787 38.026048 109.791296 38.026048 109.791296 39.071861 103.177145 39.071861"></polyline>
                    <path d="M115.480264,39.071861 L115.480264,38.1289941 C114.980483,38.8542232 114.301366,39.2169529 113.442681,39.2169529 C113.06408,39.2169529 112.710272,39.1446373 112.381719,38.9993151 C112.053167,38.8542232 111.809648,38.6720523 111.650238,38.4523417 C111.491059,38.2328615 111.379147,37.9636354 111.314734,37.6453545 C111.270247,37.4316319 111.248236,37.0930842 111.248236,36.6297114 L111.248236,32.6518909 L112.336538,32.6518909 L112.336538,36.2126298 C112.336538,36.7807912 112.358549,37.1637877 112.403036,37.3611587 C112.471388,37.6474273 112.616665,37.8719742 112.838171,38.0350299 C113.05991,38.1983158 113.334013,38.2800739 113.66048,38.2800739 C113.986947,38.2800739 114.293257,38.1964734 114.57964,38.0292722 C114.865559,37.8618408 115.068067,37.6342999 115.187161,37.3459586 C115.305792,37.0578476 115.36534,36.6398448 115.36534,36.0917199 L115.36534,32.6518909 L116.453642,32.6518909 L116.453642,39.071861 L115.480264,39.071861" id="Fill-51" fill="#254588"></path>
                    <path d="M118.146453,39.071861 L118.146453,32.6518909 L119.125855,32.6518909 L119.125855,33.6253883 C119.375861,33.1698458 119.606404,32.869759 119.818179,32.7246671 C120.029723,32.5795752 120.262583,32.506799 120.516528,32.506799 C120.883079,32.506799 121.255887,32.6237937 121.634951,32.8575528 L121.260058,33.8672081 C120.994064,33.70991 120.728071,33.6313762 120.461846,33.6313762 C120.22412,33.6313762 120.010491,33.7030009 119.821191,33.84602 C119.63166,33.9890392 119.496578,34.1873314 119.416177,34.4413574 C119.294997,34.828269 119.234523,35.2513385 119.234523,35.7110264 L119.234523,39.071861 L118.146453,39.071861" id="Fill-52" fill="#254588"></path>
                    <path d="M121.876847,35.8621062 C121.876847,34.6732741 122.207254,33.7925894 122.868298,33.2202825 C123.420443,32.7449339 124.093535,32.506799 124.887577,32.506799 C125.770359,32.506799 126.491878,32.7960615 127.052132,33.3743563 C127.612386,33.9528814 127.892513,34.7515776 127.892513,35.7713662 C127.892513,36.5974687 127.768321,37.2471579 127.520632,37.7208944 C127.272712,38.1944006 126.911953,38.5619667 126.438355,38.8240533 C125.964757,39.0861399 125.447831,39.2169529 124.887577,39.2169529 C123.988806,39.2169529 123.26219,38.9288419 122.708192,38.3526199 C122.15373,37.7761675 121.876847,36.9461499 121.876847,35.8621062 Z M122.99527,35.8621062 C122.99527,36.6840633 123.174376,37.2998977 123.533281,37.7086883 C123.891955,38.1179395 124.34331,38.3222197 124.887577,38.3222197 C125.427673,38.3222197 125.877174,38.116788 126.235848,37.7059246 C126.594522,37.2946007 126.77409,36.6681722 126.77409,35.8257181 C126.77409,35.0318583 126.593363,34.4303027 126.232836,34.0212818 C125.872076,33.6122609 125.423502,33.4077505 124.887577,33.4077505 C124.34331,33.4077505 123.891955,33.6111094 123.533281,34.0182879 C123.174376,34.425236 122.99527,35.0396886 122.99527,35.8621062 L122.99527,35.8621062 Z" id="Fill-53" fill="#254588"></path>
                    <path d="M129.16803,41.5322047 L129.16803,32.6518909 L130.159481,32.6518909 L130.159481,33.4862843 C130.393268,33.1597124 130.657176,32.915129 130.951437,32.751843 C131.245466,32.5885571 131.602286,32.506799 132.021666,32.506799 C132.56964,32.506799 133.053433,32.648206 133.472581,32.9300988 C133.891729,33.2122219 134.208233,33.6101882 134.42163,34.1239977 C134.635259,34.6378072 134.742305,35.2011321 134.742305,35.8137423 C134.742305,36.4705709 134.624369,37.061993 134.388497,37.5877784 C134.152625,38.113794 133.81017,38.516827 133.360669,38.7968774 C132.9114,39.0769277 132.438729,39.2169529 131.942887,39.2169529 C131.580275,39.2169529 131.254734,39.1402615 130.966497,38.9873392 C130.678261,38.8341867 130.441693,38.6407309 130.256332,38.4069717 L130.256332,41.5322047 L129.16803,41.5322047 Z M130.153457,35.8982641 C130.153457,36.7243666 130.320514,37.334904 130.655091,37.7298763 C130.989667,38.1248486 131.394913,38.3222197 131.870597,38.3222197 C132.354158,38.3222197 132.76844,38.1179395 133.11298,37.7086883 C133.45752,37.2998977 133.629674,36.6660995 133.629674,35.8075241 C133.629674,34.9894822 133.461459,34.3771024 133.125029,33.9699239 C132.788598,33.5627454 132.386364,33.3593865 131.919022,33.3593865 C131.455388,33.3593865 131.045276,33.5761031 130.688456,34.009306 C130.331867,34.4425089 130.153457,35.0721616 130.153457,35.8982641 L130.153457,35.8982641 Z" id="Fill-54" fill="#254588"></path>
                    <path d="M140.449577,37.0046472 L141.574024,37.1435209 C141.396772,37.8005798 141.06822,38.3102438 140.588829,38.6729735 C140.108975,39.0357032 139.496357,39.2169529 138.750741,39.2169529 C137.811423,39.2169529 137.066966,38.9279207 136.516675,38.3496259 C135.966616,37.7713311 135.691586,36.9601984 135.691586,35.9164581 C135.691586,34.83656 135.969628,33.9980211 136.525712,33.4015322 C137.082027,32.8052737 137.803545,32.506799 138.690267,32.506799 C139.548721,32.506799 140.250082,32.7992858 140.794117,33.3835685 C141.338384,33.9678512 141.610401,34.7898082 141.610401,35.8499001 C141.610401,35.9143854 141.608316,36.0111133 141.604377,36.1400839 L136.816034,36.1400839 C136.85635,36.8452765 137.055845,37.3853407 137.414519,37.7600462 C137.773193,38.134982 138.220608,38.3222197 138.756765,38.3222197 C139.155755,38.3222197 139.496357,38.2174311 139.778337,38.0078539 C140.06055,37.7985071 140.284374,37.4638745 140.449577,37.0046472 Z M136.876508,35.2453506 L140.461857,35.2453506 C140.413431,34.7052864 140.276264,34.300411 140.050587,34.030494 C139.703961,33.6111094 139.254692,33.4015322 138.702316,33.4015322 C138.202535,33.4015322 137.782229,33.5689637 137.441859,33.9033659 C137.101258,34.2379984 136.912653,34.6852499 136.876508,35.2453506 L136.876508,35.2453506 Z" id="Fill-55" fill="#254588"></path>
                    <path d="M147.130458,38.2800739 C146.727297,38.6225368 146.339429,38.8643566 145.966621,39.005303 C145.593582,39.1464797 145.193665,39.2169529 144.766407,39.2169529 C144.061108,39.2169529 143.518927,39.0446851 143.140095,38.7001494 C142.761263,38.3556138 142.571731,37.9152715 142.571731,37.3793527 C142.571731,37.0647567 142.643327,36.7777972 142.786518,36.5177834 C142.929478,36.2579998 143.116924,36.0493439 143.348858,35.8922761 C143.580559,35.7349781 143.841455,35.616141 144.131777,35.5355344 C144.345174,35.4793401 144.667703,35.4247579 145.098899,35.3724787 C145.977511,35.2676902 146.624422,35.1426348 147.039631,34.9975429 C147.043802,34.8483055 147.045887,34.7536504 147.045887,34.7133471 C147.045887,34.2702411 146.94278,33.9577178 146.737492,33.7764681 C146.45945,33.5307331 146.046095,33.4077505 145.498121,33.4077505 C144.986061,33.4077505 144.608155,33.4973389 144.364405,33.6767462 C144.120655,33.8561535 143.94016,34.1735131 143.823382,34.6288253 L142.759409,34.4837334 C142.856029,34.0284213 143.015207,33.6606249 143.236714,33.3803442 C143.458452,33.1005242 143.778896,32.8847288 144.198275,32.733649 C144.617192,32.5825692 145.10307,32.506799 145.655214,32.506799 C146.20342,32.506799 146.648751,32.5715146 146.991205,32.7002548 C147.333892,32.8294557 147.585983,32.9915901 147.747016,33.1871187 C147.908048,33.382417 148.021119,33.6293035 148.085532,33.9275479 C148.121909,34.112943 148.139981,34.4473453 148.139981,34.9309849 L148.139981,36.3819037 C148.139981,37.3934013 148.163152,38.0334177 148.209492,38.3012619 C148.255832,38.5693365 148.347586,38.826126 148.484753,39.071861 L147.348257,39.071861 C147.235187,38.8463928 147.162664,38.5822335 147.130458,38.2800739 Z M147.039631,35.8499001 C146.64458,36.0111133 146.052351,36.1481445 145.262249,36.2609938 C144.814833,36.325479 144.498561,36.398025 144.312968,36.4786316 C144.127606,36.5592382 143.984415,36.6771541 143.883625,36.8323794 C143.783066,36.9873744 143.732555,37.1598725 143.732555,37.3491828 C143.732555,37.6393666 143.842614,37.8809561 144.062267,38.0744119 C144.281688,38.2678678 144.60329,38.3645957 145.026377,38.3645957 C145.445756,38.3645957 145.818564,38.2731648 146.1448,38.089612 C146.471267,37.9062896 146.711078,37.6554879 146.864465,37.3369767 C146.981242,37.0912417 147.039631,36.728512 147.039631,36.2487876 L147.039631,35.8499001 L147.039631,35.8499001 Z" id="Fill-56" fill="#254588"></path>
                    <path d="M149.826768,39.071861 L149.826768,32.6518909 L150.806171,32.6518909 L150.806171,33.5648182 C151.277683,32.8598559 151.958886,32.506799 152.849778,32.506799 C153.23672,32.506799 153.592381,32.576351 153.916763,32.7156852 C154.241377,32.8545589 154.483969,33.0369601 154.645465,33.2626586 C154.806497,33.4883571 154.919336,33.7562013 154.983749,34.0666518 C155.024065,34.2681683 155.044223,34.6207646 155.044223,35.124671 L155.044223,39.071861 L153.956153,39.071861 L153.956153,35.1668168 C153.956153,34.7234805 153.913751,34.3920722 153.828949,34.1723616 C153.744378,33.9528814 153.594467,33.7773893 153.378753,33.6465763 C153.163038,33.515533 152.91002,33.4498962 152.61993,33.4498962 C152.156295,33.4498962 151.756379,33.5972911 151.419948,33.8911597 C151.083286,34.185489 150.91507,34.743517 150.91507,35.5659346 L150.91507,39.071861 L149.826768,39.071861" id="Fill-57" fill="#254588"></path>
                    <path d="M166.108202,30.2099715 L167.281075,30.2099715 L167.281075,35.3298724 C167.281075,36.2206905 167.180285,36.9281861 166.978704,37.4518987 C166.777356,37.9758416 166.413584,38.401905 165.887622,38.7303193 C165.361659,39.058964 164.671189,39.2231711 163.816906,39.2231711 C162.986487,39.2231711 162.30737,39.0799217 161.779554,38.7938834 C161.251275,38.5078451 160.874528,38.0935272 160.648851,37.5516206 C160.422942,37.0094836 160.310335,36.2690544 160.310335,35.3298724 L160.310335,30.2099715 L161.482976,30.2099715 L161.482976,35.3241148 C161.482976,36.0937926 161.554572,36.6610328 161.697764,37.0258352 C161.840723,37.3904074 162.08679,37.6716092 162.435501,37.8689803 C162.78398,38.0663513 163.210079,38.1651519 163.71403,38.1651519 C164.576655,38.1651519 165.191127,37.9696234 165.557911,37.5787965 C165.924694,37.1879696 166.108202,36.4362555 166.108202,35.3241148 L166.108202,30.2099715" id="Fill-58" fill="#254588"></path>
                    <path d="M169.094834,39.071861 L169.094834,32.6518909 L170.074236,32.6518909 L170.074236,33.5648182 C170.545981,32.8598559 171.226951,32.506799 172.117844,32.506799 C172.504785,32.506799 172.860447,32.576351 173.184829,32.7156852 C173.509443,32.8545589 173.752035,33.0369601 173.91353,33.2626586 C174.074563,33.4883571 174.187402,33.7562013 174.252046,34.0666518 C174.292131,34.2681683 174.312289,34.6207646 174.312289,35.124671 L174.312289,39.071861 L173.224218,39.071861 L173.224218,35.1668168 C173.224218,34.7234805 173.181817,34.3920722 173.097014,34.1723616 C173.012443,33.9528814 172.862532,33.7773893 172.646818,33.6465763 C172.431104,33.515533 172.178318,33.4498962 171.888228,33.4498962 C171.424593,33.4498962 171.024444,33.5972911 170.688014,33.8911597 C170.351351,34.185489 170.183136,34.743517 170.183136,35.5659346 L170.183136,39.071861 L169.094834,39.071861" id="Fill-59" fill="#254588"></path>
                    <path d="M175.987259,31.4612162 L177.075329,31.4612162 L177.075329,30.2099715 L175.987259,30.2099715 L175.987259,31.4612162 Z M175.987259,39.071861 L177.075329,39.071861 L177.075329,32.6518909 L175.987259,32.6518909 L175.987259,39.071861 Z" id="Fill-60" fill="#254588"></path>
                    <path d="M178.326981,35.8621062 C178.326981,34.6732741 178.657155,33.7925894 179.318432,33.2202825 C179.870576,32.7449339 180.543669,32.506799 181.33771,32.506799 C182.220261,32.506799 182.942011,32.7960615 183.502266,33.3743563 C184.062288,33.9528814 184.342647,34.7515776 184.342647,35.7713662 C184.342647,36.5974687 184.218455,37.2471579 183.970766,37.7208944 C183.722846,38.1944006 183.362086,38.5619667 182.888488,38.8240533 C182.414891,39.0861399 181.897964,39.2169529 181.33771,39.2169529 C180.43894,39.2169529 179.712324,38.9288419 179.158326,38.3526199 C178.603864,37.7761675 178.326981,36.9461499 178.326981,35.8621062 Z M179.445404,35.8621062 C179.445404,36.6840633 179.624509,37.2998977 179.983415,37.7086883 C180.342089,38.1179395 180.793443,38.3222197 181.33771,38.3222197 C181.877806,38.3222197 182.327076,38.116788 182.685981,37.7059246 C183.044655,37.2946007 183.223992,36.6681722 183.223992,35.8257181 C183.223992,35.0318583 183.043497,34.4303027 182.682737,34.0212818 C182.32221,33.6122609 181.873636,33.4077505 181.33771,33.4077505 C180.793443,33.4077505 180.342089,33.6111094 179.983415,34.0182879 C179.624509,34.425236 179.445404,35.0396886 179.445404,35.8621062 L179.445404,35.8621062 Z" id="Fill-61" fill="#254588"></path>
                    <path d="M185.618164,39.071861 L185.618164,32.6518909 L186.597798,32.6518909 L186.597798,33.5648182 C187.06931,32.8598559 187.750513,32.506799 188.641173,32.506799 C189.028115,32.506799 189.383777,32.576351 189.708391,32.7156852 C190.032773,32.8545589 190.275596,33.0369601 190.43686,33.2626586 C190.598124,33.4883571 190.710963,33.7562013 190.775376,34.0666518 C190.815692,34.2681683 190.83585,34.6207646 190.83585,35.124671 L190.83585,39.071861 L189.74778,39.071861 L189.74778,35.1668168 C189.74778,34.7234805 189.705378,34.3920722 189.620576,34.1723616 C189.536005,33.9528814 189.385862,33.7773893 189.17038,33.6465763 C188.954666,33.515533 188.701648,33.4498962 188.411557,33.4498962 C187.947923,33.4498962 187.547774,33.5972911 187.211343,33.8911597 C186.874681,34.185489 186.706698,34.743517 186.706698,35.5659346 L186.706698,39.071861 L185.618164,39.071861" id="Fill-62" fill="#254588"></path>
                </g>
            </g>
        </g>
    </g>
</svg>