<?xml version="1.0" encoding="UTF-8"?>
<svg width="264px" height="238px" viewBox="0 0 264 238" version="1.1" xmlns="http://www.w3.org/2000/svg" xmlns:xlink="http://www.w3.org/1999/xlink">
    <!-- Generator: Sketch 42 (36781) - http://www.bohemiancoding.com/sketch -->
    <title>Mask</title>
    <desc>Created with Sketch.</desc>
    <defs>
        <path d="M4.56346153,97.499173 L4.52466698,97.4865598 C1.61736467,108.366646 0.0580685523,119.79233 0.0580685523,131.577023 C0.0580685523,171.791888 18.0944385,209.373237 49.5412273,234.686885 C53.8579161,238.162419 60.1741868,237.477468 63.6480766,233.157555 C67.1207861,228.837643 66.4361595,222.519564 62.1194707,219.04285 C35.4308368,197.561382 20.1247105,165.681657 20.1247105,131.577023 C20.1247105,121.955829 21.3440541,112.61452 23.6340121,103.699534 L23.5327989,103.666627 C36.045356,55.7449299 80.431581,20.2627493 131.042875,20.1379251 L131.042875,0.0617874225 C70.9751102,0.185517286 19.6981146,41.5121781 4.56346153,97.499173 Z M131.610042,0.0583626696 C192.24789,0.0583626696 243.504176,41.3502541 258.699049,97.3319736 L239.66444,103.543767 C227.111229,55.6043119 183.345557,20.1345004 131.610042,20.1345004 C131.519154,20.1345004 132.223833,20.1380432 131.043465,20.1380432 L131.043465,0.0619055174 C132.223833,0.0619055174 131.519154,0.0583626696 131.610042,0.0583626696 Z M239.811985,103.543767 L258.919777,97.3319736 C261.910829,108.347868 263.516129,119.929438 263.516129,131.881826 C263.516129,172.143929 245.481291,209.751259 214.033936,235.064907 C212.180759,236.556446 209.958126,237.281548 207.750839,237.281548 C204.817625,237.281548 201.91038,236.000218 199.927362,233.535577 C196.45472,229.216846 197.139333,222.897586 201.455938,219.422053 C228.142871,197.939404 243.449879,166.033698 243.449879,131.881826 C243.449879,122.094118 242.182164,112.596924 239.811985,103.543767 Z" id="path-1"></path>
    </defs>
    <g id="Endelig-design" stroke="none" stroke-width="1" fill="none" fill-rule="evenodd">
        <g id="Resultat-2" transform="translate(-291.000000, -416.000000)">
            <g id="Path-9" transform="translate(291.000000, 416.000000)">
                <mask id="mask-2" fill="white">
                    <use xlink:href="#path-1"></use>
                </mask>
                <use id="Mask" fill="#D8E2EE" xlink:href="#path-1"></use>
            </g>
        </g>
    </g>
</svg>