<?xml version="1.0" encoding="UTF-8"?>
<svg width="167px" height="78px" viewBox="0 0 167 78" version="1.1" xmlns="http://www.w3.org/2000/svg" xmlns:xlink="http://www.w3.org/1999/xlink">
    <!-- Generator: Sketch 42 (36781) - http://www.bohemiancoding.com/sketch -->
    <title>Group 13 Copy</title>
    <desc>Created with Sketch.</desc>
    <defs></defs>
    <g id="Endelig-design" stroke="none" stroke-width="1" fill="none" fill-rule="evenodd">
        <g id="0A---Startside" transform="translate(-913.000000, -1141.000000)">
            <g id="Group-13-Copy" transform="translate(913.000000, 1141.000000)">
                <g id="Group" transform="translate(124.507258, 25.723404)">
                    <path d="M2.32422814,50.6111416 C1.75092021,50.6111416 1.17761228,50.3918963 0.740134235,49.9554217 C0.302656185,49.5179391 0.0841691639,48.9443732 0.0841691639,48.3710594 L0.0841691639,17.0104119 L42.0845819,17.0104119 L42.0845819,48.3710594 C42.0845819,48.9443732 41.8658429,49.5179391 41.4283649,49.9554217 C40.9913908,50.3918963 40.4178309,50.6111416 39.844523,50.6111416 L2.32422814,50.6111416" id="Fill-13" fill="#C1E4ED"></path>
                    <path d="M42.0845819,2.45025534 C42.0845819,1.87668945 41.8658429,1.30387957 41.4283649,0.866396981 C40.9913908,0.428914387 40.4178309,0.209921083 39.844523,0.209921083 L2.32422814,0.209921083 C1.75092021,0.209921083 1.17786429,0.428914387 0.740386238,0.866396981 C0.302656185,1.30387957 0.0841691639,1.87668945 0.0841691639,2.45025534 L0.0841691639,17.0104119 L42.0845819,17.0104119 L42.0845819,2.45025534" id="Fill-14" fill="#242D3C"></path>
                    <polygon id="Fill-15" fill="#06B2B8" points="21.0843756 11.4100803 36.4843085 11.4100803 36.4843085 5.81000069 21.0843756 5.81000069"></polygon>
                    <polygon id="Fill-16" fill="#21D8DE" points="5.6841906 11.4100803 21.0843756 11.4100803 21.0843756 5.81000069 5.6841906 5.81000069"></polygon>
                    <polygon id="Fill-17" fill="#242D3C" points="22.4971071 28.1984749 28.0721802 28.1984749 28.0721802 22.6228398 22.4971071 22.6228398"></polygon>
                    <polygon id="Fill-18" fill="#242D3C" points="30.8968872 28.1984749 36.4719603 28.1984749 36.4719603 22.6228398 30.8968872 22.6228398"></polygon>
                    <polygon id="Fill-19" fill="#242D3C" points="22.4971071 36.5985943 28.0721802 36.5985943 28.0721802 31.0229593 22.4971071 31.0229593"></polygon>
                    <polygon id="Fill-20" fill="#242D3C" points="14.0968229 36.5985943 19.672148 36.5985943 19.672148 31.0229593 14.0968229 31.0229593"></polygon>
                    <polygon id="Fill-21" fill="#242D3C" points="5.69653877 36.5985943 11.2718639 36.5985943 11.2718639 31.0229593 5.69653877 31.0229593"></polygon>
                    <polygon id="Fill-22" fill="#242D3C" points="30.8968872 36.5985943 36.4719603 36.5985943 36.4719603 31.0229593 30.8968872 31.0229593"></polygon>
                    <polygon id="Fill-23" fill="#242D3C" points="22.4971071 44.9989657 28.0721802 44.9989657 28.0721802 39.4233307 22.4971071 39.4233307"></polygon>
                    <polygon id="Fill-24" fill="#242D3C" points="14.0968229 44.9989657 19.672148 44.9989657 19.672148 39.4233307 14.0968229 39.4233307"></polygon>
                    <polygon id="Fill-25" fill="#242D3C" points="5.69653877 44.9989657 11.2718639 44.9989657 11.2718639 39.4233307 5.69653877 39.4233307"></polygon>
                    <polygon id="Fill-26" fill="#242D3C" points="30.8968872 44.9989657 36.4719603 44.9989657 36.4719603 39.4233307 30.8968872 39.4233307"></polygon>
                    <polygon id="Fill-27" fill="#F15424" points="5.69653877 28.1984749 19.672148 28.1984749 19.672148 22.6228398 5.69653877 22.6228398"></polygon>
                </g>
                <g id="Group-8">
                    <polygon id="Fill-133" fill="#2C6F84" points="0.46145699 76.0634036 56.548612 76.0634036 56.548612 8.60815903 0.46145699 8.60815903"></polygon>
                    <polygon id="Fill-134" fill="#2C6F84" points="56.6508138 76.0634036 112.737969 76.0634036 112.737969 8.60815903 56.6508138 8.60815903"></polygon>
                    <path d="M61.3551975,75.4551036 C61.3551975,76.733148 59.2476708,77.7669508 56.6508138,77.7669508 C54.0570539,77.7669508 51.9510757,76.733148 51.9510757,75.4551036 C51.9510757,74.173987 54.0570539,73.1386482 56.6508138,73.1386482 C59.2476708,73.1386482 61.3551975,74.173987 61.3551975,75.4551036" id="Fill-135" fill="#2C6F84"></path>
                    <path d="M61.1260175,74.6624703 C61.1260175,75.9405147 59.0711403,76.9758536 56.5377724,76.9758536 C54.005953,76.9758536 51.9510757,75.9405147 51.9510757,74.6624703 C51.9510757,74.0649231 51.7946759,69.5856233 52.5240257,69.1754817 C53.3617714,68.7038956 59.5542764,68.9404567 60.3254361,69.2384622 C61.4217836,69.6608927 61.1260175,73.9128481 61.1260175,74.6624703" id="Fill-136" fill="#412109"></path>
                    <polygon id="Fill-137" fill="#E2E2E2" points="55.22773 73.9481787 109.952193 73.9481787 109.952193 6.49600634 55.22773 6.49600634"></polygon>
                    <polygon id="Fill-138" fill="#F6F6F6" points="54.9009937 72.1632176 108.478008 72.1632176 108.478008 4.70797307 54.9009937 4.70797307"></polygon>
                    <polygon id="Fill-139" fill="#D3D3D3" points="76.8682047 15.5242502 91.7803886 15.5242502 91.7803886 11.4597004 76.8682047 11.4597004"></polygon>
                    <polygon id="Fill-140" fill="#D3D3D3" points="66.5334263 21.4515835 101.763654 21.4515835 101.763654 18.1996364 66.5334263 18.1996364"></polygon>
                    <polygon id="Fill-141" fill="#D3D3D3" points="66.5334263 27.4639222 101.763654 27.4639222 101.763654 24.2135112 66.5334263 24.2135112"></polygon>
                    <polygon id="Fill-142" fill="#D3D3D3" points="66.5334263 33.4777969 101.763654 33.4777969 101.763654 30.227386 66.5334263 30.227386"></polygon>
                    <polygon id="Fill-143" fill="#D3D3D3" points="66.5334263 39.4916717 101.763654 39.4916717 101.763654 36.2412607 66.5334263 36.2412607"></polygon>
                    <polygon id="Fill-144" fill="#D3D3D3" points="66.5334263 45.5070826 101.763654 45.5070826 101.763654 42.2535994 66.5334263 42.2535994"></polygon>
                    <polygon id="Fill-145" fill="#D3D3D3" points="66.5334263 51.5178851 101.763654 51.5178851 101.763654 48.265938 66.5334263 48.265938"></polygon>
                    <polygon id="Fill-146" fill="#D3D3D3" points="66.5334263 57.5348321 101.763654 57.5348321 101.763654 54.2782767 66.5334263 54.2782767"></polygon>
                    <polygon id="Fill-147" fill="#D3D3D3" points="66.5334263 63.5471708 101.763654 63.5471708 101.763654 60.2936876 66.5334263 60.2936876"></polygon>
                    <polygon id="Fill-148" fill="#E2E2E2" points="3.24878109 73.9481787 57.9732443 73.9481787 57.9732443 6.49600634 3.24878109 6.49600634"></polygon>
                    <polygon id="Fill-149" fill="#F6F6F6" points="4.72141732 72.1632176 58.2968836 72.1632176 58.2968836 4.70797307 4.72141732 4.70797307"></polygon>
                    <polygon id="Fill-159" fill="#E2E2E2" points="53.261118 72.2830343 60.306854 72.2830343 60.306854 4.83239807 53.261118 4.83239807"></polygon>
                    <polygon id="Fill-160" fill="#D3D3D3" points="55.80068 72.2830343 57.7688405 72.2830343 57.7688405 4.83239807 55.80068 4.83239807"></polygon>
                    <polyline id="Fill-161" fill="#412109" points="74.2326349 4.7110453 83.2031729 4.7110453 80.8277534 0.322376024 78.0853362 1.05510099 75.6262969 2.91993981 74.2326349 4.7110453"></polyline>
                    <path d="M83.5995924,4.70797307 L83.2016244,4.70797307 L83.1923333,4.69107585 C83.323957,4.68953974 83.4586776,4.68800363 83.5949468,4.68800363 C83.5964953,4.69414807 83.5980438,4.70182863 83.5995924,4.70797307" id="Fill-162" fill="#D6D9CE"></path>
                    <path d="M87.3810621,42.2535994 L84.3800431,42.2535994 C84.2948749,41.4563577 84.19577,40.5239383 84.0827285,39.4916717 L88.6183243,39.4916717 C88.6942014,39.897205 88.7716271,40.3073467 88.8536983,40.7236328 C88.2822968,41.307355 87.8100003,41.7973744 87.3810621,42.2535994 M88.0469228,36.2412607 L83.7234734,36.2412607 C83.6228201,35.3533885 83.5175211,34.4286497 83.4075767,33.4777969 L87.6164361,33.4777969 C87.7480597,34.3733497 87.890523,35.290408 88.0469228,36.2412607 M87.1720127,30.227386 L83.0250939,30.227386 C82.9151494,29.3118638 82.802108,28.388661 82.687518,27.4639222 L86.8375339,27.4639222 C86.9412843,28.3671555 87.0512287,29.287286 87.1720127,30.227386 M86.4782787,24.2135112 L82.2740649,24.2135112 C82.1517323,23.2764835 82.0278513,22.3502085 81.9024217,21.4515835 L86.1794157,21.4515835 C86.280069,22.3732502 86.3791739,23.2903085 86.4782787,24.2135112 M85.809321,18.1996364 L81.4347706,18.1996364 C81.2768223,17.1535448 81.1204224,16.1719698 80.9655711,15.274881 L85.4361292,15.274881 C85.5708499,16.2718171 85.694731,17.2426392 85.809321,18.1996364 M84.8244664,11.2103312 L80.1231798,11.2103312 C80.1185343,11.1903617 80.1123402,11.1703923 80.1061462,11.1504228 C78.3516805,5.02594806 74.8288125,4.74944807 74.8288125,4.74944807 C76.9936342,4.73408696 78.4848526,4.72333418 80.1154372,4.7110453 L83.2031729,4.7110453 L83.2016244,4.70797307 L83.5995924,4.70797307 C84.0935681,7.04439798 84.4930846,9.19188123 84.8244664,11.2103312" id="Fill-163" fill="#E2E2E2"></path>
                    <path d="M85.4361292,15.274881 L80.9655711,15.274881 C80.669805,13.5513644 80.3848786,12.1412144 80.1231798,11.2103312 L84.8244664,11.2103312 C85.0567435,12.6204811 85.2580502,13.9691866 85.4361292,15.274881" id="Fill-164" fill="#D3D3D3"></path>
                    <path d="M86.1794157,21.4515835 L81.9024217,21.4515835 C81.7475703,20.3210058 81.589622,19.2303669 81.4347706,18.1996364 L85.809321,18.1996364 C85.9409446,19.2979558 86.0632772,20.3778419 86.1794157,21.4515835" id="Fill-165" fill="#D3D3D3"></path>
                    <path d="M86.8375339,27.4639222 L82.687518,27.4639222 C82.5527973,26.3732833 82.4134311,25.2857167 82.2740649,24.2135112 L86.4782787,24.2135112 C86.5928687,25.2857167 86.7105558,26.3640667 86.8375339,27.4639222" id="Fill-166" fill="#D3D3D3"></path>
                    <path d="M87.6164361,33.4777969 L83.4075767,33.4777969 C83.2852441,32.4194164 83.1567175,31.3303137 83.0250939,30.227386 L87.1720127,30.227386 C87.3051849,31.279622 87.4522937,32.3595081 87.6164361,33.4777969" id="Fill-167" fill="#D3D3D3"></path>
                    <path d="M88.6183243,39.4916717 L84.0827285,39.4916717 C83.9743326,38.4931995 83.8535486,37.3994885 83.7234734,36.2412607 L88.0469228,36.2412607 C88.2188078,37.2842801 88.4092749,38.3672384 88.6183243,39.4916717" id="Fill-168" fill="#D9D5BF"></path>
                    <path d="M84.6928428,45.2536243 C84.6928428,45.2536243 84.5782528,44.1184382 84.3800431,42.2535994 L87.3810621,42.2535994 C86.4767302,43.2152049 85.75822,44.0262715 84.6928428,45.2536243" id="Fill-169" fill="#D9D5BF"></path>
                    <path d="M83.2031729,4.7110453 L80.1154372,4.7110453 C81.0460938,4.70490085 82.0216572,4.69875641 83.1923333,4.69107585 L83.2016244,4.70797307 L83.2031729,4.7110453" id="Fill-170" fill="#3D1F08"></path>
                    <path d="M74.2001161,4.7110453 C74.2001161,4.7110453 79.1631015,-1.92495444 81.7816376,3.93684533 C84.4001738,9.80171732 83.8039961,21.6528141 83.6290141,26.4715944 C83.447838,31.2919109 84.6928428,45.2536243 84.6928428,45.2536243 C86.0369524,43.8603715 86.7306864,43.1599049 88.2048712,41.7681883 C89.7812578,43.1599049 90.6004214,43.8588354 92.4617345,45.2536243 C92.4617345,45.2536243 91.0014864,33.7527608 91.7230936,25.8079945 C92.6072947,16.1197421 92.7575005,5.98140913 90.499768,2.07200651 C88.8815715,-0.731396157 82.2972926,0.0428038124 79.9776195,0.288581581 C78.2804489,0.468306573 76.4051991,1.50518153 75.062638,3.07047869 C74.4556208,3.78169811 73.7045918,4.68800363 73.7045918,4.68800363 C73.9028015,4.6972203 74.0019064,4.70336474 74.2001161,4.7110453" id="Fill-171" fill="#FB4637"></path>
                    <g id="Group-12" transform="translate(11.028437, 15.567401)" stroke="#979797" stroke-width="1.5" stroke-linecap="round" stroke-linejoin="round">
                        <polyline id="Path-5" points="-2.09610107e-13 13.9223085 3.04337339 13.9223085 5.94180632 19.1674208 11.6600985 0 18.380728 0"></polyline>
                        <g id="Group-11" transform="translate(13.785546, 8.241565)">
                            <polyline id="Path-7" points="0 0 2.10501453 0 5.90235708 5.88572255 7.54742105 5.88572255"></polyline>
                            <polyline id="Path-7-Copy" transform="translate(3.773711, 2.942861) scale(-1, 1) translate(-3.773711, -2.942861) " points="-2.10498285e-13 0 2.10501453 0 5.90235708 5.88572255 7.54742105 5.88572255"></polyline>
                        </g>
                    </g>
                    <text id="10+23" transform="translate(36.507678, 45.675506) rotate(12.000000) translate(-36.507678, -45.675506) " font-family=".AppleSystemUIFont" font-size="10" font-weight="normal" letter-spacing="0.555555522" fill="#979797">
                        <tspan x="23.0076776" y="49.1755056">10+23</tspan>
                    </text>
                    <path d="M19.6093344,56.5044095 C19.765495,56.5208206 19.9016583,56.5353294 20.0137794,56.5470654 C20.2372451,56.5718593 20.3650276,56.5860779 20.3650276,56.5860779 L20.3697842,56.586626 C20.3929851,56.5891731 20.4165095,56.5901726 20.440228,56.589818 C20.8157772,56.5834986 21.115867,56.209204 21.1107545,55.7536279 C21.1056095,55.2981486 20.7970094,54.933978 20.421525,54.9402651 C20.421525,54.9402651 20.2913156,54.9424575 20.0633522,54.9462621 C19.9496778,54.9487125 19.8116378,54.9517109 19.6534062,54.955193 C19.4952718,54.9590621 19.3168163,54.963318 19.1222142,54.9679608 C18.9277091,54.9724424 18.7170249,54.9771819 18.4930739,54.9858227 C18.2695111,54.993464 18.0337493,55.0017179 17.7898333,55.010004 C17.5462085,55.0189995 17.2939117,55.0260604 17.0389291,55.0370549 C16.7846908,55.0503062 16.5264077,55.0636866 16.2681246,55.0770669 C16.0098416,55.090286 15.7515908,55.1037631 15.4972878,55.1169177 C15.433704,55.1202386 15.3704113,55.1235595 15.3074423,55.1268159 L15.3006794,55.1269126 L15.2974436,55.1271706 L15.2910367,55.1278154 L15.2781258,55.1288149 L15.2524334,55.1310396 L15.2011133,55.1354245 C15.1670078,55.138423 15.1330317,55.1414214 15.0991203,55.1444199 C14.9630541,55.1604118 14.8282499,55.1809176 14.6950635,55.2121599 C14.4294999,55.2736449 14.1706343,55.368887 13.9365875,55.5123629 C13.703285,55.6566447 13.4956101,55.8456782 13.3412292,56.0638581 C13.322332,56.0914571 13.3036613,56.1187659 13.2851201,56.1456232 C13.2669024,56.1728675 13.2510145,56.2019818 13.2343501,56.229613 C13.2003416,56.2843595 13.1733549,56.3429751 13.1452356,56.3981085 C13.094045,56.5120186 13.0502967,56.6228013 13.0202683,56.7306822 C13.0031184,56.7837199 12.9921167,56.8369188 12.979141,56.8872804 C12.9689158,56.9382546 12.957817,56.9872621 12.9506658,57.0347542 C12.9429646,57.0822463 12.9360399,57.1277395 12.9315421,57.1714593 C12.9258794,57.2150179 12.9229996,57.2567065 12.9197961,57.2962671 C12.9084707,57.4544129 12.9130009,57.5786727 12.9181458,57.6650161 C12.9207345,57.7080589 12.9241321,57.7421384 12.9267208,57.7659973 C12.928371,57.7801192 12.9295036,57.7906945 12.9303125,57.7978522 C12.9310891,57.8029786 12.931445,57.8056224 12.931445,57.8056224 C12.953028,57.9528383 13.0631105,58.0613963 13.1889839,58.0514658 C13.3240793,58.0406326 13.4263312,57.8990913 13.4174974,57.7352387 L13.4171739,57.728887 C13.4171739,57.728887 13.4170768,57.7266301 13.4168179,57.7222775 C13.4168179,57.7197626 13.4168826,57.7160871 13.4169473,57.7112508 C13.4167856,57.6973868 13.416462,57.675398 13.4174004,57.6450262 C13.4193742,57.5848309 13.4239044,57.4928129 13.4425427,57.3791929 C13.4615369,57.2661533 13.4913712,57.1299641 13.5481275,56.9913246 C13.5746288,56.9207796 13.6109671,56.8523303 13.6502823,56.7826559 C13.6722858,56.7497693 13.6920567,56.7139165 13.7175226,56.6822228 C13.7299481,56.6661342 13.7412088,56.6486914 13.7546051,56.6331186 C13.7680014,56.6175459 13.7814624,56.6018119 13.7951175,56.5859489 C13.8080608,56.5693122 13.8237869,56.5555127 13.8385422,56.5403913 C13.8537829,56.5258503 13.8676646,56.5095682 13.8841026,56.4958977 C13.9172373,56.4688469 13.9483659,56.4385396 13.9853837,56.4143583 C14.0033748,56.401784 14.0206541,56.3879523 14.0394219,56.3758616 C14.0586103,56.3643513 14.0778634,56.3527121 14.0974077,56.341105 L14.1264978,56.3233398 C14.1367877,56.3183746 14.1471746,56.3132159 14.1575616,56.3081217 C14.1782385,56.2978688 14.1990125,56.2875515 14.2199806,56.2771051 C14.3907671,56.1988866 14.5896406,56.1514268 14.8027516,56.1303407 C14.831421,56.1273744 14.860511,56.125053 14.8897951,56.1232475 L14.8897951,60.814778 C14.8897951,61.8314573 14.6212221,62.2052683 14.5943001,62.2398959 C14.3656248,62.4770018 14.3290924,62.8927271 14.5159286,63.1834188 C14.6274996,63.3570406 14.7940796,63.4478334 14.962504,63.4478334 C15.0840737,63.4478334 15.2066465,63.4003413 15.3099015,63.3027455 C15.4286884,63.1904475 16.0212964,62.5423559 16.0212964,60.814778 L16.0212964,56.1796383 C16.1007034,56.1856998 16.1802398,56.1916322 16.2597762,56.1977582 C16.5178328,56.2171677 16.7757923,56.2368029 17.0298688,56.2559868 C17.283104,56.2772341 17.5307413,56.3019958 17.7710979,56.3238557 C17.9739838,56.3427171 18.1706245,56.360966 18.3596287,56.3786022 L18.3596287,61.3079157 C18.3596287,62.0902297 18.5526129,62.6661965 18.9331129,63.0200175 C19.2180591,63.2849158 19.5341339,63.3488512 19.772808,63.3488512 C19.9688986,63.3488512 20.1127631,63.305615 20.1439888,63.2954266 C20.4457289,63.1969925 20.6245079,62.8203121 20.5433212,62.4542391 C20.4620698,62.0882629 20.1517547,61.8713404 19.8499175,61.9700969 C19.8485261,61.9703226 19.6968956,62.0006298 19.6215011,61.9304718 C19.5584026,61.8719852 19.4911299,61.6775997 19.4911299,61.3079157 L19.4911299,56.4920609 C19.5316747,56.4963491 19.571087,56.500476 19.6093344,56.5044095" id="Fill-12" fill="#979797" transform="translate(17.011784, 59.194009) rotate(-15.000000) translate(-17.011784, -59.194009) "></path>
                </g>
            </g>
        </g>
    </g>
</svg>