<?xml version="1.0" encoding="UTF-8"?>
<svg width="96px" height="86px" viewBox="0 0 96 86" version="1.1" xmlns="http://www.w3.org/2000/svg" xmlns:xlink="http://www.w3.org/1999/xlink">
    <!-- Generator: Sketch 42 (36781) - http://www.bohemiancoding.com/sketch -->
    <title>Group 22</title>
    <desc>Created with Sketch.</desc>
    <defs></defs>
    <g id="Endelig-design" stroke="none" stroke-width="1" fill="none" fill-rule="evenodd">
        <g id="0A---Startside" transform="translate(-364.000000, -823.000000)">
            <g id="Group-22" transform="translate(364.000000, 823.000000)">
                <g id="Group-10" transform="translate(0.000000, 30.000000)">
                    <g id="Group-9" transform="translate(0.000000, 1.000000)">
                        <path d="M84.4010902,54.7501951 L0.72344205,54.7501951 C0.324102038,54.7501951 0,54.4260325 0,54.0266179 L0,36.902439 C0,36.5023008 0.324102038,36.1788618 0.72344205,36.1788618 L84.4010902,36.1788618 C84.8011537,36.1788618 85.1245323,36.5023008 85.1245323,36.902439 L85.1245323,54.0266179 C85.1245323,54.4260325 84.8011537,54.7501951 84.4010902,54.7501951" id="Fill-33-Copy-2" fill="#448891"></path>
                        <polygon id="Fill-35-Copy-2" fill="#06626B" points="13.0219569 54.7501951 14.7104706 54.7501951 14.7104706 36.1788618 13.0219569 36.1788618"></polygon>
                        <polygon id="Fill-36-Copy-2" fill="#06626B" points="76.6848573 54.7501951 78.3733711 54.7501951 78.3733711 36.1788618 76.6848573 36.1788618"></polygon>
                        <polygon id="Fill-37-Copy-2" fill="#06626B" points="70.1738789 54.7501951 71.8616692 54.7501951 71.8616692 36.1788618 70.1738789 36.1788618"></polygon>
                        <polygon id="Fill-38-Copy-2" fill="#06626B" points="24.5970297 49.203252 60.7691322 49.203252 60.7691322 41.9674797 24.5970297 41.9674797"></polygon>
                        <path d="M84.4010902,54.8710325 L78.3733711,54.8710325 L78.3733711,45.5853659 L85.1245323,45.5853659 L85.1245323,54.1474553 C85.1245323,54.5468699 84.8011537,54.8710325 84.4010902,54.8710325 L84.4010902,54.8710325 Z M72.1032988,54.8710325 L76.6848573,54.8710325 L76.6848573,45.5853659 L72.1032988,45.5853659 L72.1032988,54.8710325 Z M70.4155085,54.8710325 L14.7097472,54.8710325 L14.7097472,45.5853659 L24.4762149,45.5853659 L24.4762149,49.203252 L60.6483174,49.203252 L60.6483174,45.5853659 L70.4155085,45.5853659 L70.4155085,54.8710325 L70.4155085,54.8710325 Z M8.43967496,54.8710325 L13.0212335,54.8710325 L13.0212335,45.5853659 L8.43967496,45.5853659 L8.43967496,54.8710325 Z M6.75188465,54.8710325 L0.72344205,54.8710325 C0.324102038,54.8710325 0,54.5468699 0,54.1474553 L0,45.5853659 L6.75188465,45.5853659 L6.75188465,54.8710325 L6.75188465,54.8710325 Z" id="Fill-39-Copy-2" fill="#387179"></path>
                        <polygon id="Fill-41-Copy-2" fill="#055159" points="13.0219569 54.8710325 14.7104706 54.8710325 14.7104706 45.5853659 13.0219569 45.5853659"></polygon>
                        <polygon id="Fill-42-Copy-2" fill="#055159" points="76.6848573 54.8710325 78.3733711 54.8710325 78.3733711 45.5853659 76.6848573 45.5853659"></polygon>
                        <polygon id="Fill-43-Copy-2" fill="#055159" points="70.1738789 54.8710325 71.8616692 54.8710325 71.8616692 45.5853659 70.1738789 45.5853659"></polygon>
                        <polygon id="Fill-44-Copy-2" fill="#055159" points="24.5970297 49.203252 60.7691322 49.203252 60.7691322 45.5853659 24.5970297 45.5853659"></polygon>
                        <path d="M94.5300024,36.5913008 L5.06409435,36.5913008 C4.66475434,36.5913008 4.3406523,36.2671382 4.3406523,35.8677236 L4.3406523,18.0894309 C4.3406523,17.6900163 4.66475434,17.3658537 5.06409435,17.3658537 L94.5300024,17.3658537 C94.9300658,17.3658537 95.2534444,17.6900163 95.2534444,18.0894309 L95.2534444,35.8677236 C95.2534444,36.2671382 94.9300658,36.5913008 94.5300024,36.5913008" id="Fill-45-Copy-2" fill="#EB8452"></path>
                        <polygon id="Fill-46-Copy-2" fill="#FCC390" points="10.1281887 31.9473821 13.8654903 31.9473821 13.8654903 21.7073171 10.1281887 21.7073171"></polygon>
                        <polygon id="Fill-47-Copy-2" fill="#FCC390" points="16.6391672 31.9473821 20.3771922 31.9473821 20.3771922 21.7073171 16.6391672 21.7073171"></polygon>
                        <polygon id="Fill-48-Copy-2" fill="#FCC390" points="23.1501456 31.9473821 26.8874472 31.9473821 26.8874472 21.7073171 23.1501456 21.7073171"></polygon>
                        <polygon id="Fill-49-Copy-2" fill="#FCC390" points="32.5548923 29.524122 84.160184 29.524122 84.160184 24.601626 32.5548923 24.601626"></polygon>
                        <path d="M94.5300024,36.3850813 L5.06409435,36.3850813 C4.66475434,36.3850813 4.3406523,36.0609187 4.3406523,35.6615041 L4.3406523,26.7723577 L10.3698183,26.7723577 L10.3698183,31.8923902 L14.10712,31.8923902 L14.10712,26.7723577 L17.0008882,26.7723577 L17.0008882,31.8923902 L20.7389132,31.8923902 L20.7389132,26.7723577 L23.6326815,26.7723577 L23.6326815,31.8923902 L27.3699831,31.8923902 L27.3699831,26.7723577 L32.7965219,26.7723577 L32.7965219,29.2332439 L84.4018137,29.2332439 L84.4018137,26.7723577 L95.2534444,26.7723577 L95.2534444,35.6615041 C95.2534444,36.0609187 94.9300658,36.3850813 94.5300024,36.3850813" id="Fill-50-Copy-2" fill="#C06D44"></path>
                        <polygon id="Fill-51-Copy-2" fill="#CFA178" points="10.1281887 31.8923902 13.8654903 31.8923902 13.8654903 26.7723577 10.1281887 26.7723577"></polygon>
                        <polygon id="Fill-52-Copy-2" fill="#CFA178" points="16.6391672 31.8923902 20.3771922 31.8923902 20.3771922 26.7723577 16.6391672 26.7723577"></polygon>
                        <polygon id="Fill-53-Copy-2" fill="#CFA178" points="23.1501456 31.8923902 26.8874472 31.8923902 26.8874472 26.7723577 23.1501456 26.7723577"></polygon>
                        <polygon id="Fill-54-Copy-2" fill="#CFA178" points="32.5548923 29.2332439 84.160184 29.2332439 84.160184 26.7723577 32.5548923 26.7723577"></polygon>
                        <path d="M74.6302819,15.1451951 L74.6302819,2.17073171 L76.077166,2.17073171 L76.800608,0 L19.5076149,0 C14.7271098,0 10.8516308,3.87692683 10.8516308,8.6583252 C10.8516308,13.4397236 14.7271098,17.3159268 19.5076149,17.3159268 L76.800608,17.3159268 L76.077166,15.1451951 L74.6302819,15.1451951" id="Fill-55-Copy-2" fill="#0C8B9D"></path>
                        <path d="M19.5076149,15.1451951 C15.9316408,15.1451951 13.0219569,12.2349675 13.0219569,8.6583252 C13.0219569,5.08095935 15.9316408,2.17073171 19.5076149,2.17073171 L74.6302819,2.17073171 L74.6302819,15.1451951 L19.5076149,15.1451951" id="Fill-56-Copy-2" fill="#FFFFFF"></path>
                        <path d="M74.6295584,7.95934959 L74.6295584,8.68292683 L13.0284679,8.68292683 C13.0219569,8.56715447 13.0219569,8.44486992 13.0219569,8.32113821 C13.0219569,8.19813008 13.0219569,8.07512195 13.0284679,7.95934959 L74.6295584,7.95934959" id="Fill-57-Copy-2" fill="#E6E7E8"></path>
                        <path d="M74.3770772,5.78861789 L74.3770772,6.51219512 L13.0219569,6.51219512 C13.0943011,6.26690244 13.1811142,6.0201626 13.2751616,5.78861789 L74.3770772,5.78861789" id="Fill-58-Copy-2" fill="#E6E7E8"></path>
                        <path d="M74.7243294,3.61788618 L15.1199388,3.61788618 C14.8819264,3.84219512 14.6641704,4.08893496 14.468841,4.34146341 L74.7243294,4.34146341 L74.7243294,3.61788618" id="Fill-59-Copy-2" fill="#E6E7E8"></path>
                        <path d="M74.3770772,10.1300813 L74.3770772,10.8536585 L13.2751616,10.8536585 C13.1811142,10.6228374 13.0943011,10.3760976 13.0219569,10.1300813 L74.3770772,10.1300813" id="Fill-60-Copy-2" fill="#E6E7E8"></path>
                        <path d="M74.7163715,12.300813 L74.7163715,13.0243902 L15.1264498,13.0243902 C14.8884374,12.8073171 14.6706813,12.5613008 14.468841,12.300813 L74.7163715,12.300813" id="Fill-61-Copy-2" fill="#E6E7E8"></path>
                    </g>
                </g>
                <g id="Group-6" transform="translate(38.000000, 0.000000)">
                    <path d="M14.7326797,13.2465379 C14.3182305,13.2465379 13.9830234,12.9095554 13.9830234,12.4936914 L13.9830234,2.34256884 C13.9830234,1.9273358 14.3182305,1.59035337 14.7326797,1.59035337 C15.1471289,1.59035337 15.4823359,1.9273358 15.4823359,2.34256884 L15.4823359,12.4936914 C15.4823359,12.9095554 15.1471289,13.2465379 14.7326797,13.2465379" id="Fill-120" fill="#8A3E19"></path>
                    <path d="M22.5418086,7.88384739 C19.7155039,7.33104475 16.8307109,8.83926201 14.7326797,11.5925473 C12.6333906,8.83926201 9.74859766,7.33104475 6.92355078,7.88384739 C2.31807031,8.78436037 -0.388742188,14.800822 0.877246094,21.3227573 C2.14323437,27.8459547 6.90153906,32.4034213 11.5057617,31.5041704 C12.7283555,31.2656323 13.8157344,30.6623454 14.7326797,29.7883366 C15.6483672,30.6623454 16.736375,31.2656323 17.9589687,31.5041704 C22.5625625,32.4034213 27.322125,27.8459547 28.5874844,21.3227573 C29.8528437,14.800822 27.1460312,8.78436037 22.5418086,7.88384739" id="Fill-121" fill="#F04F5F"></path>
                    <path d="M14.7326797,7.49511859 C14.7326797,7.49511859 11.2523125,7.64594032 9.19704687,5.58365831 C7.14303906,3.52263841 7.29271875,0.0291276368 7.29271875,0.0291276368 C7.29271875,0.0291276368 10.7737148,-0.121694089 12.8289805,1.93995687 C14.8836172,4.00223887 14.7326797,7.49511859 14.7326797,7.49511859" id="Fill-122" fill="#448891"></path>
                    <path d="M14.5729375,7.49764281 C14.5509258,7.49764281 14.5276562,7.49701175 14.5025,7.49701175 C14.5276562,7.49701175 14.5509258,7.49764281 14.5729375,7.49764281 C14.6760781,7.49764281 14.7326797,7.49511859 14.7326797,7.49511859 C14.7326797,7.49511859 14.6760781,7.49764281 14.5729375,7.49764281 M14.4804883,7.49701175 L14.4741992,7.49701175 L14.4804883,7.49701175" id="Fill-123" fill="#713314"></path>
                    <path d="M14.5729375,7.49764281 C14.5509258,7.49764281 14.5276562,7.49701175 14.5025,7.49701175 L14.4804883,7.49701175 L14.4741992,7.49701175 C13.670457,7.48565279 11.1667812,7.32473422 9.44546484,5.81651696 C9.44420703,5.81525485 9.44232031,5.81399274 9.4410625,5.81273064 C9.42219531,5.79632325 9.40332812,5.77928482 9.38446094,5.76224638 C9.38131641,5.75972217 9.37817187,5.7565669 9.37439844,5.75341163 C9.36999609,5.74899426 9.36496484,5.74457689 9.35993359,5.74015951 C9.35867578,5.73826636 9.35678906,5.73700425 9.35490234,5.73511109 C9.33100391,5.71302423 9.30710547,5.69093736 9.28383594,5.66821944 C9.27691797,5.66190891 9.27,5.65559838 9.26308203,5.64865679 C9.25679297,5.64234626 9.249875,5.63603573 9.24358594,5.6297252 C9.23918359,5.62530782 9.23478125,5.62089045 9.23037891,5.61710413 C9.22597656,5.61268676 9.22220312,5.60826939 9.21780078,5.60448307 C9.21088281,5.59754148 9.20396484,5.5905999 9.19704687,5.58365831 C7.40340625,3.78389445 7.29020312,0.893039531 7.29020312,0.187522002 C7.29020312,0.0852913758 7.29271875,0.0291276368 7.29271875,0.0291276368 L14.7326797,7.49511859 C14.7326797,7.49511859 14.6760781,7.49764281 14.5729375,7.49764281" id="Fill-124" fill="#387179"></path>
                    <path d="M19.1299922,31.6171289 C18.7400703,31.6171289 18.3488906,31.5798968 17.9589687,31.5041704 C16.736375,31.2656323 15.6483672,30.6623454 14.7326797,29.7883366 L14.7326797,11.5925473 C16.5414141,9.21852501 18.9350312,7.77025781 21.372043,7.77025781 C21.7613359,7.77025781 22.1525156,7.80748995 22.5418086,7.88384739 C26.3775078,8.63353865 28.8962773,12.9341665 28.898793,18.1189 C28.8994219,19.1582447 28.7987969,20.2335594 28.5874844,21.3227573 C27.4290391,27.2931521 23.344293,31.6171289 19.1299922,31.6171289" id="Fill-125" fill="#C5414F"></path>
                    <path d="M7.94678125,14.8759174 C7.94678125,15.7757993 7.22039453,16.5046658 6.32294531,16.5046658 C5.42675391,16.5046658 4.69910938,15.7757993 4.69910938,14.8759174 C4.69910938,13.9760354 5.42675391,13.2465379 6.32294531,13.2465379 C7.22039453,13.2465379 7.94678125,13.9760354 7.94678125,14.8759174" id="Fill-126" fill="#FFFFFF"></path>
                    <path d="M25.4832422,22.5678254 C25.457457,22.4466632 25.4341875,22.3280251 25.4140625,22.2106492 C25.4838711,22.2510366 25.5083984,22.3728299 25.4832422,22.5678254" id="Fill-63" fill="#C06D44"></path>
                </g>
            </g>
        </g>
    </g>
</svg>